<svg xmlns="http://www.w3.org/2000/svg" xmlns:xlink="http://www.w3.org/1999/xlink" width="362.83pt" height="362.84" viewBox="0 0 362.83 272.13"><path d="M0 272.13h362.835V.004H0z" fill="#fbfbfb"/><path stroke-width="1.5639" stroke-miterlimit="10" fill="none" stroke="#161823" d="M29.128 165.662v-1.564m1.564 1.564v-1.564m1.564 1.564v-1.564m1.564 1.564v-1.564m1.564 1.564v-1.564m1.564 1.564v-1.564m1.564 1.564v-1.564m3.128 1.564v-1.564m6.256 1.564v-1.564m1.564 1.564v-1.564m7.819 1.564v-1.564m6.256 1.564v-1.564m1.564 1.564v-1.564m1.564 1.564v-1.564m1.564 1.564v-1.564m1.564 1.564v-1.564m1.564 1.564v-1.564m1.564 1.564v-1.564m-43.791 3.128v-1.564m9.384 1.564v-1.564m3.128 1.564v-1.564m1.564 1.564v-1.564m1.564 1.564v-1.564m1.564 1.564v-1.564m1.564 1.564v-1.564m1.564 1.564v-1.564m4.692 1.564v-1.564m1.563 1.564v-1.564m3.128 1.564v-1.564m4.692 1.564v-1.564m9.384 1.564v-1.564m-43.791 3.128v-1.564m3.128 1.564v-1.564m1.564 1.564v-1.564m1.564 1.564v-1.564m3.128 1.564v-1.564m3.128 1.564v-1.564m1.564 1.564v-1.564m1.564 1.564v-1.564m3.128 1.564v-1.564m1.564 1.564v-1.564m3.128 1.564v-1.564m4.691 1.564v-1.564m3.128 1.564v-1.564m3.128 1.564v-1.564m3.128 1.564v-1.564m1.564 1.564v-1.564m1.564 1.564v-1.564m3.128 1.564v-1.564m-43.791 3.128v-1.564m3.128 1.564v-1.564m1.564 1.564v-1.564m1.564 1.564v-1.564m3.128 1.564v-1.564m6.256 1.564v-1.564m1.564 1.564v-1.564m3.128 1.564v-1.564m3.128 1.564v-1.564m1.564 1.564v-1.564m1.563 1.564v-1.564m3.128 1.564v-1.564m1.564 1.564v-1.564m3.128 1.564v-1.564m3.128 1.564v-1.564m1.564 1.564v-1.564m1.564 1.564v-1.564m3.128 1.564v-1.564m-43.791 3.128v-1.564m3.128 1.564v-1.564m1.564 1.564v-1.564m1.564 1.564v-1.564m3.128 1.564v-1.564m3.128 1.564v-1.564m6.256 1.564v-1.564m3.128 1.564v-1.564m4.691 1.564v-1.564m1.564 1.564v-1.564m1.564 1.564v-1.564m4.692 1.564v-1.564m3.128 1.564v-1.564m1.564 1.564v-1.564m1.564 1.564v-1.564m3.128 1.564v-1.564m-43.791 3.128v-1.564m9.384 1.564v-1.564m15.64 1.564v-1.564m1.563 1.564v-1.564m7.82 1.564v-1.564m9.384 1.564v-1.564m-43.791 3.128v-1.564m1.564 1.564v-1.564m1.564 1.564v-1.564m1.564 1.564v-1.564m1.564 1.564v-1.564m1.564 1.564v-1.564m1.564 1.564v-1.564m3.128 1.564v-1.564m3.128 1.564v-1.564m3.128 1.564v-1.564m3.128 1.564v-1.564m3.128 1.564v-1.564m3.127 1.564v-1.564m3.128 1.564v-1.564m3.128 1.564v-1.564m1.564 1.564v-1.564m1.564 1.564v-1.564m1.564 1.564v-1.564m1.564 1.564v-1.564m1.564 1.564v-1.564m1.564 1.564v-1.564M49.46 176.61v-1.564m9.383 1.564v-1.564m-29.715 3.128v-1.564m4.692 1.564v-1.564m1.564 1.564v-1.564m1.564 1.564v-1.564m1.564 1.564v-1.564m1.564 1.564v-1.564m1.564 1.564v-1.564m9.384 1.564v-1.564m4.691 1.564v-1.564m1.564 1.564v-1.564m1.564 1.564v-1.564m1.564 1.564v-1.564m1.564 1.564v-1.564m4.692 1.564v-1.564m3.128 1.564v-1.564m1.564 1.564v-1.564m1.564 1.564v-1.564m-42.227 3.127v-1.563m6.256 1.563v-1.563m3.128 1.563v-1.563m1.564 1.563v-1.563m1.564 1.563v-1.563m1.564 1.563v-1.563m3.128 1.563v-1.563m1.564 1.563v-1.563m1.564 1.563v-1.563m1.564 1.563v-1.563m3.127 1.563v-1.563m1.564 1.563v-1.563m1.564 1.563v-1.563m3.128 1.563v-1.563m3.128 1.563v-1.563m1.564 1.563v-1.563m3.128 1.563v-1.563m1.564 1.563v-1.563m-40.663 3.127v-1.564m1.564 1.564v-1.564m3.128 1.564v-1.564m1.564 1.564v-1.564m1.564 1.564v-1.564m1.564 1.564v-1.564m7.82 1.564v-1.564m4.692 1.564v-1.564m1.564 1.564v-1.564m1.563 1.564v-1.564m9.384 1.564v-1.564m1.564 1.564v-1.564m3.128 1.564v-1.564m-37.535 3.128v-1.564m9.384 1.564v-1.564m4.692 1.564v-1.564m9.383 1.564v-1.564m3.128 1.564v-1.564m3.128 1.564v-1.564m1.564 1.564v-1.564m1.564 1.564v-1.564m3.128 1.564v-1.564m4.692 1.564v-1.564m-34.407 3.128v-1.564m1.564 1.564v-1.564m3.128 1.564v-1.564m4.692 1.564v-1.564m4.692 1.564v-1.564m1.564 1.564v-1.564m4.691 1.564v-1.564m4.692 1.564v-1.564m1.564 1.564v-1.564m7.82 1.564v-1.564m-43.791 3.128v-1.564m1.564 1.564v-1.564m1.564 1.564v-1.564m1.564 1.564v-1.564m12.512 1.564v-1.564m1.564 1.564v-1.564m3.128 1.564v-1.564m1.564 1.564v-1.564m1.564 1.564v-1.564m1.563 1.564v-1.564m7.82 1.564v-1.564m1.564 1.564v-1.564m1.564 1.564v-1.564m1.564 1.564v-1.564m1.564 1.564v-1.564m1.564 1.564v-1.564m1.564 1.564v-1.564m-42.227 3.128v-1.564m7.82 1.564v-1.564m1.564 1.564v-1.564m3.128 1.564v-1.564m3.128 1.564v-1.564m1.564 1.564v-1.564m4.692 1.564v-1.564m1.564 1.564v-1.564m1.563 1.564v-1.564m1.564 1.564v-1.564m1.564 1.564v-1.564m1.564 1.564v-1.564m1.564 1.564v-1.564m1.564 1.564v-1.564m3.128 1.564v-1.564m3.128 1.564v-1.564m3.128 1.564v-1.564m-43.791 3.128v-1.564m4.692 1.564v-1.564m1.564 1.564v-1.564m6.256 1.564v-1.564m1.564 1.564v-1.564m3.128 1.564v-1.564m10.947 1.564v-1.564m1.564 1.564v-1.564m6.256 1.564v-1.564m1.564 1.564v-1.564m3.128 1.564v-1.564m3.128 1.564v-1.564m-37.535 3.128v-1.564m3.128 1.564v-1.564m6.256 1.564v-1.564m1.564 1.564v-1.564m1.564 1.564v-1.564m1.564 1.564v-1.564m1.564 1.564v-1.564m1.564 1.564v-1.564m1.564 1.564v-1.564m4.691 1.564v-1.564m1.564 1.564v-1.564m1.564 1.564v-1.564m6.256 1.564v-1.564m-39.099 3.128v-1.564m1.564 1.564v-1.564m1.564 1.564v-1.564m1.564 1.564v-1.564m14.076 1.564v-1.564m1.564 1.564v-1.564m3.128 1.564v-1.564m3.127 1.564v-1.564m1.564 1.564v-1.564m1.564 1.564v-1.564m7.82 1.564v-1.564m3.128 1.564v-1.564m1.564 1.564v-1.564m-42.227 3.128v-1.564m1.564 1.564v-1.564m1.564 1.564v-1.564m6.256 1.564v-1.564m3.128 1.564v-1.564m1.564 1.564v-1.564m1.564 1.564v-1.564m1.564 1.564v-1.564m1.564 1.564v-1.564m4.692 1.564v-1.564m3.127 1.564v-1.564m3.128 1.564v-1.564m7.82 1.564v-1.564m1.564 1.564v-1.564m4.692 1.564v-1.564m-43.791 3.128v-1.564m1.564 1.564v-1.564m1.564 1.564v-1.564m1.564 1.564v-1.564m6.256 1.564v-1.564m1.564 1.564v-1.564m7.82 1.564v-1.564m9.383 1.564v-1.564m4.692 1.564v-1.564m4.692 1.564v-1.564m1.564 1.564v-1.564m-40.663 3.128v-1.564m1.564 1.564v-1.564m1.564 1.564v-1.564m4.692 1.564v-1.564m1.564 1.564v-1.564m4.692 1.564v-1.564m6.256 1.564v-1.564m3.128 1.564v-1.564m1.564 1.564v-1.564m1.563 1.564v-1.564m4.692 1.564v-1.564m1.564 1.564v-1.564m1.564 1.564v-1.564m1.564 1.564v-1.564m1.564 1.564v-1.564m1.564 1.564v-1.564m1.564 1.564v-1.564m1.564 1.564v-1.564m-29.715 3.128v-1.564m3.128 1.564v-1.564m1.564 1.564v-1.564m3.128 1.564v-1.564m1.564 1.564v-1.564m1.564 1.564v-1.564m3.127 1.564v-1.564m1.564 1.564v-1.564m3.128 1.564v-1.564m6.256 1.564v-1.564m1.564 1.564v-1.564m-39.099 3.128v-1.564m1.564 1.564v-1.564m1.564 1.564v-1.564m1.564 1.564v-1.564m1.564 1.564v-1.564m1.564 1.564v-1.564m1.564 1.564v-1.564m3.128 1.564v-1.564m1.564 1.564v-1.564m3.128 1.564v-1.564m1.564 1.564v-1.564m1.564 1.564v-1.564m3.128 1.564v-1.564m6.255 1.564v-1.564m1.564 1.564v-1.564m3.128 1.564v-1.564m3.128 1.564v-1.564m1.564 1.564v-1.564m-39.099 3.128v-1.564m9.384 1.564v-1.564m3.128 1.564v-1.564m4.692 1.564v-1.564m3.128 1.564v-1.564m6.255 1.564v-1.564m1.564 1.564v-1.564m1.564 1.564v-1.564m1.564 1.564v-1.564m6.256 1.564v-1.564m4.692 1.564v-1.564m1.564 1.564v-1.564m-43.791 3.128v-1.564m3.128 1.564v-1.564m1.564 1.564v-1.564m1.564 1.564v-1.564m3.128 1.564v-1.564m3.128 1.564v-1.564m4.692 1.564v-1.564m1.564 1.564v-1.564m1.564 1.564v-1.564m4.692 1.564v-1.564m4.691 1.564v-1.564m1.564 1.564v-1.564m1.564 1.564v-1.564m1.564 1.564v-1.564m1.564 1.564v-1.564m1.564 1.564v-1.564m1.564 1.564v-1.564m3.128 1.564v-1.564m-42.227 3.128v-1.564m3.128 1.564v-1.564m1.564 1.564v-1.564m1.564 1.564v-1.564m3.128 1.564v-1.564m3.128 1.564v-1.564m1.564 1.564v-1.564m6.256 1.564v-1.564m1.564 1.564v-1.564m1.564 1.564v-1.564m1.564 1.564v-1.564m3.127 1.564v-1.564m4.692 1.564v-1.564m10.948 1.564v-1.564m-43.791 3.128v-1.564m3.128 1.564v-1.564m1.564 1.564v-1.564m1.564 1.564v-1.564m3.128 1.564v-1.564m6.256 1.564v-1.564m7.82 1.564v-1.564m3.127 1.564v-1.564m4.692 1.564v-1.564m1.564 1.564v-1.564m3.128 1.564v-1.564m1.564 1.564v-1.564m3.128 1.564v-1.564m1.564 1.564v-1.564m1.564 1.564v-1.564m-43.791 3.127v-1.563m9.384 1.563v-1.563m9.384 1.563v-1.563m4.692 1.563v-1.563m10.947 1.563v-1.563m1.564 1.563v-1.563m3.128 1.563v-1.563m1.564 1.563v-1.563m3.128 1.563v-1.563m-43.791 3.127v-1.564m1.564 1.564v-1.564m1.564 1.564v-1.564m1.564 1.564v-1.564m1.564 1.564v-1.564m1.564 1.564v-1.564m1.564 1.564v-1.564m3.128 1.564v-1.564m15.639 1.564v-1.564m1.564 1.564v-1.564m1.564 1.564v-1.564m3.128 1.564v-1.564m3.128 1.564v-1.564"/><g data-name="Span"><symbol id="a"><path d="M.395.318C.35.305.304.293.26.281v.242h.112c.014 0 .023.005.026.016a1.688 1.688 0 0 1-.082.093L.269.551H.26v.261h.122c.014 0 .025.005.028.016C.367.869.294.929.294.929L.229.84H.007L.015.812h.106V.551H.019L.027.523h.094V.245A6.7231 6.7231 0 0 0 0 .216L.072.057c.013.005.023.016.027.03.144.095.24.171.298.222L.395.318M.937.279H.926C.908.22.892.168.883.151.877.141.873.139.863.138H.784c-.017 0-.02.004-.02.016v.238c.005.001.01.002.014.004V.327h.024c.07 0 .114.026.114.033v.466C.939.83.95.838.957.847L.839.939.774.865H.556L.414.918V.315h.024c.067 0 .107.024.107.033v.489h.233V.418L.712.424c.013.088.014.187.016.3.023.003.033.013.036.028L.592.767C.591.401.618.177.235.014L.243 0c.22.057.338.133.403.234V.121c0-.076.015-.099.103-.099h.064c.118 0 .16.027.16.074C.973.118.968.132.94.145L.937.279z"/></symbol><use xlink:href="#a" transform="matrix(20.6625 0 0 -20.6625 109.467 81.8023)" fill="#161823"/></g><g data-name="Span"><symbol id="b"><path d="M.701.941C.736.905.775.846.788.792c.123-.073.216.157-.08.155L.701.941M.262.696c.039.059.074.126.105.201.024-.001.037.008.041.021l-.2.062C.17.782.085.579 0 .453L.01.445c.052.034.1.072.144.117V.029h.027c.055 0 .114.03.115.04v.584c.02.003.028.01.032.019L.262.696m.697-.34L.95.358a1.1769 1.1769 0 0 0-.074-.13C.865.212.857.212.842.226.723.317.673.46.654.625l.28.033C.948.66.959.667.961.679.9.718.805.77.805.77L.737.663.651.653C.643.735.642.823.644.912.669.916.678.928.68.941L.498.963c0-.114.003-.224.015-.327L.319.613.33.587l.186.022C.542.401.607.221.759.088.809.046.905 0 .959.054c.02.02.015.057-.026.125l.026.177z"/></symbol><use xlink:href="#b" transform="matrix(20.6625 0 0 -20.6625 130.1093 82.4841)" fill="#161823"/></g><g data-name="Span"><symbol id="c"><path d="M.328.044h-.06C.247.044.233.063.233.123v.402c0 .083.028.087.083.09.01.006.01.028 0 .034C.234.648.204.647.164.647.124.647.01.649.01.649 0 .643 0 .621.01.615.065.612.093.608.093.525V.124C.093.041.065.037.01.034 0 .028 0 .006.01 0c0 0 .115.002.154.002h.223C.416.002.507 0 .507 0c.01.05.02.115.026.167A.0883.0883 0 0 1 .49.172C.47.1.433.044.328.044z"/></symbol><use xlink:href="#c" transform="matrix(22.7289 0 0 -22.7289 156.7663 79.9674)" fill="#161823"/></g><g data-name="Span"><symbol id="d"><path d="M.502.088.363.476C.352.47.27.444.245.444L.101.104C.075.042.05.037.006.034 0 .028 0 .006.006 0 .034.001.065.002.09.002.119.002.181.001.218 0c.006.006.006.028 0 .034C.18.037.133.04.149.081l.03.078c.004.009.008.012.025.012h.137L.374.074C.385.042.348.037.3.034.294.028.294.006.3 0a4.9753 4.9753 0 0 0 .287 0c.006.006.006.028 0 .034C.545.037.519.041.502.088M.22.206C.204.206.199.208.202.215l.062.162h.005L.328.206H.22z"/></symbol><use xlink:href="#d" transform="matrix(22.7289 0 0 -22.7289 163.335 75.4215)" fill="#161823"/></g><g data-name="Span"><symbol id="e"><path d="M.402.125v.38c0 .064.01.101.046.101H.47C.545.606.587.581.604.504c.011 0 .03.001.039.005C.636.555.631.607.63.652.63.653.628.655.627.655A3.5561 3.5561 0 0 0 .403.647H.262C.185.647.067.652.029.655.027.655.025.653.025.652A1.1447 1.1447 0 0 0 0 .506C.01.502.027.501.039.501c.02.08.061.105.127.105h.049C.252.606.262.569.262.508V.125C.262.042.245.037.165.034.159.028.159.006.165 0 .214.001.266.002.33.002.396.002.449.001.499 0c.006.006.006.028 0 .034C.419.037.402.042.402.125z"/></symbol><use xlink:href="#e" transform="matrix(22.7289 0 0 -22.7289 173.8582 79.9674)" fill="#161823"/></g><g data-name="Span"><symbol id="f"><path d="M.314.367H.233v.189c0 .024.017.049.041.049h.085C.434.605.455.567.477.498.489.496.51.498.52.503.515.544.51.64.508.648.508.65.507.651.504.651A.2246.2246 0 0 0 .455.647H.16S.056.648.006.649C0 .643 0 .621.006.615.076.612.093.607.093.524v-.4C.093.041.076.037.006.034 0 .028 0 .006.006 0c.049.001.155.002.155.002h.235C.444.002.534 0 .534 0c.014.05.019.116.027.167C.551.173.529.175.516.172.496.1.451.044.375.044H.274C.252.044.233.065.233.092v.229h.081C.383.321.402.302.405.257c.006-.006.037-.006.043 0C.447.292.446.311.446.345c0 .034.001.056.002.086-.006.006-.037.006-.043 0C.402.376.381.367.314.367z"/></symbol><use xlink:href="#f" transform="matrix(22.7289 0 0 -22.7289 185.0246 84.8885)" fill="#161823"/></g><g data-name="Span"><symbol id="g"><path d="M.43.09C.455.055.462.037.406.034.4.028.4.006.406 0c.04.001.116.002.156.002C.601.002.674.001.704 0 .71.006.709.028.703.034.661.037.635.046.598.1L.444.328C.422.361.422.368.439.39l.135.176C.602.602.632.61.677.614c.006.006.006.028 0 .034C.647.647.598.646.575.646.552.646.499.647.459.648.453.642.453.62.459.614.503.611.518.595.503.565.476.517.444.464.403.416.392.403.385.411.374.43L.297.558C.275.595.276.611.332.614c.006.006.006.028 0 .034C.292.647.225.646.185.646.146.646.06.647.03.648.024.642.025.62.031.614.073.611.092.601.13.548L.274.345C.294.317.294.313.278.292L.114.082C.086.046.051.038.006.034 0 .028 0 .006.006 0c.03.001.088.002.111.002C.14.002.199.001.239 0c.006.006.006.028 0 .034C.195.037.179.053.195.083c.032.06.071.118.113.176.01.013.017.011.03-.012L.43.09z"/></symbol><use xlink:href="#g" transform="matrix(22.7289 0 0 -22.7289 195.912 79.9447)" fill="#161823"/></g><g data-name="Span"><symbol id="h"><path d="M.01.003c.247.107.429.286.523.46C.583.279.66.111.792 0c.021.08.08.15.18.167l.004.014C.729.297.598.525.53.787.513.841.417.913.332.958.314.931.273.849.26.82.328.811.424.799.457.778.387.469.215.173 0 .014L.01.003z"/></symbol><use xlink:href="#h" transform="matrix(20.6625 0 0 -20.6625 218.195 81.885)" fill="#161823"/></g><g data-name="Span"><symbol id="i"><path d="M0 0h.025c.057 0 .118.031.118.045v.729c.033.004.042.017.044.034L0 .825V0m.086.946C.137.898.192.822.215.751.356.672.446.941.093.952L.086.946m.639-.02L.661.854H.372L.381.826h.29V.178C.671.164.666.156.648.156.622.156.489.163.489.163V.151C.551.139.576.124.597.102.617.081.624.047.628.001c.164.014.187.067.187.161v.641c.02.005.032.014.039.022L.725.926z"/></symbol><use xlink:href="#i" transform="matrix(20.6625 0 0 -20.6625 240.4066 81.8436)" fill="#161823"/></g><g data-name="Span"><symbol id="j"><path d="M.077.934C.112.889.153.823.169.761.296.68.399.919.084.939L.077.934M.385.338C.347.316.308.295.272.275v.35c.025.003.036.011.041.018L.201.736.138.675H0L.009.647h.127V.249C.136.225.128.214.079.185L.18.038C.195.049.212.07.22.1.3.196.36.283.39.33L.385.338m.173.078C.559.432.56.448.56.465v.213h.086V.416H.558m.226 0H.78v.262h.128c.014 0 .024.005.027.016C.897.735.828.798.828.798L.78.726v.178c.028.004.035.014.037.028L.646.949V.706H.56v.198c.026.004.034.015.036.029l-.17.016V.706H.311L.319.678h.107V.466c0-.017 0-.034-.001-.05H.291L.299.388h.124C.412.232.362.11.243.012L.251.003C.453.08.537.212.556.388h.09V0h.026C.722 0 .78.033.78.047v.341h.161c.014 0 .025.005.028.016C.927.449.851.517.851.517L.784.416z"/></symbol><use xlink:href="#j" transform="matrix(20.6625 0 0 -20.6625 259.6646 81.885)" fill="#161823"/></g><g data-name="Span"><symbol id="k"><path d="M.228.748h.706c.014 0 .025.005.028.016C.917.807.839.871.839.871L.77.776H.591C.655.819.646.95.411.954L.405.949C.441.907.478.843.489.781L.497.776H.249L.083.832v-.31C.083.351.08.157 0 .006L.008 0c.209.138.22.356.22.522v.226M.7.695C.694.57.668.437.633.346L.646.338C.699.38.744.436.781.504.803.458.822.403.824.354.922.27 1.029.457.797.537c.014.03.027.062.038.096.023.001.035.01.039.024L.7.695M.277.7C.275.56.252.412.215.305L.229.298C.285.35.328.42.362.505.37.469.375.428.371.39.454.303.576.46.377.548c.01.031.019.063.027.097.023.002.034.012.037.025L.277.7M.77.071H.629V.24H.86c.015 0 .026.005.029.016-.045.041-.121.1-.121.1L.702.268H.629v.437c.023.004.03.013.031.026L.486.746V.268h-.24L.254.24h.232V.071H.155L.163.043h.78c.014 0 .026.005.029.016-.048.045-.13.112-.13.112L.77.071z"/></symbol><use xlink:href="#k" transform="matrix(20.6625 0 0 -20.6625 280.12 81.947)" fill="#161823"/></g><g data-name="Span"><symbol id="l"><path d="M.639.093C.636.067.623.037.596.035L.57.033C.566.033.561.03.56.025L.558.006.56.004c.046.001.075.002.103.002.029 0 .063-.001.108-.002l.002.002.002.019C.776.03.772.033.766.033L.74.035C.716.037.71.05.71.071c0 .007.001.014.002.022L.773.58c.003.026.016.04.045.042l.026.002c.005 0 .011.001.012.007l.002.02-.002.002H.73L.427.144C.421.134.418.13.416.13.413.13.412.134.411.143L.313.652.169.653.167.651.165.631c0-.004.001-.007.008-.007L.2.622C.223.62.232.614.232.6.232.594.231.588.229.58L.088.092C.081.065.068.037.038.035L.012.033C.006.033.003.03.002.025L0 .006.002.004c.029.001.062.002.085.002.023 0 .06-.001.088-.002l.003.002.001.019C.179.03.176.033.171.033L.147.035C.128.036.121.049.121.066c0 .008.001.017.004.026L.251.53h.002L.35.011C.352.004.357 0 .363 0c.005 0 .01.003.015.011L.697.54h.002L.639.093z"/></symbol><symbol id="m"><path d="M0 .172C0 .119.013 0 .14 0c.032 0 .063.004.092.019.087.044.155.15.155.268 0 .072-.018.162-.141.162C.079.449 0 .292 0 .172M.083.18c0 .09.039.236.145.236C.258.416.274.4.289.372.301.347.304.31.304.28.304.24.298.154.261.098.233.055.193.037.155.037.126.037.083.075.083.18z"/></symbol><symbol id="n"><path d="M.264.126.257.1C.251.076.247.057.247.045.247.026.254 0 .288 0 .35 0 .39.04.416.097.411.106.406.113.393.113.366.076.347.06.337.06.334.06.325.062.325.074c0 .009.006.037.01.056l.106.463c.015.065.025.105.025.105 0 .007-.003.01-.012.01C.427.698.355.685.314.682L.311.658c0-.003.001-.005.005-.005L.347.651C.36.651.368.645.368.623.368.612.366.595.361.573L.324.394H.323a.0856.0856 0 0 1-.079.055C.137.449 0 .301 0 .144 0 .089.014 0 .102 0c.052 0 .099.04.159.128L.264.126m0 .078C.215.114.158.046.119.046.087.046.08.104.08.16c0 .106.075.253.167.253C.285.413.31.361.31.326.31.303.293.257.264.204z"/></symbol><symbol id="o"><path d="M.084.209c.257.05.257.126.257.164v.002C.341.4.318.449.246.449.072.449 0 .279 0 .152 0 .067.04 0 .123 0 .19 0 .251.035.31.111.305.122.299.127.287.127.23.069.207.06.159.06.114.06.083.084.083.175c0 .005 0 .026.001.034M.272.38C.272.29.167.257.091.247c.035.142.09.171.132.171C.259.418.272.409.272.38z"/></symbol><symbol id="p"><path d="M.132.295.14.33c.009.039.018.074.018.091 0 .015-.009.025-.022.025C.104.446.063.439.016.433.009.425.011.414.017.405l.04-.003C.069.401.075.392.075.382c0-.009 0-.023-.007-.051L.013.082C.008.061 0 .043 0 .027S.009 0 .038 0c.035 0 .036.043.046.082l.029.117c.048.087.104.18.127.18.01 0 .015-.005.021-.012C.268.359.281.346.295.346.322.346.34.375.34.402.34.423.325.449.288.449.238.449.18.387.136.294L.132.295z"/></symbol><symbol id="q"><path d="m.344.134.038.159C.39.328.395.351.395.369c0 .06-.027.08-.066.08C.277.449.234.428.142.32L.141.321.144.33c.013.037.022.08.022.095 0 .014-.008.021-.021.021C.113.446.066.44.019.433.012.425.014.414.02.405L.06.402C.072.401.078.392.078.382.078.374.075.359.069.331L.013.082C.008.062 0 .037 0 .027 0 .011.011 0 .043 0 .081 0 .08.044.089.082l.038.166C.19.33.245.389.281.389.302.389.316.384.316.353.316.341.31.313.303.285L.265.125C.257.093.248.052.248.033.248.014.259 0 .289 0c.048 0 .096.034.142.093C.428.102.422.11.408.11.382.08.353.06.343.06c-.007 0-.01.005-.01.017 0 .009.005.031.011.057z"/></symbol><use xlink:href="#l" transform="matrix(13.1508 0 0 -13.1508 161.2024 107.4049)" fill="#161823"/><use xlink:href="#m" transform="matrix(13.1508 0 0 -13.1508 172.591 107.4575)" fill="#161823"/><use xlink:href="#n" transform="matrix(13.1508 0 0 -13.1508 178.5878 107.4575)" fill="#161823"/><use xlink:href="#o" transform="matrix(13.1508 0 0 -13.1508 185.0448 107.4575)" fill="#161823"/><use xlink:href="#p" transform="matrix(13.1508 0 0 -13.1508 190.3972 107.4575)" fill="#161823"/><use xlink:href="#q" transform="matrix(13.1508 0 0 -13.1508 195.092 107.4575)" fill="#161823"/></g><g data-name="Span"><symbol id="r"><path d="M.099.078C.094.05.078.036.037.032L.006.029C.002.025 0 .009.004 0c.045.001.081.002.12.002h.203C.353.002.441 0 .441 0c.015.056.037.113.058.165C.493.171.481.174.471.172.443.111.397.041.324.041h-.11C.19.041.177.055.177.078c0 .004 0 .008.001.013l.094.48c.006.028.021.042.062.046L.365.62c.004.004.006.02.002.029C.322.648.286.647.247.647.209.647.164.648.12.649.117.645.114.625.117.62L.151.617C.19.614.201.601.195.571L.099.078z"/></symbol><use xlink:href="#r" transform="matrix(13.1508 0 0 -13.1508 204.2707 107.3523)" fill="#161823"/></g><g data-name="Span"><symbol id="s"><path d="M.19.166a.029.029 0 0 0 .024.011H.38L.399.061C.4.058.399.055.399.053V.05C.395.037.38.029.355.029H.338C.334.029.331.026.331.023L.326.002.327 0s.081.002.108.002C.464.002.513 0 .513 0l.003.002.004.021C.521.026.521.029.515.029.484.029.473.038.466.078L.407.451C.404.474.388.476.376.476.37.476.352.472.339.451L.083.072C.059.036.037.029.012.029.009.029.006.026.005.023L0 .002.001 0s.044.002.063.002C.082.002.157 0 .157 0l.002.002.005.021C.165.026.163.029.159.029H.147C.125.029.112.034.112.044c0 .001 0 .003.001.004 0 .003.003.008.006.013L.19.166m.186.04H.243C.224.206.226.215.227.22l.118.175h.001l.03-.189z"/></symbol><use xlink:href="#s" transform="matrix(13.1508 0 0 -13.1508 206.9403 104.7223)" fill="#161823"/></g><g data-name="Span"><symbol id="t"><path d="M.118.647C.092.647.071.656.047.66.034.611.022.583 0 .53A.063.063 0 0 1 .03.523c.029.065.054.085.107.085h.069c.039 0 .045-.01.04-.039L.151.078C.145.05.13.036.089.032L.058.029C.054.025.052.009.056 0c.045.001.081.002.12.002C.214.002.259.001.303 0c.003.004.006.024.003.029L.272.032C.233.035.222.048.228.078l.095.488C.33.6.343.608.377.608h.054C.483.608.498.582.515.515c.01 0 .018 0 .03.005C.534.577.532.62.534.66.501.655.488.647.452.647H.118z"/></symbol><use xlink:href="#t" transform="matrix(13.1508 0 0 -13.1508 213.3577 107.3523)" fill="#161823"/></g><g data-name="Span"><symbol id="u"><path d="M.542.648C.542.65.541.651.538.651A.2015.2015 0 0 0 .492.647H.249C.212.647.173.648.128.649L.126.647.122.627C.121.624.121.62.128.62L.156.618C.186.616.199.608.199.587.199.583.198.578.197.573L.1.074C.094.046.08.034.042.031L.013.029C.007.029.005.025.004.022L0 .002.002 0c.045.001.085.002.122.002H.33C.376.002.452 0 .452 0 .473.052.498.115.52.167L.491.172C.458.1.409.041.336.041h-.13c-.018 0-.03.004-.03.023 0 .003 0 .006.001.01l.049.251h.122C.378.325.39.318.39.295.39.293.389.29.389.287L.387.262C.386.259.387.254.392.254h.021l.005.003c.004.04.009.067.013.087.003.02.01.05.021.09L.449.438H.428C.424.438.42.434.419.43L.412.405C.403.377.389.363.356.363H.234l.04.21c.005.024.019.034.042.034h.1c.072 0 .082-.04.09-.109l.028.005C.538.544.542.64.542.648z"/></symbol><use xlink:href="#u" transform="matrix(13.1508 0 0 -13.1508 217.0047 110.1733)" fill="#161823"/></g><g data-name="Span"><symbol id="v"><path d="M.131.627C.13.623.135.622.143.62h.002C.161.617.189.609.217.551L.315.346A.0423.0423 0 0 0 .324.322C.324.32.323.318.323.316A.0589.0589 0 0 0 .309.293L.141.106C.114.076.072.032.016.029.01.029.005.027.004.022L0 .002V0c.029.001.053.002.081.002C.119.002.144.001.189 0l.003.002.004.02c0 .003 0 .006-.005.007L.173.031C.156.033.149.038.149.046c0 .009.009.02.019.033L.33.26c.008.008.015.014.017.014.004 0 .008-.003.012-.011l.09-.188C.456.061.46.052.46.046.46.036.451.033.428.031L.408.029C.404.029.402.026.401.022L.397.002.4 0c.045.001.098.002.12.002C.542.002.582.001.621 0l.002.002.004.02c0 .003-.001.007-.006.007C.579.032.553.065.534.104l-.107.21a.0602.0602 0 0 0-.009.028v.005c.002.009.008.018.019.03l.16.177C.63.59.657.618.715.62c.008 0 .01.004.01.007l.004.02-.002.002C.688.648.655.647.633.647.611.647.577.648.538.649L.536.647.532.627C.531.622.534.62.538.62L.566.618C.579.617.584.613.584.607.584.6.576.588.563.574L.405.399C.398.391.393.387.39.387.388.387.385.391.381.398l-.08.176C.295.586.291.596.291.603c0 .009.006.014.023.015L.346.62c.002 0 .005.002.006.007l.003.019C.354.646.354.649.354.649A7.171 7.171 0 0 0 .237.647C.214.647.176.648.138.649L.135.646.131.627z"/></symbol><use xlink:href="#v" transform="matrix(13.1508 0 0 -13.1508 222.1735 107.3523)" fill="#161823"/></g><g data-name="Span"><symbol id="w"><path d="M.138.33c.009.039.021.078.021.095 0 .014-.008.021-.021.021C.106.446.061.439.014.433.007.425.009.414.015.405l.04-.003C.067.401.073.392.073.382.073.373.071.359.064.331L.017.125C.01.093 0 .052 0 .033 0 .014.011 0 .041 0 .089 0 .134.034.18.093.177.102.171.11.157.11.131.08.102.06.092.06c-.007 0-.01.005-.01.017 0 .009.005.031.011.057L.138.33M.094.58c0-.026.022-.048.048-.048C.168.532.19.554.19.58.19.606.168.628.142.628A.0487.0487 0 0 1 .094.58z"/></symbol><use xlink:href="#w" transform="matrix(13.1508 0 0 -13.1508 235.0871 107.4575)" fill="#161823"/><use xlink:href="#q" transform="matrix(13.1508 0 0 -13.1508 238.48 107.4575)" fill="#161823"/></g><g data-name="Span"><symbol id="x"><path d="M.332.443C.305.446.292.449.252.449.145.449 0 .292 0 .135 0 .079.013 0 .097 0 .15 0 .206.055.266.144L.268.142.255.1a.2072.2072 0 0 1-.01-.055C.245.026.252 0 .286 0c.062 0 .102.04.128.097C.409.106.404.113.391.113.364.076.345.06.335.06.332.06.323.062.323.074c0 .009.006.037.01.056l.069.311h-.02C.364.44.347.439.332.443M.282.229C.233.139.156.055.124.055.09.055.08.095.08.151c0 .106.083.267.175.267.021 0 .043-.007.062-.019 0 0-.01-.106-.035-.17z"/></symbol><use xlink:href="#x" transform="matrix(13.1508 0 0 -13.1508 248.4348 107.4575)" fill="#161823"/></g><g data-name="Span"><symbol id="y"><path d="M.675.567C.681.597.7.623.738.626l.027.002c.003 0 .009.003.009.008l.002.019-.002.002C.729.656.693.655.67.655.646.655.605.656.56.657L.558.655.555.636C.554.632.562.628.567.628L.591.626C.623.624.634.604.634.582.634.577.633.572.632.567L.558.188C.554.169.552.158.546.158.538.158.529.176.508.213L.265.657H.133L.13.655.128.636c0-.005.007-.007.014-.008C.173.625.194.586.195.56L.105.098C.099.071.081.042.041.039L.016.037C.007.036.003.033.002.028L0 .01.002.008C.047.009.088.01.112.01.136.01.171.009.216.008L.218.01.22.029C.221.035.219.037.214.037L.189.039C.159.041.146.06.146.083c0 .005.001.01.002.015l.068.351c.007.034.012.049.019.049.006 0 .014-.011.027-.033L.511.024C.518.009.529 0 .545 0c.013 0 .022.012.026.031l.104.536z"/></symbol><symbol id="z"><path d="M.421.362C.425.38.434.41.434.422c0 .017-.01.027-.042.027C.354.449.356.405.346.367L.317.257C.243.131.194.06.144.06c-.018 0-.03.01-.03.037 0 .016.002.037.009.064l.043.163c.008.032.021.073.021.092 0 .019-.006.033-.036.033C.103.449.046.415 0 .356.003.347.009.339.023.339c.026.03.059.05.069.05.007 0 .01-.005.01-.017C.102.363.096.341.089.315L.045.147A.2588.2588 0 0 1 .035.08C.035.023.067 0 .102 0 .18 0 .23.062.301.166L.304.164.293.125C.284.093.276.052.276.033.276.014.283 0 .313 0c.048 0 .093.034.139.093C.449.102.443.11.429.11.403.08.374.06.364.06c-.007 0-.01.005-.01.017 0 .009.005.031.011.057l.056.228z"/></symbol><symbol id="A"><path d="M.085.439.032.436C.013.435.006.427.004.419A.1364.1364 0 0 1 0 .402C0 .4.003.4.006.4h.07L.015.128C.008.096.001.065.001.046.001.01.019 0 .05 0c.045 0 .111.041.145.103C.192.116.185.122.173.122.127.07.109.06.093.06.09.06.08.062.08.074c0 .009.003.029.011.063L.15.4h.098c.012.005.021.031.01.039H.159l.01.045c.004.019.013.048.013.06 0 .017-.008.027-.04.027C.106.571.108.526.098.489L.085.439z"/></symbol><symbol id="B"><path d="M.115 0H.13c.098 0 .157.054.157.128C.287.175.26.221.168.282c-.03.02-.04.038-.04.063 0 .035.02.071.063.071.025 0 .042-.008.045-.029C.239.363.256.335.282.335c.028 0 .036.018.036.034 0 .036-.052.08-.114.08-.087 0-.14-.064-.14-.125 0-.04.022-.083.087-.127C.204.161.212.128.212.107.212.052.172.033.127.033.101.033.087.038.084.06.081.083.067.113.037.113A.0353.0353 0 0 1 0 .078C0 .041.046.004.115 0z"/></symbol><symbol id="C"><path d="m.087.082.038.166C.188.33.253.389.289.389.31.389.324.383.324.352.324.338.322.319.314.285L.276.125C.268.093.259.052.259.033.259.014.27 0 .3 0c.048 0 .093.034.139.093C.436.102.43.11.416.11.39.08.361.06.351.06c-.007 0-.01.005-.01.017 0 .009.005.031.011.057L.39.293c.008.035.013.058.013.076 0 .06-.027.08-.066.08C.285.449.233.428.141.322l.061.271c.015.065.025.105.025.105 0 .007-.003.01-.012.01C.188.698.116.685.075.682L.072.658c0-.003.001-.005.005-.005L.108.651C.121.651.129.645.129.623.129.612.127.595.122.573L.013.082C.008.062 0 .037 0 .027 0 .011.009 0 .041 0c.038 0 .037.044.046.082z"/></symbol><symbol id="D"><path d="M.193.593c.015.065.025.105.025.105 0 .007-.003.01-.012.01C.179.698.107.685.066.682L.063.658c0-.003.001-.005.005-.005L.099.651C.112.651.12.645.12.623.12.612.118.595.113.573L.014.129C.007.097 0 .063 0 .044 0 .025.005 0 .042 0c.045 0 .1.026.145.101C.183.111.178.118.165.118.135.082.103.06.091.06.083.06.079.066.079.074s.003.023.012.063l.102.456z"/></symbol><use xlink:href="#y" transform="matrix(13.1508 0 0 -13.1508 257.2458 107.4575)" fill="#161823"/><use xlink:href="#z" transform="matrix(13.1508 0 0 -13.1508 266.9643 107.4575)" fill="#161823"/><use xlink:href="#A" transform="matrix(13.1508 0 0 -13.1508 274.0262 107.4575)" fill="#161823"/><use xlink:href="#B" transform="matrix(13.1508 0 0 -13.1508 277.5112 107.4575)" fill="#161823"/><use xlink:href="#C" transform="matrix(13.1508 0 0 -13.1508 282.5479 107.4575)" fill="#161823"/><use xlink:href="#o" transform="matrix(13.1508 0 0 -13.1508 289.2943 107.4575)" fill="#161823"/><use xlink:href="#D" transform="matrix(13.1508 0 0 -13.1508 294.6993 107.4575)" fill="#161823"/><use xlink:href="#D" transform="matrix(13.1508 0 0 -13.1508 298.1974 107.4575)" fill="#161823"/></g><path d="M334.491 129.7433v-13.1996h-8.3997v-2.4h8.3997v-8.3997h-1.2v7.1998h-7.1997v-2.4h4.7998v-4.7998h-1.2v3.5999h-4.7998v3.5999h-3.6v3.5999h-3.5998v3.5999h-3.6v4.7998h-3.5998v1.2h4.7998v-4.7999h2.4v7.1999h-7.1998v1.2h8.3997v-8.3999h2.4v8.3998h13.1996m-1.2-1.2h-10.7997v-7.1997h2.4v4.7998h5.9998v-5.9998h-4.7998v-2.4h7.1997v10.7998m-3.5999-3.6h-3.5999v-3.5999h3.6v3.6m-4.8-4.8h-2.3999v-2.3998h2.4v2.3999m-3.6 0h-2.3999v-2.4h2.4v2.4m3.5999-3.5999h-2.4v-2.4h2.4v2.4" fill="#dc3023"/><path stroke-width=".3985" stroke-linecap="square" stroke-miterlimit="10" fill="none" stroke="#dc3023" d="M334.491 129.7433v-13.1996h-8.3997v-2.4h8.3997v-8.3997h-1.2v7.1998h-7.1997v-2.4h4.7998v-4.7998h-1.2v3.5999h-4.7998v3.5999h-3.6v3.5999h-3.5998v3.5999h-3.6v4.7998h-3.5998v1.2h4.7998v-4.7999h2.4v7.1999h-7.1998v1.2h8.3997v-8.3999h2.4v8.3998h13.1996m-1.2-1.2h-10.7997v-7.1997h2.4v4.7998h5.9998v-5.9998h-4.7998v-2.4h7.1997v10.7998m-3.5999-3.6h-3.5999v-3.5999h3.6v3.6m-4.8-4.8h-2.3999v-2.3998h2.4v2.3999m-3.6 0h-2.3999v-2.4h2.4v2.4m3.5999-3.5999h-2.4v-2.4h2.4v2.4"/><path d="M329.6922 105.744h1.2V81.7447h-1.2v23.9993m3.5999 0h1.1999V81.7447h-1.2v23.9993" fill="#dc3023"/><path stroke-width=".3985" stroke-linecap="square" stroke-miterlimit="10" fill="none" stroke="#dc3023" d="M329.6922 105.744h1.2V81.7447h-1.2v23.9993m3.5999 0h1.1999V81.7447h-1.2v23.9993"/><path d="M329.6922 81.743h1.2V57.7437h-1.2V81.743m3.5999 0h1.1999V57.7437h-1.2V81.743" fill="#dc3023"/><path stroke-width=".3985" stroke-linecap="square" stroke-miterlimit="10" fill="none" stroke="#dc3023" d="M329.6922 81.743h1.2V57.7437h-1.2V81.743m3.5999 0h1.1999V57.7437h-1.2V81.743"/><clipPath id="E"><path transform="matrix(1 0 0 -1 28.346 129.743)" d="M0 12.0002V-1.9925h282.1465v13.9927zM282.1465-1.9925"/></clipPath><g clip-path="url(#E)"><path d="M28.347 124.9431v1.2h23.9993v-1.2H28.347m0 3.6v1.1999h23.9993v-1.2H28.347" fill="#dc3023"/><path stroke-width=".3985" stroke-linecap="square" stroke-miterlimit="10" fill="none" stroke="#dc3023" d="M28.347 124.9431v1.2h23.9993v-1.2H28.347m0 3.6v1.1999h23.9993v-1.2H28.347"/><path d="M52.347 124.9431v1.2h23.9993v-1.2H52.347m0 3.6v1.1999h23.9993v-1.2H52.347" fill="#dc3023"/><path stroke-width=".3985" stroke-linecap="square" stroke-miterlimit="10" fill="none" stroke="#dc3023" d="M52.347 124.9431v1.2h23.9993v-1.2H52.347m0 3.6v1.1999h23.9993v-1.2H52.347"/><path d="M76.347 124.9431v1.2h23.9993v-1.2H76.347m0 3.6v1.1999h23.9993v-1.2H76.347" fill="#dc3023"/><path stroke-width=".3985" stroke-linecap="square" stroke-miterlimit="10" fill="none" stroke="#dc3023" d="M76.347 124.9431v1.2h23.9993v-1.2H76.347m0 3.6v1.1999h23.9993v-1.2H76.347"/><path d="M100.348 124.9431v1.2h23.9993v-1.2H100.348m0 3.6v1.1999h23.9993v-1.2H100.348" fill="#dc3023"/><path stroke-width=".3985" stroke-linecap="square" stroke-miterlimit="10" fill="none" stroke="#dc3023" d="M100.348 124.9431v1.2h23.9993v-1.2H100.348m0 3.6v1.1999h23.9993v-1.2H100.348"/><path d="M124.348 124.9431v1.2h23.9993v-1.2H124.348m0 3.6v1.1999h23.9993v-1.2H124.348" fill="#dc3023"/><path stroke-width=".3985" stroke-linecap="square" stroke-miterlimit="10" fill="none" stroke="#dc3023" d="M124.348 124.9431v1.2h23.9993v-1.2H124.348m0 3.6v1.1999h23.9993v-1.2H124.348"/><path d="M148.349 124.9431v1.2h23.9993v-1.2H148.349m0 3.6v1.1999h23.9993v-1.2H148.349" fill="#dc3023"/><path stroke-width=".3985" stroke-linecap="square" stroke-miterlimit="10" fill="none" stroke="#dc3023" d="M148.349 124.9431v1.2h23.9993v-1.2H148.349m0 3.6v1.1999h23.9993v-1.2H148.349"/><path d="M172.349 124.9431v1.2h23.9993v-1.2H172.349m0 3.6v1.1999h23.9993v-1.2H172.349" fill="#dc3023"/><path stroke-width=".3985" stroke-linecap="square" stroke-miterlimit="10" fill="none" stroke="#dc3023" d="M172.349 124.9431v1.2h23.9993v-1.2H172.349m0 3.6v1.1999h23.9993v-1.2H172.349"/><path d="M196.35 124.9431v1.2h23.9993v-1.2H196.35m0 3.6v1.1999h23.9993v-1.2H196.35" fill="#dc3023"/><path stroke-width=".3985" stroke-linecap="square" stroke-miterlimit="10" fill="none" stroke="#dc3023" d="M196.35 124.9431v1.2h23.9993v-1.2H196.35m0 3.6v1.1999h23.9993v-1.2H196.35"/><path d="M220.35 124.9431v1.2h23.9993v-1.2H220.35m0 3.6v1.1999h23.9993v-1.2H220.35" fill="#dc3023"/><path stroke-width=".3985" stroke-linecap="square" stroke-miterlimit="10" fill="none" stroke="#dc3023" d="M220.35 124.9431v1.2h23.9993v-1.2H220.35m0 3.6v1.1999h23.9993v-1.2H220.35"/><path d="M244.35 124.9431v1.2h23.9993v-1.2H244.35m0 3.6v1.1999h23.9993v-1.2H244.35" fill="#dc3023"/><path stroke-width=".3985" stroke-linecap="square" stroke-miterlimit="10" fill="none" stroke="#dc3023" d="M244.35 124.9431v1.2h23.9993v-1.2H244.35m0 3.6v1.1999h23.9993v-1.2H244.35"/><path d="M268.351 124.9431v1.2h23.9993v-1.2H268.351m0 3.6v1.1999h23.9993v-1.2H268.351" fill="#dc3023"/><path stroke-width=".3985" stroke-linecap="square" stroke-miterlimit="10" fill="none" stroke="#dc3023" d="M268.351 124.9431v1.2h23.9993v-1.2H268.351m0 3.6v1.1999h23.9993v-1.2H268.351"/><path d="M292.351 124.9431v1.2h23.9993v-1.2H292.351m0 3.6v1.1999h23.9993v-1.2H292.351" fill="#dc3023"/><path stroke-width=".3985" stroke-linecap="square" stroke-miterlimit="10" fill="none" stroke="#dc3023" d="M292.351 124.9431v1.2h23.9993v-1.2H292.351m0 3.6v1.1999h23.9993v-1.2H292.351"/><path d="M316.352 124.9431v1.2h23.9994v-1.2H316.352m0 3.6v1.1999h23.9994v-1.2H316.352" fill="#dc3023"/><path stroke-width=".3985" stroke-linecap="square" stroke-miterlimit="10" fill="none" stroke="#dc3023" d="M316.352 124.9431v1.2h23.9994v-1.2H316.352m0 3.6v1.1999h23.9994v-1.2H316.352"/></g><g data-name="Span"><symbol id="F"><path d="M.204.092V.21h.355V.092H.204m.355.26V.239H.204v.113h.355M.55.381H.21L.108.424V0h.014c.04 0 .082.021.082.031v.032h.355V.007h.016c.032 0 .08.018.082.025v.304C.676.34.69.349.696.356L.597.433.55.381M.13.708C.164.666.204.598.212.543.285.482.361.637.14.714L.13.708m.413.014C.524.675.487.586.461.534l.01-.01c.043.038.11.099.143.133C.637.654.646.659.65.668L.543.722M.424.494v.249h.245V.494H.424M.092.743h.245V.494H.092v.249m.612.075L.66.772H.485c.047.031.096.067.129.094.022-.003.035.003.04.015L.521.932a3.082 3.082 0 0 0-.072-.16H.277C.329.796.325.908.133.927L.124.92C.161.886.206.828.221.778L.233.772H.106L0 .813V.399h.017c.046 0 .075.022.075.029v.037h.577V.412h.016c.03 0 .076.019.076.026v.295c.016.002.028.009.033.016l-.09.069z"/></symbol><use xlink:href="#F" transform="matrix(10.9091 0 0 -10.9091 303.07 172.2115)" fill="#161823"/></g><g data-name="Span"><symbol id="G"><path d="M.405.919C.437.871.475.801.482.742.567.67.654.841.416.924L.405.919M.106.924C.135.887.17.829.177.78.259.712.35.874.115.93L.106.924M.241.508c.04.053.073.108.096.16C.36.67.372.672.38.68L.291.768.236.716H.011L.02.687h.219C.198.558.103.399 0 .293l.011-.01c.05.033.096.073.14.117V0h.016c.044 0 .074.024.074.031v.431C.268.424.295.377.303.335.382.273.459.425.241.492v.016M.787.301H.663v.177h.192c.014 0 .024.005.026.016C.846.529.785.577.785.577L.733.507h-.07v.175H.89c.014 0 .024.005.027.016C.88.733.819.781.819.781L.764.711H.677c.052.05.106.111.141.153C.84.862.853.869.857.881L.72.93A2.7522 2.7522 0 0 0 .65.711H.373L.381.682H.57V.507H.397L.405.478H.57V.301H.34L.348.272H.57V0h.016c.047 0 .077.02.077.026v.246h.251c.014 0 .025.005.027.016C.903.323.842.374.842.374L.787.301z"/></symbol><use xlink:href="#G" transform="matrix(10.9091 0 0 -10.9091 312.9973 172.2443)" fill="#161823"/></g><g data-name="Span"><symbol id="H"><path d="M.241.381C.181.248.084.125 0 .053l.011-.01c.114.051.226.138.314.254.022-.005.036.002.042.012L.241.381M.629.36C.704.289.799.178.831.085c.11-.07.171.159-.192.283L.629.36m.119.389H.369C.39.796.41.838.424.871.45.867.462.877.467.889L.339.931A2.933 2.933 0 0 0 .263.749H.017L.026.72H.25C.212.638.17.552.136.493A.2037.2037 0 0 1 .094.471L.19.404l.035.034h.222V.123C.447.109.443.104.426.104.404.104.303.111.303.111V.098C.351.091.375.08.389.066.403.051.409.029.412 0 .53.01.546.049.546.118v.32h.301c.014 0 .024.005.027.016C.832.493.761.546.761.546L.7.467H.546v.144c.022.003.03.011.033.025L.447.648V.467H.232C.266.536.314.633.356.72h.545c.014 0 .025.005.028.016C.885.775.812.83.812.83L.748.749z"/></symbol><use xlink:href="#H" transform="matrix(10.9091 0 0 -10.9091 323.8844 172.2225)" fill="#161823"/></g><g data-name="Span"><symbol id="I"><path d="M.009.47c0-.021.019-.039.04-.039.017 0 .047.018.047.04 0 .008-.002.014-.004.021C.09.499.084.508.084.516c0 .025.026.061.099.061C.219.577.27.552.27.456.27.392.247.34.188.28L.114.207C.016.107 0 .059 0 0c0 0 .051.002.083.002h.175C.29.002.336 0 .336 0 .349.053.359.128.36.158.354.163.341.165.331.163.314.092.297.067.261.067H.083c0 .048.069.116.074.121l.101.097c.057.055.1.099.1.175C.358.568.27.612.189.612.078.612.009.53.009.47z"/></symbol><symbol id="J"><path d="M.189 0c.077 0 .194.078.194.313 0 .099-.024.184-.068.242C.289.59.247.62.193.62.094.62 0 .502 0 .304 0 .197.033.097.088.042A.1382.1382 0 0 1 .189 0m.004.585C.21.585.226.579.238.568.269.542.296.466.296.332.296.24.293.177.279.126.257.044.208.035.19.035.097.035.087.206.087.293c0 .246.061.292.106.292z"/></symbol><symbol id="K"><path d="M.199.124v.347c0 .06.001.121.003.134C.202.61.2.61.196.61.141.576.088.551 0 .51.002.499.006.489.015.483c.046.019.068.025.087.025.017 0 .02-.024.02-.058V.124C.122.041.095.036.025.033.019.027.019.006.025 0 .074.001.11.002.164.002.212.002.236.001.286 0c.006.006.006.027 0 .033C.216.036.199.041.199.124z"/></symbol><use xlink:href="#I" transform="matrix(12.0001 0 0 -12.0001 253.905 189.923)" fill="#161823"/><use xlink:href="#J" transform="matrix(12.0001 0 0 -12.0001 259.329 190.019)" fill="#161823"/><use xlink:href="#I" transform="matrix(12.0001 0 0 -12.0001 265.0651 189.923)" fill="#161823"/><use xlink:href="#K" transform="matrix(12.0001 0 0 -12.0001 271.0892 189.923)" fill="#161823"/></g><g data-name="Span"><symbol id="L"><path d="M.277.287v.238h.195V.287H.277m.481 0H.575v.238h.268C.857.525.868.53.87.541.83.576.764.625.764.625L.708.554H.575v.191h.301C.89.745.9.75.902.761c-.043.04-.111.09-.111.09L.73.774H.288c.021.031.041.063.059.097C.37.869.383.877.388.889L.249.943C.191.775.092.613 0 .517l.012-.01c.093.056.181.136.256.238h.204V.554H.29L.177.597v-.31H.004L.013.258h.459V0H.49c.053 0 .085.021.085.028v.23h.33c.014 0 .025.005.028.016C.89.31.82.363.82.363L.758.287z"/></symbol><use xlink:href="#L" transform="matrix(10.9091 0 0 -10.9091 278.9501 190.8154)" fill="#161823"/></g><g data-name="Span"><symbol id="M"><path d="M.1.354c.027.091.091.192.224.242C.324.608.32.617.312.622.211.592.149.55.093.485.031.413 0 .322 0 .243 0 .04.115 0 .192 0c.131 0 .185.127.185.213S.331.376.195.376A.2505.2505 0 0 1 .1.354M.091.318C.124.34.157.341.174.341c.098 0 .12-.096.12-.146 0-.11-.042-.16-.091-.16-.063 0-.12.034-.12.205 0 .023.002.049.008.078z"/></symbol><use xlink:href="#M" transform="matrix(12.0001 0 0 -12.0001 293.038 190.031)" fill="#161823"/></g><g data-name="Span"><symbol id="N"><path d="M.284.392c.005.047.007.094.007.141v.06h.352V.392H.284m.359.424V.621H.291v.195h.352M.68.9.633.845H.308L.195.887V.532C.195.331.169.151 0 .011L.011 0c.18.093.246.224.269.363h.363V.137C.643.121.638.113.618.113.594.113.469.122.469.122V.107C.525.098.553.087.571.071.588.056.595.032.598.001c.128.012.143.054.143.124V.8c.02.003.035.012.042.02L.68.9z"/></symbol><use xlink:href="#N" transform="matrix(10.9091 0 0 -10.9091 301.5809 190.8372)" fill="#161823"/></g><use xlink:href="#I" transform="matrix(12.0001 0 0 -12.0001 315.623 189.923)" fill="#161823" data-name="Span"/><g data-name="Span"><symbol id="O"><path d="M.098.123v.325h.426V.123H.098M.524.79V.477H.098V.79h.426m.041.084L.514.819H.106L0 .863V0h.017C.06 0 .098.024.098.037v.057h.426V.007H.54c.037 0 .084.024.086.032v.733c.02.005.034.013.041.021L.565.874z"/></symbol><use xlink:href="#O" transform="matrix(10.9091 0 0 -10.9091 325.6735 190.7499)" fill="#161823"/></g><g data-name="Span"><symbol id="P"><path d="M.613.313a.5373.5373 0 0 0-.14-.132C.404.209.346.246.302.294.308.3.314.307.32.313h.293M.634.67V.585H.282V.67h.352M.282.47v.086h.352V.47H.282m.4-.077L.619.342H.345C.354.354.362.366.37.377.393.374.402.38.407.391L.29.441h.344V.41H.65c.031 0 .079.018.08.024v.222c.018.003.031.012.036.019L.671.747.625.699H.288L.211.731C.225.746.237.764.25.782h.585c.014 0 .025.005.028.016C.821.834.754.884.754.884L.696.811H.269c.01.016.02.032.029.049.022-.004.035.004.04.015L.209.929C.162.787.079.654 0 .575L.011.564c.063.035.123.081.177.141V.4h.014C.233.4.265.413.277.423.237.333.161.223.073.153l.01-.012C.16.174.231.225.286.278A.4997.4997 0 0 1 .412.145C.298.084.157.042.001.016L.005 0c.182.012.342.045.472.104C.575.051.696.02.836.001c.009.047.034.08.076.091v.013C.789.11.669.123.564.151.628.19.682.237.726.293c.027.001.038.004.046.014l-.09.086z"/></symbol><use xlink:href="#P" transform="matrix(7.9701 0 0 -7.9701 270.3126 209.9565)" fill="#161823"/></g><g data-name="Span"><symbol id="Q"><path d="M.654.743V.508H.26v.235h.394M.26.24v.239h.394V.24H.26m0-.029h.394V.125h.015c.034 0 .081.021.083.029v.573c.02.004.035.012.041.02l-.1.08L.644.772H.267L.164.817V.108h.015C.221.108.26.131.26.142v.069M.752.029H0L.008 0h.894C.917 0 .928.005.93.016.886.054.815.109.815.109L.752.029z"/></symbol><use xlink:href="#Q" transform="matrix(7.9701 0 0 -7.9701 278.2108 209.3906)" fill="#161823"/></g><g data-name="Span"><symbol id="R"><path d="M.903.602c.014 0 .025.005.028.016C.887.657.813.713.813.713L.748.631H.495c.007.081.008.166.01.253.024.004.033.014.036.029L.399.927C.399.824.4.725.392.631H.01L.019.602H.39C.367.376.285.179 0 .016L.011 0c.354.146.45.351.479.588C.518.389.596.146.848 0 .859.054.89.081.94.09l.002.011C.654.223.542.415.507.602h.396z"/></symbol><use xlink:href="#R" transform="matrix(7.9701 0 0 -7.9701 286.134 209.9724)" fill="#161823"/></g><g data-name="Span"><symbol id="S"><path d="M.383.925C.414.879.444.811.445.751.529.674.629.849.393.931L.383.925M.158.909C.195.867.236.797.244.739.331.672.413.852.168.916L.158.909M.764.342H.522V.41c.022.003.032.011.034.025L.539.436c.064.027.136.062.181.09.022.002.033.004.041.012l-.095.09L.609.575H.181L.189.546h.408A1.1275 1.1275 0 0 0 .495.44L.422.447V.342H.013L.021.313h.401V.131C.422.116.417.11.398.11.372.11.23.12.23.12V.106C.291.096.321.085.34.069.36.053.367.03.371 0c.133.012.151.053.151.125v.188h.383C.92.313.93.318.933.329.893.366.824.42.824.42L.764.342M.842.77.784.713H.62c.061.046.124.106.164.152.022-.002.035.004.04.016L.692.929C.667.865.625.777.584.713H.148a.3323.3323 0 0 1-.022.073L.11.785C.119.712.084.646.044.621.018.607 0 .583.012.553.025.523.065.52.096.541c.032.021.06.071.055.143h.634A1.4778 1.4778 0 0 0 .736.567L.745.56c.05.025.119.069.157.103.021.001.032.003.04.012l-.1.095z"/></symbol><use xlink:href="#S" transform="matrix(7.9701 0 0 -7.9701 294.0801 209.9724)" fill="#161823"/></g><g data-name="Span"><symbol id="T"><path d="M.11.696c.012.038.022.079.031.12.017.001.027.007.032.016V.696H.11m.74.09L.797.73h-.3c.024.042.044.089.061.139.023 0 .035.008.039.021l-.13.039C.452.846.427.766.397.696.366.728.325.767.325.767L.277.696H.262v.191c.027.004.034.014.037.028L.173.929V.841L.056.862C.051.738.031.605 0 .51L.016.502C.049.547.077.604.1.667h.073V.429A3.2174 3.2174 0 0 0 .001.384L.046.273c.01.004.019.014.023.026.037.019.072.037.104.055V0H.19c.035 0 .072.018.072.028v.375c.056.031.102.058.139.08L.397.496C.351.482.306.468.262.455v.212h.122C.358.614.329.566.298.528l.013-.01a.581.581 0 0 1 .17.184h.056C.506.544.424.38.307.264l.01-.012C.473.359.58.523.63.702h.046C.647.462.55.233.358.069l.01-.011c.244.147.362.38.407.644h.033C.794.386.768.168.725.131.712.119.702.116.681.116.656.116.579.122.529.127L.528.111C.575.103.618.089.636.073.652.059.657.034.657.005c.061 0 .104.015.139.051.059.061.09.273.103.631.022.003.036.01.044.018L.85.786z"/></symbol><use xlink:href="#T" transform="matrix(7.9701 0 0 -7.9701 310.833 209.9565)" fill="#161823"/></g><g data-name="Span"><symbol id="U"><path d="M.463.419V.59h.118V.419H.463M.581.79V.619H.463V.79h.118M.8.79V.619H.674V.79H.8M.674.419V.59H.8V.419H.674m.131-.39H.674v.178h.221c.014 0 .024.005.026.016C.887.259.825.308.825.308L.771.236H.674v.155H.8V.348h.015c.033 0 .078.022.079.03v.395c.019.004.034.013.041.021L.837.869.79.819H.469L.37.859V.785C.334.819.281.861.281.861L.227.789H.012L.02.76h.11V.515H.014L.022.486H.13V.205C.073.188.027.174 0 .168l.044-.11c.01.004.019.015.022.027C.202.16.302.224.37.266L.366.279C.317.263.268.248.222.233v.253h.114C.35.486.36.491.362.502.334.535.282.584.282.584L.236.515H.222V.76h.13C.359.76.365.761.37.764V.326h.015c.039 0 .078.022.078.032v.033h.118V.236H.365L.373.207h.208V.029H.272L.28 0h.657c.014 0 .025.005.027.016C.926.054.862.108.862.108L.805.029z"/></symbol><use xlink:href="#U" transform="matrix(7.9701 0 0 -7.9701 318.7234 209.6855)" fill="#161823"/></g><g data-name="Span"><symbol id="V"><path d="M.228.323C.186.239.093.123 0 .051L.01.039c.119.05.231.136.296.207C.33.242.337.247.344.257L.228.323m.369.22C.635.518.677.484.714.446.501.436.304.426.178.423.377.49.61.595.724.669.747.661.764.667.77.675L.668.757A1.494 1.494 0 0 0 .525.649C.401.645.284.641.204.64c.099.035.21.086.273.126.021-.006.035.001.04.011L.453.814c.122.01.237.023.328.037C.811.838.833.838.844.847L.747.944C.583.895.271.836.027.81L.03.792C.14.794.258.8.373.808.315.754.218.683.142.656A.127.127 0 0 0 .111.649L.162.541c.007.003.014.01.02.019.11.019.21.038.288.054C.355.543.219.473.111.437A.278.278 0 0 0 .067.429L.119.32c.009.004.017.012.024.024.095.011.184.022.265.033V.122C.408.111.404.105.388.105c-.02 0-.11.006-.11.006V.098C.324.091.344.08.358.067.37.055.375.033.377.006c.112.009.129.05.129.114v.271c.087.012.165.024.227.034A.3712.3712 0 0 0 .802.324C.907.269.948.488.606.553L.597.543M.575.303C.656.244.756.145.79.061.898 0 .947.224.584.312L.575.303z"/></symbol><use xlink:href="#V" transform="matrix(7.9701 0 0 -7.9701 326.8448 210.0442)" fill="#161823"/></g></svg>