<svg xmlns="http://www.w3.org/2000/svg" xmlns:xlink="http://www.w3.org/1999/xlink" width="483.77" height="362.84" viewBox="0 0 362.83 272.13"><defs><path id="a" d="M.42.83v-.6h.03c.06 0 .1.02.1.03v.49H.8V.33H.72l.02.3c.02 0 .03.02.03.03L.6.68C.6.3.63.08.24-.08l.01-.01c.22.06.34.13.4.23V.03c0-.08.02-.1.1-.1h.07c.12 0 .16.03.16.07 0 .03 0 .04-.03.05V.2H.93A1.19 1.19 0 0 0 .9.06L.87.05H.8L.77.06V.3H.8V.24c.07 0 .11.02.11.03v.47c.03 0 .04 0 .05.02L.85.85.78.77H.56L.42.83M.3.83.24.76H.02V.72h.11V.46h-.1V.43h.1V.15L.01.12l.07-.15.03.03.3.22L.26.2v.24h.11C.4.43.4.43.41.45l-.09.1-.04-.1H.27v.26h.12C.4.72.42.72.42.74L.3.84Z"/><path id="b" d="M.72.82H.7L.8.67C.92.6 1 .83.72.82M.5.84.52.5h-.2L.35.46l.18.02C.55.28.62.1.77-.04c.05-.04.14-.08.2-.03.02.02.01.06-.03.12l.03.18H.96L.88.1H.85C.73.2.68.34.66.5l.28.03c.02 0 .03.01.03.03L.8.65.74.54.66.53v.26C.67.79.68.8.68.82L.5.84M.2.86C.19.66.1.46.02.33c.06.02.1.06.15.1V-.1H.2c.05 0 .11.03.11.04v.59c.02 0 .03 0 .04.02L.27.57l.1.2C.4.77.41.78.42.8l-.2.07Z"/><path id="c" d="M.35.04H.29C.27.04.25.06.25.12v.4c0 .09.03.09.09.1v.03H.03V.6C.1.61.11.61.11.52v-.4C.11.04.1.03.03.03V0h.5l.02.17H.51C.5.1.45.04.35.04Z"/><path id="d" d="M.53.09.4.47A.54.54 0 0 0 .28.44L.13.1C.11.04.08.04.03.03V0a2.56 2.56 0 0 0 .22 0v.03C.21.03.17.03.18.08l.03.08h.16L.41.08C.4.04.38.04.33.03V0a8.5 8.5 0 0 0 .29 0v.03C.58.03.55.03.53.1M.25.2.23.21.3.38.36.2h-.1Z"/><path id="e" d="M.4.12V.5c0 .07.01.1.05.1h.02C.55.6.6.58.61.5h.04a1.19 1.19 0 0 0-.02.15H.26a4.83 4.83 0 0 0-.23 0L0 .5h.04C.06.58.1.6.17.6h.05C.25.6.26.57.26.5V.13C.26.04.25.04.16.03V0A7.7 7.7 0 0 0 .5 0v.03C.42.03.4.04.4.13Z"/><path id="f" d="M.32.36H.24v.2C.24.57.26.6.28.6h.09C.44.6.47.56.49.5h.04L.52.65H0V.6C.07.6.1.6.1.51v-.4C.1.04.07.03 0 .03V0h.53c.03.05.03.1.04.16L.52.17C.5.1.46.04.38.04h-.1C.26.04.24.06.24.1v.23h.08C.4.32.42.3.42.25h.04v.18H.4C.41.37.4.36.32.36Z"/><path id="g" d="M.43.09C.46.05.47.04.41.03V0a8.18 8.18 0 0 0 .3 0v.03C.66.03.64.05.6.1L.44.33C.43.36.43.37.45.39l.13.18C.6.6.64.6.68.6v.04a3.98 3.98 0 0 0-.22 0V.6C.51.61.52.6.51.56A.92.92 0 0 0 .4.42C.4.4.39.4.38.42L.3.57C.28.59.28.6.34.6v.04a7.16 7.16 0 0 0-.3 0V.6C.07.61.1.6.13.55l.14-.2C.3.31.3.3.28.28L.12.1C.09.04.05.03 0 .02V0a4.74 4.74 0 0 0 .23 0v.03C.2.03.18.05.2.08l.1.18C.32.27.33.26.34.25l.1-.16Z"/><path id="h" d="M.47.68C.4.38.23.08.02-.08V-.1c.25.1.44.28.53.46A.9.9 0 0 1 .81-.1a.2.2 0 0 0 .18.16V.1C.75.2.62.43.55.69.53.75.43.82.35.86A1.5 1.5 0 0 1 .28.73l.2-.05Z"/><path id="i" d="M.19.86H.18C.23.8.28.72.3.65.45.58.54.85.19.86M.28.72.09.73v-.82h.03c.05 0 .12.03.12.04v.73C.27.68.28.7.28.72m.47.04H.46L.47.73h.3V.08L.73.06.58.07V.06A.2.2 0 0 0 .7 0c.02-.02.03-.06.03-.1.16.01.19.06.19.16V.7l.04.02-.13.1L.75.76Z"/><path id="j" d="M.1.84A.52.52 0 0 0 .2.67C.31.59.41.82.1.84M.3.53l.04.02-.11.1L.16.57H.02L.03.55h.13v-.4C.16.13.16.12.1.1l.1-.15c.02.01.04.03.04.06l.17.23v.01L.3.18v.35M.85.7.8.63v.18C.83.8.84.82.84.84L.67.85V.61H.58v.2c.03 0 .04.01.04.03L.45.85V.61H.34V.58h.11V.32H.32V.3h.13a.5.5 0 0 0-.18-.37V-.1c.2.07.3.2.31.38h.1V-.1H.7c.05 0 .1.04.1.05V.3h.17l.02.01-.11.11L.8.32v.26h.12C.95.58.96.58.96.6l-.1.1M.57.32v.26h.1V.32h-.1Z"/><path id="k" d="M.85.77.78.67H.61c.06.06.05.19-.18.2H.42A.56.56 0 0 0 .5.67h.01-.25L.1.73v-.3C.1.24.1.05 0-.1h.01c.21.13.22.35.22.51v.23h.7c.02 0 .03 0 .04.02l-.13.1M.9.56.7.6A.92.92 0 0 0 .65.25L.66.24c.05.04.1.1.14.17A.48.48 0 0 0 .84.26c.1-.09.2.1-.03.18l.04.1c.02 0 .03 0 .04.02M.46.57.29.6C.3.46.27.31.23.2h.01c.06.05.1.12.14.2V.3C.48.2.6.35.4.44l.03.1c.02 0 .03 0 .04.02m.31-.3L.72.17H.64v.44C.67.6.67.62.67.63L.5.65V.17H.26V.14H.5v-.17H.17v-.03h.79c.01 0 .02 0 .03.02L.86.07l-.08-.1H.64v.17h.23C.9.14.9.14.9.16l-.12.1Z"/><path id="l" d="M.65.09C.65.06.64.03.61.03H.6L.58.02V0h.2L.8.02H.75C.73.04.73.05.73.08V.1l.06.48C.79.6.8.61.83.62h.04v.03H.75L.45.14.42.12v.02l-.1.5H.18V.63h.04L.25.59V.57L.1.1C.1.06.08.03.05.03H.03L.02.02V0a2.83 2.83 0 0 0 .17 0v.02H.16C.14.04.14.05.14.07V.1l.13.43.1-.51V0L.4.01l.32.52L.65.1Z"/><path id="m" d="M.08.16C.08.11.09 0 .22 0A.2.2 0 0 1 .3.01a.3.3 0 0 1 .15.27C.46.35.45.44.32.44.16.44.08.28.08.16m.08.01c0 .09.04.24.15.24C.34.4.35.39.37.36A.36.36 0 0 0 .34.1a.13.13 0 0 0-.1-.06C.2.03.15.07.15.17Z"/><path id="n" d="M.34.12V.09A.27.27 0 0 1 .33.04c0-.02 0-.05.04-.05.06 0 .1.04.13.1L.47.1.42.05.4.06v.06l.11.46A6.48 6.48 0 0 0 .53.7.74.74 0 0 0 .4.67V.65h.04L.45.6V.56L.4.38a.09.09 0 0 1-.08.06C.22.44.08.29.08.14c0-.06.01-.15.1-.15.05 0 .1.04.16.13m0 .07C.3.1.24.04.2.04.17.04.16.09.16.15c0 .1.08.25.17.25C.37.4.39.35.39.32A.33.33 0 0 0 .34.19Z"/><path id="o" d="M.17.2c.25.05.25.13.25.16S.4.45.32.45C.16.44.09.27.09.14.08.06.12 0 .21 0c.06 0 .12.04.18.11C.4.11.4.12.37.12.31.06.29.05.24.05.2.05.17.07.17.17V.2m.18.17C.35.28.25.25.17.24.21.38.27.4.31.4.34.4.35.4.35.37Z"/><path id="p" d="M.22.29v.03l.03.1-.03.01L.1.42V.4h.05L.16.37V.32L.1.07V.02c0-.02 0-.03.04-.03.03 0 .03.04.04.08L.2.2c.05.09.1.18.13.18L.35.36.38.34c.03 0 .05.03.05.05C.43.41.4.44.38.44.33.44.27.38.22.28Z"/><path id="q" d="m.43.12.04.16.01.08C.48.42.46.44.42.44.37.44.32.42.23.3v.01c.02.04.02.08.02.1 0 0 0 .02-.02.02L.11.42V.4h.04C.16.4.17.4.17.37L.16.32.1.07V.02c0-.02.01-.03.04-.03.04 0 .04.04.05.08l.04.17c.06.08.11.14.15.14C.39.38.4.38.4.34a.4.4 0 0 0 0-.06L.34.12a.53.53 0 0 1-.01-.1C.34 0 .34 0 .38 0c.05 0 .1.03.14.1H.5L.43.05v.07Z"/><path id="r" d="M.12.08C.12.05.1.03.05.03H.02V0h.44l.06.16-.03.01C.46.11.4.04.34.04h-.1C.2.04.18.05.18.08l.1.49C.29.6.31.6.35.62h.03v.03H.14V.62h.03C.2.62.22.6.2.57L.1.07Z"/><path id="s" d="m.2.16.02.01h.16L.4.06V.04L.36.03H.34L.32 0H.5l.01.02C.49.03.47.05.47.09L.4.45C.4.47.39.47.38.47c0 0-.03 0-.04-.02L.08.07C.06.03.04.03.01.03V0h.15v.02H.15L.1.05l.01.02.07.1m.2.03H.24L.23.22l.12.17L.38.2Z"/><path id="t" d="M.23.64.16.66.1.53h.03C.17.58.2.6.24.6h.08C.36.6.36.6.36.57l-.1-.5C.26.06.24.04.2.04H.17V0H.4v.03H.39C.34.03.33.05.34.08l.1.48c0 .04.01.05.05.05h.05C.6.6.61.58.63.5h.03a.57.57 0 0 0-.02.15L.56.64H.23Z"/><path id="u" d="M.55.65H.14V.61h.03C.2.62.2.6.2.58L.1.07C.11.03.1.02.05.02H.02V0h.44l.07.16L.5.17C.47.1.42.04.35.04H.22C.2.04.19.04.19.06v.01l.05.25h.12C.39.32.4.32.4.3V.25h.02a.85.85 0 0 0 .04.17H.43V.4C.4.37.4.36.36.36H.24l.04.21C.3.6.3.6.33.6h.1C.5.6.5.56.52.5h.02l.01.15Z"/><path id="v" d="M.13.63.15.62C.16.62.19.6.22.55l.1-.2V.28L.13.1C.12.07.07.03.02.03L0 .02V0h.18v.02L.15.05l.02.04.16.18.02.01h.01l.1-.2V.04L.43.03H.41V.02L.4 0a7.72 7.72 0 0 0 .22 0l.01.02C.57.04.55.07.52.1l-.1.21v.03l.01.04.16.17C.63.6.66.62.72.62l.01.03H.54V.62h.03L.59.6.57.57.4.4.39.39.3.58V.6l.01.02h.03v.02a7.12 7.12 0 0 0-.2 0H.13V.63Z"/><path id="w" d="m.24.32.03.1-.03.01L.12.42V.4h.04C.17.4.18.4.18.37V.32L.11.12v-.1C.1 0 .1 0 .15 0s.1.03.14.1H.26C.24.07.21.05.2.05L.19.07.2.12l.04.2M.2.57C.2.54.22.52.25.52.27.52.3.54.3.57.3.6.27.62.25.62A.05.05 0 0 1 .2.57Z"/><path id="x" d="M.41.43H.33C.23.44.08.29.08.14.08.08.09 0 .18 0c.05 0 .1.06.16.14V.1A.2.2 0 0 1 .31.04c0-.02.01-.05.04-.05.07 0 .1.04.13.1L.47.1.4.05v.07l.07.31H.41M.36.22C.31.12.23.05.2.05S.16.09.16.15c0 .1.08.26.17.26L.4.39S.4.29.37.22Z"/><path id="y" d="M.69.56C.69.59.7.6.75.62h.03v.03h-.2V.62H.6C.63.62.65.59.65.57V.56L.56.18V.15L.52.2.28.65H.14V.63L.15.62C.18.62.21.58.21.55L.1.09C.12.06.1.03.06.03H.03L0 .02V0h.23v.02H.2C.17.04.16.06.16.08V.1l.07.35C.23.48.24.5.25.5L.27.46.52 0h.04c.01 0 .02.01.02.03l.1.54Z"/><path id="z" d="m.5.35.02.06C.52.43.5.44.48.44.44.44.44.4.43.36L.4.25C.33.12.28.05.23.05.2.05.2.06.2.09v.06l.05.16.02.1c0 .02 0 .03-.03.03C.19.44.14.4.08.34h.03c.02.03.06.05.07.05V.3L.12.14a.26.26 0 0 1 0-.07c0-.06.03-.08.07-.08.07 0 .12.06.2.17L.38.11a.45.45 0 0 1-.02-.1L.4 0c.05 0 .1.03.14.1H.5C.5.07.46.05.45.05L.44.07l.01.05.06.23Z"/><path id="A" d="M.19.43H.13C.11.43.11.42.1.4V.39h.08L.12.12.1.04c0-.04.02-.05.05-.05.05 0 .11.04.15.1C.3.11.29.11.27.11.23.06.21.05.2.05v.08l.06.26h.1c.01 0 .02.03 0 .04H.27l.01.04.01.06c0 .02 0 .03-.04.03S.21.52.2.48L.19.43Z"/><path id="B" d="M.17-.01H.2c.1 0 .16.05.16.13 0 .05-.03.1-.12.15C.2.3.19.31.19.34.19.37.2.4.25.4.27.4.29.4.29.38.3.35.31.33.34.33c.03 0 .04.01.04.03C.38.4.32.44.26.44A.14.14 0 0 1 .12.3C.12.27.14.23.21.2.26.15.27.12.27.09.27.05.23.03.2.03.16.02.15.02.14.05.14.07.13.1.1.1A.04.04 0 0 1 .06.07c0-.04.04-.08.11-.08Z"/><path id="C" d="M.18.07.2.24c.07.08.13.14.17.14C.4.38.4.38.4.34a.3.3 0 0 0 0-.06L.35.12a.53.53 0 0 1-.01-.1C.35 0 .35 0 .39 0c.05 0 .1.03.14.1H.5C.48.07.45.05.44.05L.43.07l.01.05.04.16.01.08C.5.42.46.44.43.44.37.44.33.42.23.3l.06.27A6.61 6.61 0 0 0 .3.7.74.74 0 0 0 .16.67V.65H.2C.2.64.22.63.22.6V.56L.1.07V.02c0-.02 0-.03.04-.03s.04.04.05.08Z"/><path id="D" d="M.29.58a6.6 6.6 0 0 0 0 .12.74.74 0 0 0-.13-.03V.65H.2L.21.6V.56L.1.12A.5.5 0 0 1 .09.03C.1.02.1 0 .13 0c.05 0 .1.03.15.1L.26.11C.23.07.2.05.18.05v.08l.1.45Z"/><path id="F" d="m.77.59-.1.05-.1-.19H.6a4.01 4.01 0 0 1 .18.14M.26.63H.25A.37.37 0 0 0 .33.46C.41.4.48.56.26.63M.54.7H.4C.45.7.45.83.25.85V.84L.34.7V.69h-.1L.12.73V.32h.02C.18.32.2.34.2.35v.03h.6V.33c.03 0 .08.02.08.03v.3h.03L.82.75.78.69H.6l.14.1h.03L.64.86A3.6 3.6 0 0 0 .57.69H.54M.21.66h.25V.41H.2v.25m.58 0V.41H.54v.25H.8M.68.26v-.1H.32v.1h.36m-.36-.3v.03h.36v-.06h.01c.04 0 .08.02.09.03v.3l.04.02-.1.08L.67.3H.33l-.1.04v-.42h.01c.04 0 .08.02.08.03m0 .18h.36V0H.32v.12Z"/><path id="G" d="M.45.84H.44A.46.46 0 0 0 .5.65C.6.58.68.76.45.84m-.3 0H.13C.17.8.2.74.2.69.29.63.38.8.14.85M.84.7.8.63H.7l.15.15C.87.78.88.78.89.8L.75.85A3.23 3.23 0 0 0 .68.63H.4L.41.6H.6V.42H.43V.4H.6V.22H.37V.19H.6V-.1h.02c.04 0 .07.02.07.03v.25h.25L.97.2l-.1.1L.82.22H.69v.17h.2L.9.41.8.49.77.42H.7V.6h.25l-.1.1M.27-.05v.43A.36.36 0 0 0 .33.25C.41.19.5.34.27.41v.01l.1.16L.4.6.32.7.27.62H.04L.05.6h.22A1.13 1.13 0 0 0 .03.2h.01c.05.03.1.07.14.12v-.4H.2c.04 0 .07.02.07.03Z"/><path id="H" d="M.67.29.66.28A.83.83 0 0 0 .86 0c.1-.07.17.16-.2.29M.4.23.27.3a1.04 1.04 0 0 0-.24-.33v-.01C.16 0 .28.1.36.2.38.21.4.21.4.23M.5.8.37.85A2.95 2.95 0 0 0 .29.67H.05V.64h.23A3.17 3.17 0 0 0 .16.4a.34.34 0 0 1-.04 0l.1-.07.03.03h.22V.04C.47.03.47.02.45.02H.33C.38 0 .4 0 .42-.03l.02-.06c.12 0 .13.05.13.12v.31h.3C.9.35.9.36.9.37l-.1.1-.07-.1H.57v.15l.04.03-.14.02V.38H.26l.12.26h.55l.03.01-.12.1L.78.67H.4l.05.12L.5.8Z"/><path id="I" d="M.06.47C.06.45.08.43.1.43s.05.02.05.04v.02L.13.51c0 .03.02.07.1.07C.26.58.31.55.31.45.32.4.3.34.24.28L.17.2C.07.1.05.06.05 0H.4a1 1 0 0 1 0 .16H.38C.37.1.35.06.31.06H.13C.13.11.2.18.21.2l.1.1c.06.05.1.1.1.17C.41.56.32.6.24.6.13.61.06.53.06.47Z"/><path id="J" d="M.23-.01c.07 0 .2.08.2.31a.4.4 0 0 1-.08.25.15.15 0 0 1-.12.06C.13.61.03.49.03.29c0-.1.04-.2.1-.26A.14.14 0 0 1 .23 0m0 .59L.28.56C.3.53.33.46.33.32L.32.12C.3.03.25.02.22.02.15.03.13.2.13.29c0 .25.07.3.11.3Z"/><path id="K" d="M.21.58C.26.58.3.55.3.48.3.45.24.37.14.35V.31H.2C.25.31.32.3.32.2.32.05.24.03.2.03.15.03.14.05.13.07L.09.09C.06.1.04.07.04.06c0-.04.09-.07.15-.07.12 0 .22.08.22.2C.41.32.33.36.27.37c.08.04.1.08.1.13a.1.1 0 0 1-.03.08.15.15 0 0 1-.1.04C.09.61.04.51.04.48.05.47.07.45.09.45.12.45.12.48.12.5c0 .06.07.08.1.08Z"/><path id="L" d="M.28.86A1.26 1.26 0 0 0 .03.43h.01c.1.05.19.13.26.23h.2V.47H.32L.21.51v-.3H.04V.16H.5v-.25h.02c.06 0 .09.02.09.02v.23h.33C.95.17.96.17.96.2l-.1.09L.78.2H.61v.24h.27S.9.44.9.46L.8.54.74.47H.6v.2h.32l-.1.1L.75.69H.32l.06.1.04.01-.14.06M.5.2H.3v.24h.2V.2Z"/><path id="M" d="M.32.19C.32.09.27.02.2.02.17.02.16.05.14.07L.1.1C.07.1.05.08.05.06.05.02.14 0 .2 0c.12 0 .2.1.2.22C.4.3.35.39.24.39a.3.3 0 0 1-.1-.02l.02.17h.22L.4.6a1.38 1.38 0 0 0-.28 0L.08.3C.13.35.17.35.2.35.27.34.32.3.32.2Z"/><path id="N" d="M.69.73v-.2H.34v.2h.35M.24.76V.45c0-.2-.03-.38-.2-.53h.02C.24 0 .3.13.33.27h.36V.05C.69.04.69.03.66.03H.51l.1-.04C.64-.03.65-.05.65-.1c.13.02.15.06.15.13V.7l.03.04-.1.08L.67.76H.35L.24.8V.76M.69.51V.3H.33v.2H.7Z"/><path id="O" d="M.33.26A.36.36 0 0 0 .1 0h.01c.1.03.17.07.22.14.07.07.1.16.1.24C.43.57.3.6.23.6.1.61.05.48.05.4.05.3.1.23.23.23a.2.2 0 0 1 .1.03m0 .03A.14.14 0 0 0 .26.27c-.1 0-.12.1-.12.15 0 .1.04.16.1.16C.28.58.33.54.33.37V.29Z"/><path id="P" d="M.72.37V.04H.29v.33h.43m0 .03H.29v.31h.43V.4M.19.74v-.82h.02c.04 0 .08.03.08.04v.06h.43v-.1h.01c.04 0 .09.03.09.04V.7C.84.7.85.7.86.72L.76.8.7.74H.3L.2.8V.74Z"/><path id="Q" d="M.45.3.34.37h.34V.33H.7l.08.02v.22C.8.57.8.58.8.6L.7.68.68.62H.34L.26.65.3.7h.58C.9.7.91.7.91.72L.81.8.73.73H.32l.03.05.04.01-.13.06A.94.94 0 0 0 .05.49V.48c.07.04.13.08.19.14v-.3h.01c.03 0 .06 0 .07.02a.74.74 0 0 0-.2-.27L.13.06a.7.7 0 0 1 .2.13.8.8 0 0 1 .13-.13C.35 0 .2-.04.05-.07v-.01c.18 0 .34.04.47.1.1-.05.22-.08.36-.1.01.04.04.08.08.09v.01C.84.02.72.04.61.07A.6.6 0 0 1 .77.2l.05.01L.73.3.67.26H.39l.03.03.03.02M.52.1a.45.45 0 0 0-.17.1l.02.02h.3A.54.54 0 0 0 .51.1m.16.49V.5H.33v.1h.35m0-.2H.33v.08h.35V.4Z"/><path id="R" d="M.85.1.8.01H.04v-.03h.9L.97 0 .85.1M.3.22v.23h.4V.23H.3m0-.1V.2h.4V.1l.1.04v.57l.03.02-.1.08L.68.76H.31L.2.8V.1C.27.1.3.11.3.12m0 .36v.24h.4V.49H.3Z"/><path id="S" d="M.43.84v-.3h-.4L.05.53h.37a.7.7 0 0 0-.39-.59l.01-.02C.4.06.5.27.52.51.55.3.63.05.88-.1c.01.06.04.09.1.1-.3.13-.4.32-.44.5h.4l.02.02-.11.1L.78.55H.53V.8C.57.8.58.8.58.83L.43.84Z"/><path id="T" d="M.2.83H.19A.38.38 0 0 0 .27.64C.37.6.44.77.2.83m.22.02V.84A.36.36 0 0 0 .46.67c.1-.08.2.1-.04.18M.45.36v-.1h-.4V.23h.4V.05C.45.03.45.02.43.02L.26.03V.02C.32.01.35 0 .37-.02.4-.03.4-.05.4-.09c.13.02.15.06.15.13v.19h.39l.02.01a2.3 2.3 0 0 1-.1.1L.78.25H.55v.06L.6.35H.57c.06.03.13.06.18.1h.04l-.1.1L.65.48H.2L.22.46h.4a1.33 1.33 0 0 0-.1-.1H.45m.27.48a1.32 1.32 0 0 0-.1-.21H.17L.16.7H.14C.14.63.11.56.07.54.05.52.03.5.04.47.05.44.1.43.13.46.16.48.19.53.18.6h.63A.98.98 0 0 0 .76.48h.01C.82.5.9.54.93.58l.04.01-.1.1L.81.63H.65c.06.04.12.1.16.15.03 0 .04 0 .04.02L.72.84Z"/><path id="U" d="M.03.3.08.2H.1l.1.06v-.35h.02c.04 0 .07.01.07.02v.38L.43.4v.01L.29.37v.21h.13A.74.74 0 0 0 .33.44h.01c.07.04.13.1.17.18h.06A.87.87 0 0 0 .34.18V.17c.16.1.27.27.32.45h.05a.97.97 0 0 0-.32-.63L.4-.03c.24.15.36.38.4.65h.04C.83.3.8.09.76.05L.7.03.56.04V.03c.05-.01.1-.02.1-.04C.69-.02.7-.05.7-.08c.06 0 .1.02.14.05.06.06.09.28.1.63l.04.02-.1.08L.83.65h-.3l.06.14.04.01L.5.85A1.04 1.04 0 0 0 .43.6L.36.68.3.61H.29v.2C.32.8.33.8.33.82L.2.85v-.1L.1.79A1.64 1.64 0 0 0 .03.43L.05.42l.08.16H.2V.35A2.97 2.97 0 0 0 .03.3M.2.75V.6H.14l.03.12C.2.73.2.74.2.75Z"/><path id="V" d="M.02.12.07 0l.02.02.3.19v.01L.24.18v.26h.12l.02.01C.36.5.3.53.3.53L.26.47H.24V.7H.4V.29h.02C.45.28.49.3.49.3v.03H.6V.2H.4V.16h.2v-.18H.3v-.03h.66c.01 0 .02 0 .03.02l-.1.09-.06-.08H.7v.18h.22l.02.01-.1.09L.8.19H.7v.15h.13V.3h.02l.07.03v.4l.04.01-.1.08L.8.77H.5L.4.8V.74L.3.8.25.74H.03L.04.71h.11V.47H.04V.44h.11V.16L.02.12M.6.54V.37H.5v.17h.1m.1 0h.12V.37H.7v.17M.6.57H.5v.17h.1V.57m.1 0v.17h.12V.57H.7Z"/><path id="W" d="M.38.16.27.23a.93.93 0 0 0-.23-.27l.01-.02a1 1 0 0 1 .3.21l.03.01m.24.06V.2a.68.68 0 0 0 .21-.24c.1-.07.16.16-.2.25m.02.24H.64a.71.71 0 0 0 .11-.1L.21.33c.2.06.44.17.56.24H.8l-.1.1A1.1 1.1 0 0 0 .56.54H.24c.1.03.21.08.28.12l.04.01-.07.04a5.6 5.6 0 0 1 .4.03l-.1.1C.62.8.3.74.07.72V.7H.4A.82.82 0 0 0 .18.56H.15L.2.44l.02.01.29.06a1.88 1.88 0 0 0-.4-.19l.05-.1s.02 0 .02.02l.27.03V.03C.45.02.45 0 .43 0H.32L.4-.04.42-.1c.11.01.13.05.13.12V.3C.63.3.7.32.77.33a.4.4 0 0 0 .07-.1c.1-.06.15.16-.2.23Z"/><clipPath id="E"><path d="M28.35 117.74v14h282.14v-14Zm282.14 14"/></clipPath></defs><path fill="#fbfbfb" d="M0 272.13h362.83V0H0Z"/><path fill="none" stroke="#161823" stroke-miterlimit="10" stroke-width="1.56" d="M29.13 165.66v-1.56m1.57 1.56v-1.56m1.56 1.56v-1.56m1.56 1.56v-1.56m1.56 1.56v-1.56m1.57 1.56v-1.56m1.56 1.56v-1.56m3.13 1.56v-1.56m3.13 1.56v-1.56m6.25 1.56v-1.56m3.13 1.56v-1.56m1.57 1.56v-1.56m1.56 1.56v-1.56m1.56 1.56v-1.56m1.56 1.56v-1.56m3.13 1.56v-1.56m1.57 1.56v-1.56m1.56 1.56v-1.56m1.57 1.56v-1.56m1.57 1.56v-1.56m1.56 1.56v-1.56m1.56 1.56v-1.56m-43.79 3.13v-1.57m9.38 1.57v-1.57m3.13 1.57v-1.57m1.56 1.57v-1.57m3.13 1.57v-1.57m1.57 1.57v-1.57m6.25 1.57v-1.57m3.13 1.57v-1.57m6.25 1.57v-1.57m9.39 1.57v-1.57m-43.79 3.13v-1.56m3.13 1.56v-1.56m1.56 1.56v-1.56m1.56 1.56v-1.56m3.13 1.56v-1.56m4.69 1.56v-1.56m4.7 1.56v-1.56m1.56 1.56v-1.56m10.94 1.56v-1.56m3.13 1.56v-1.56m3.13 1.56v-1.56m1.57 1.56v-1.56m1.57 1.56v-1.56m3.12 1.56v-1.56m-43.79 3.12v-1.56m3.13 1.56v-1.56m1.56 1.56v-1.56m1.56 1.56v-1.56m3.13 1.56v-1.56m3.13 1.56v-1.56m3.13 1.56v-1.56m4.69 1.56v-1.56m1.56 1.56v-1.56m4.7 1.56v-1.56m3.12 1.56v-1.56m4.69 1.56v-1.56m3.13 1.56v-1.56m1.57 1.56v-1.56m1.57 1.56v-1.56m3.12 1.56v-1.56m-43.79 3.13v-1.57m3.13 1.57v-1.57m1.56 1.57v-1.57m1.56 1.57v-1.57m3.13 1.57v-1.57m6.26 1.57v-1.57m6.25 1.57v-1.57m1.57 1.57v-1.57m3.13 1.57v-1.57m3.12 1.57v-1.57m4.69 1.57v-1.57m3.13 1.57v-1.57m1.57 1.57v-1.57m1.57 1.57v-1.57m3.12 1.57v-1.57m-43.79 3.13v-1.56m9.38 1.56v-1.56m9.39 1.56v-1.56m1.56 1.56v-1.56m4.69 1.56v-1.56m3.13 1.56v-1.56m1.56 1.56v-1.56m4.69 1.56v-1.56m9.39 1.56v-1.56m-43.79 3.13v-1.57m1.57 1.57v-1.57m1.56 1.57v-1.57m1.56 1.57v-1.57m1.56 1.57v-1.57m1.57 1.57v-1.57m1.56 1.57v-1.57m3.13 1.57v-1.57m3.13 1.57v-1.57m3.13 1.57v-1.57m3.12 1.57v-1.57m3.13 1.57v-1.57m3.13 1.57v-1.57m3.12 1.57v-1.57m3.13 1.57v-1.57m1.57 1.57v-1.57m1.56 1.57v-1.57m1.57 1.57v-1.57m1.57 1.57v-1.57m1.56 1.57v-1.57m1.56 1.57v-1.57m-31.28 3.13v-1.56m1.56 1.56v-1.56m1.57 1.56v-1.56m10.95 1.56v-1.56m1.56 1.56v-1.56m-28.15 3.12v-1.56m3.13 1.56v-1.56m1.56 1.56v-1.56m3.13 1.56v-1.56m1.56 1.56v-1.56m1.57 1.56v-1.56m6.25 1.56v-1.56m1.57 1.56v-1.56m3.12 1.56v-1.56m1.57 1.56v-1.56m3.13 1.56v-1.56m3.12 1.56v-1.56m1.56 1.56v-1.56m3.13 1.56v-1.56m4.7 1.56v-1.56m3.13 1.56v-1.56m1.56 1.56v-1.56m-43.79 3.13v-1.57m3.13 1.57v-1.57m1.56 1.57v-1.57m1.56 1.57v-1.57m4.7 1.57v-1.57m1.56 1.57v-1.57m4.69 1.57v-1.57m1.57 1.57v-1.57m1.56 1.57v-1.57m4.69 1.57v-1.57m1.57 1.57v-1.57m1.56 1.57v-1.57m1.56 1.57v-1.57m1.56 1.57v-1.57m3.13 1.57v-1.57m1.57 1.57v-1.57m1.56 1.57v-1.57m6.26 1.57v-1.57m-40.66 3.13v-1.56m6.25 1.56v-1.56m4.69 1.56v-1.56m4.7 1.56v-1.56m6.25 1.56v-1.56m1.57 1.56v-1.56m1.56 1.56v-1.56m4.69 1.56v-1.56m3.13 1.56v-1.56m4.7 1.56v-1.56m1.56 1.56v-1.56m-42.23 3.13v-1.57m6.25 1.57v-1.57m4.7 1.57v-1.57m1.56 1.57v-1.57m3.13 1.57v-1.57m4.69 1.57v-1.57m7.82 1.57v-1.57m4.69 1.57v-1.57m1.56 1.57v-1.57m3.13 1.57v-1.57m6.26 1.57v-1.57m-43.79 3.13v-1.56m1.57 1.56v-1.56m3.12 1.56v-1.56m1.56 1.56v-1.56m1.57 1.56v-1.56m1.56 1.56v-1.56m1.57 1.56v-1.56m6.25 1.56v-1.56m1.57 1.56v-1.56m1.56 1.56v-1.56m1.56 1.56v-1.56m1.57 1.56v-1.56m3.13 1.56v-1.56m4.68 1.56v-1.56m7.83 1.56v-1.56m1.57 1.56v-1.56M30.7 186v-1.57m6.25 1.57v-1.57m3.13 1.57v-1.57M43.2 186v-1.57m1.57 1.57v-1.57m1.56 1.57v-1.57M47.9 186v-1.57m1.56 1.57v-1.57m1.56 1.57v-1.57m1.57 1.57v-1.57m1.56 1.57v-1.57m3.13 1.57v-1.57m1.56 1.57v-1.57m4.69 1.57v-1.57M69.8 186v-1.57m1.56 1.57v-1.57m1.56 1.57v-1.57m-37.54 3.13v-1.57m3.13 1.57v-1.57m7.82 1.57v-1.57m7.82 1.57v-1.57m1.57 1.57v-1.57m3.12 1.57v-1.57m1.56 1.57v-1.57m3.13 1.57v-1.57m6.27 1.57v-1.57m1.56 1.57v-1.57m1.56 1.57v-1.57m-43.79 3.13v-1.56m3.13 1.56v-1.56m3.12 1.56v-1.56m6.26 1.56v-1.56m1.56 1.56v-1.56m1.57 1.56v-1.56m1.56 1.56v-1.56m1.57 1.56v-1.56m3.12 1.56v-1.56m1.57 1.56v-1.56m1.56 1.56v-1.56m3.13 1.56v-1.56m1.56 1.56v-1.56m1.56 1.56v-1.56m1.57 1.56v-1.56m1.56 1.56v-1.56m1.57 1.56v-1.56m1.56 1.56v-1.56m4.7 1.56v-1.56m-42.23 3.13v-1.57m3.13 1.57v-1.57m4.69 1.57v-1.57m1.56 1.57v-1.57m1.57 1.57v-1.57m3.12 1.57v-1.57m1.57 1.57v-1.57m3.13 1.57v-1.57m3.12 1.57v-1.57m3.13 1.57v-1.57m3.13 1.57v-1.57m1.56 1.57v-1.57m1.56 1.57v-1.57m6.26 1.57v-1.57m1.57 1.57v-1.57m3.13 1.57v-1.57m-39.1 3.13v-1.56m1.56 1.56v-1.56m1.56 1.56v-1.56m9.39 1.56v-1.56m1.56 1.56v-1.56m6.26 1.56v-1.56m12.51 1.56v-1.56m3.13 1.56v-1.56m1.57 1.56v-1.56m1.56 1.56v-1.56m-42.23 3.12v-1.56m9.38 1.56v-1.56m1.57 1.56v-1.56m4.69 1.56v-1.56m4.69 1.56v-1.56m1.56 1.56v-1.56m1.57 1.56v-1.56m1.56 1.56v-1.56m6.25 1.56v-1.56m3.13 1.56v-1.56m1.57 1.56v-1.56m1.56 1.56v-1.56m3.14 1.56v-1.56m-34.42 3.13v-1.57m1.57 1.57v-1.57m6.25 1.57v-1.57m1.57 1.57v-1.57m4.69 1.57v-1.57m1.56 1.57v-1.57m4.7 1.57v-1.57m1.56 1.57v-1.57m6.25 1.57v-1.57m1.57 1.57v-1.57m1.56 1.57v-1.57m3.14 1.57v-1.57m-39.1 3.13v-1.56m6.25 1.56v-1.56m1.56 1.56v-1.56m1.57 1.56v-1.56m1.56 1.56v-1.56m6.26 1.56v-1.56m1.56 1.56v-1.56m1.56 1.56v-1.56m3.13 1.56v-1.56m1.57 1.56v-1.56m1.56 1.56v-1.56m3.12 1.56v-1.56m1.57 1.56v-1.56m1.56 1.56v-1.56m1.57 1.56v-1.56m1.56 1.56v-1.56m1.57 1.56v-1.56m1.57 1.56v-1.56m-28.16 3.12v-1.56m1.56 1.56v-1.56m10.95 1.56v-1.56m1.57 1.56v-1.56m1.56 1.56v-1.56m3.12 1.56v-1.56m6.26 1.56v-1.56m1.57 1.56v-1.56m1.57 1.56v-1.56m1.56 1.56v-1.56m1.56 1.56v-1.56m-43.79 3.13v-1.56m1.57 1.56v-1.56m1.56 1.56v-1.56m1.56 1.56v-1.56m1.56 1.56v-1.56m1.57 1.56v-1.56m1.56 1.56v-1.56m3.13 1.56v-1.56m9.38 1.56v-1.56m6.26 1.56v-1.56m1.56 1.56v-1.56m1.56 1.56v-1.56m3.13 1.56v-1.56m3.13 1.56v-1.56m1.57 1.56v-1.56m3.13 1.56v-1.56m-42.23 3.12v-1.56m9.38 1.56v-1.56m3.13 1.56v-1.56m1.56 1.56v-1.56m3.13 1.56v-1.56m1.57 1.56v-1.56m1.56 1.56v-1.56m1.56 1.56v-1.56m9.38 1.56v-1.56m6.26 1.56v-1.56m1.57 1.56v-1.56m4.69 1.56v-1.56m-43.79 3.13v-1.57m3.13 1.57v-1.57m1.56 1.57v-1.57m1.56 1.57v-1.57m3.13 1.57v-1.57m4.69 1.57v-1.57m4.7 1.57v-1.57m7.82 1.57v-1.57m4.68 1.57v-1.57m1.57 1.57v-1.57m1.56 1.57v-1.57m1.57 1.57v-1.57m1.56 1.57v-1.57m3.14 1.57v-1.57m1.56 1.57v-1.57m1.56 1.57v-1.57m-43.79 3.13v-1.56m3.13 1.56v-1.56m1.56 1.56v-1.56m1.56 1.56v-1.56m3.13 1.56v-1.56m3.13 1.56v-1.56m1.56 1.56v-1.56m3.13 1.56v-1.56m3.13 1.56v-1.56m3.13 1.56v-1.56m1.56 1.56v-1.56m1.57 1.56v-1.56m3.12 1.56v-1.56m3.13 1.56v-1.56m3.13 1.56v-1.56m1.56 1.56v-1.56m1.57 1.56v-1.56m4.69 1.56v-1.56m-43.79 3.12v-1.56m3.13 1.56v-1.56m1.56 1.56v-1.56m1.56 1.56v-1.56m3.13 1.56v-1.56m3.13 1.56v-1.56m3.13 1.56v-1.56m3.13 1.56v-1.56m7.82 1.56v-1.56m1.56 1.56v-1.56m3.12 1.56v-1.56m4.7 1.56v-1.56m4.7 1.56v-1.56m3.12 1.56v-1.56m-43.79 3.13v-1.56m9.38 1.56v-1.56m6.26 1.56v-1.56m1.56 1.56v-1.56m4.69 1.56v-1.56m3.13 1.56v-1.56m6.25 1.56v-1.56m1.57 1.56v-1.56m3.13 1.56v-1.56m3.13 1.56v-1.56m3.13 1.56v-1.56m-42.23 3.12v-1.56m1.57 1.56v-1.56m1.56 1.56v-1.56m1.56 1.56v-1.56m1.56 1.56v-1.56m1.57 1.56v-1.56m1.56 1.56v-1.56m3.13 1.56v-1.56m4.69 1.56v-1.56m1.57 1.56v-1.56m3.12 1.56v-1.56m1.57 1.56v-1.56m6.25 1.56v-1.56m1.56 1.56v-1.56m1.57 1.56v-1.56m1.56 1.56v-1.56m7.83 1.56v-1.56"/><use xlink:href="#a" fill="#161823" data-text="现" transform="matrix(20.6625 0 0 -20.6625 109.28 79.92)"/><use xlink:href="#b" fill="#161823" data-text="代" transform="matrix(20.6625 0 0 -20.6625 129.94 79.92)"/><use xlink:href="#c" fill="#161823" data-text="L" transform="matrix(22.7289 0 0 -22.7289 156.29 79.92)"/><use xlink:href="#d" fill="#161823" data-text="a" transform="matrix(22.7289 0 0 -22.7289 162.58 75.38)"/><use xlink:href="#e" fill="#161823" data-text="T" transform="matrix(22.7289 0 0 -22.7289 173.79 79.92)"/><use xlink:href="#f" fill="#161823" data-text="E" transform="matrix(22.7289 0 0 -22.7289 184.82 84.84)"/><use xlink:href="#g" fill="#161823" data-text="X" transform="matrix(22.7289 0 0 -22.7289 195.82 79.92)"/><use xlink:href="#h" fill="#161823" data-text="入" transform="matrix(20.6625 0 0 -20.6625 217.82 79.92)"/><use xlink:href="#i" fill="#161823" data-text="门" transform="matrix(20.6625 0 0 -20.6625 238.49 79.92)"/><use xlink:href="#j" fill="#161823" data-text="讲" transform="matrix(20.6625 0 0 -20.6625 259.15 79.92)"/><use xlink:href="#k" fill="#161823" data-text="座" transform="matrix(20.6625 0 0 -20.6625 279.81 79.92)"/><use xlink:href="#l" fill="#161823" data-text="M" transform="matrix(13.1508 0 0 -13.1508 161 107.33)"/><use xlink:href="#m" fill="#161823" data-text="o" transform="matrix(13.1508 0 0 -13.1508 171.57 107.33)"/><use xlink:href="#n" fill="#161823" data-text="d" transform="matrix(13.1508 0 0 -13.1508 177.52 107.33)"/><use xlink:href="#o" fill="#161823" data-text="e" transform="matrix(13.1508 0 0 -13.1508 183.95 107.33)"/><use xlink:href="#p" fill="#161823" data-text="r" transform="matrix(13.1508 0 0 -13.1508 189.23 107.33)"/><use xlink:href="#q" fill="#161823" data-text="n" transform="matrix(13.1508 0 0 -13.1508 193.92 107.33)"/><use xlink:href="#r" fill="#161823" data-text="L" transform="matrix(13.1508 0 0 -13.1508 204.03 107.33)"/><use xlink:href="#s" fill="#161823" data-text="a" transform="matrix(13.1508 0 0 -13.1508 206.91 104.7)"/><use xlink:href="#t" fill="#161823" data-text="T" transform="matrix(13.1508 0 0 -13.1508 211.9 107.33)"/><use xlink:href="#u" fill="#161823" data-text="E" transform="matrix(13.1508 0 0 -13.1508 216.86 110.15)"/><use xlink:href="#v" fill="#161823" data-text="X" transform="matrix(13.1508 0 0 -13.1508 222.13 107.33)"/><use xlink:href="#w" fill="#161823" data-text="i" transform="matrix(13.1508 0 0 -13.1508 233.68 107.33)"/><use xlink:href="#q" fill="#161823" data-text="n" transform="matrix(13.1508 0 0 -13.1508 237.31 107.33)"/><use xlink:href="#x" fill="#161823" data-text="a" transform="matrix(13.1508 0 0 -13.1508 247.4 107.33)"/><use xlink:href="#y" fill="#161823" data-text="N" transform="matrix(13.1508 0 0 -13.1508 257.09 107.33)"/><use xlink:href="#z" fill="#161823" data-text="u" transform="matrix(13.1508 0 0 -13.1508 265.85 107.33)"/><use xlink:href="#A" fill="#161823" data-text="t" transform="matrix(13.1508 0 0 -13.1508 272.7 107.33)"/><use xlink:href="#B" fill="#161823" data-text="s" transform="matrix(13.1508 0 0 -13.1508 276.74 107.33)"/><use xlink:href="#C" fill="#161823" data-text="h" transform="matrix(13.1508 0 0 -13.1508 281.38 107.33)"/><use xlink:href="#o" fill="#161823" data-text="e" transform="matrix(13.1508 0 0 -13.1508 288.2 107.33)"/><use xlink:href="#D" fill="#161823" data-text="l" transform="matrix(13.1508 0 0 -13.1508 293.48 107.33)"/><use xlink:href="#D" fill="#161823" data-text="l" transform="matrix(13.1508 0 0 -13.1508 296.97 107.33)"/><path fill="#dc3023" d="M334.5 129.74v-13.2h-8.4v-2.4h8.4v-8.4h-1.2v7.2h-7.2v-2.4h4.8v-4.8h-1.2v3.6h-4.8v3.6h-3.6v3.6h-3.6v3.6h-3.6v4.8h-3.6v1.2h4.8v-4.8h2.4v7.2h-7.2v1.2h8.4v-8.4h2.4v8.4h13.2m-1.2-1.2h-10.8v-7.2h2.4v4.8h6v-6h-4.8v-2.4h7.2v10.8m-3.6-3.6h-3.6v-3.6h3.6v3.6m-4.8-4.8h-2.4v-2.4h2.4v2.4m-3.6 0h-2.4v-2.4h2.4v2.4m3.6-3.6h-2.4v-2.4h2.4v2.4"/><path fill="none" stroke="#dc3023" stroke-linecap="square" stroke-miterlimit="10" stroke-width=".4" d="M334.5 129.74v-13.2h-8.4v-2.4h8.4v-8.4h-1.2v7.2h-7.2v-2.4h4.8v-4.8h-1.2v3.6h-4.8v3.6h-3.6v3.6h-3.6v3.6h-3.6v4.8h-3.6v1.2h4.8v-4.8h2.4v7.2h-7.2v1.2h8.4v-8.4h2.4v8.4h13.2m-1.2-1.2h-10.8v-7.2h2.4v4.8h6v-6h-4.8v-2.4h7.2v10.8m-3.6-3.6h-3.6v-3.6h3.6v3.6m-4.8-4.8h-2.4v-2.4h2.4v2.4m-3.6 0h-2.4v-2.4h2.4v2.4m3.6-3.6h-2.4v-2.4h2.4v2.4"/><path fill="#dc3023" d="M329.7 105.74h1.2v-24h-1.2v24m3.6 0h1.2v-24h-1.2v24"/><path fill="none" stroke="#dc3023" stroke-linecap="square" stroke-miterlimit="10" stroke-width=".4" d="M329.7 105.74h1.2v-24h-1.2v24m3.6 0h1.2v-24h-1.2v24"/><path fill="#dc3023" d="M329.7 81.74h1.2v-24h-1.2v24m3.6 0h1.2v-24h-1.2v24"/><path fill="none" stroke="#dc3023" stroke-linecap="square" stroke-miterlimit="10" stroke-width=".4" d="M329.7 81.74h1.2v-24h-1.2v24m3.6 0h1.2v-24h-1.2v24"/><g clip-path="url(#E)"><path fill="#dc3023" d="M28.35 124.94v1.2h24v-1.2h-24m0 3.6v1.2h24v-1.2h-24"/><path fill="none" stroke="#dc3023" stroke-linecap="square" stroke-miterlimit="10" stroke-width=".4" d="M28.35 124.94v1.2h24v-1.2h-24m0 3.6v1.2h24v-1.2h-24"/><path fill="#dc3023" d="M52.35 124.94v1.2h24v-1.2h-24m0 3.6v1.2h24v-1.2h-24"/><path fill="none" stroke="#dc3023" stroke-linecap="square" stroke-miterlimit="10" stroke-width=".4" d="M52.35 124.94v1.2h24v-1.2h-24m0 3.6v1.2h24v-1.2h-24"/><path fill="#dc3023" d="M76.35 124.94v1.2h24v-1.2h-24m0 3.6v1.2h24v-1.2h-24"/><path fill="none" stroke="#dc3023" stroke-linecap="square" stroke-miterlimit="10" stroke-width=".4" d="M76.35 124.94v1.2h24v-1.2h-24m0 3.6v1.2h24v-1.2h-24"/><path fill="#dc3023" d="M100.35 124.94v1.2h24v-1.2h-24m0 3.6v1.2h24v-1.2h-24"/><path fill="none" stroke="#dc3023" stroke-linecap="square" stroke-miterlimit="10" stroke-width=".4" d="M100.35 124.94v1.2h24v-1.2h-24m0 3.6v1.2h24v-1.2h-24"/><path fill="#dc3023" d="M124.35 124.94v1.2h24v-1.2h-24m0 3.6v1.2h24v-1.2h-24"/><path fill="none" stroke="#dc3023" stroke-linecap="square" stroke-miterlimit="10" stroke-width=".4" d="M124.35 124.94v1.2h24v-1.2h-24m0 3.6v1.2h24v-1.2h-24"/><path fill="#dc3023" d="M148.35 124.94v1.2h24v-1.2h-24m0 3.6v1.2h24v-1.2h-24"/><path fill="none" stroke="#dc3023" stroke-linecap="square" stroke-miterlimit="10" stroke-width=".4" d="M148.35 124.94v1.2h24v-1.2h-24m0 3.6v1.2h24v-1.2h-24"/><path fill="#dc3023" d="M172.35 124.94v1.2h24v-1.2h-24m0 3.6v1.2h24v-1.2h-24"/><path fill="none" stroke="#dc3023" stroke-linecap="square" stroke-miterlimit="10" stroke-width=".4" d="M172.35 124.94v1.2h24v-1.2h-24m0 3.6v1.2h24v-1.2h-24"/><path fill="#dc3023" d="M196.35 124.94v1.2h24v-1.2h-24m0 3.6v1.2h24v-1.2h-24"/><path fill="none" stroke="#dc3023" stroke-linecap="square" stroke-miterlimit="10" stroke-width=".4" d="M196.35 124.94v1.2h24v-1.2h-24m0 3.6v1.2h24v-1.2h-24"/><path fill="#dc3023" d="M220.35 124.94v1.2h24v-1.2h-24m0 3.6v1.2h24v-1.2h-24"/><path fill="none" stroke="#dc3023" stroke-linecap="square" stroke-miterlimit="10" stroke-width=".4" d="M220.35 124.94v1.2h24v-1.2h-24m0 3.6v1.2h24v-1.2h-24"/><path fill="#dc3023" d="M244.35 124.94v1.2h24v-1.2h-24m0 3.6v1.2h24v-1.2h-24"/><path fill="none" stroke="#dc3023" stroke-linecap="square" stroke-miterlimit="10" stroke-width=".4" d="M244.35 124.94v1.2h24v-1.2h-24m0 3.6v1.2h24v-1.2h-24"/><path fill="#dc3023" d="M268.35 124.94v1.2h24v-1.2h-24m0 3.6v1.2h24v-1.2h-24"/><path fill="none" stroke="#dc3023" stroke-linecap="square" stroke-miterlimit="10" stroke-width=".4" d="M268.35 124.94v1.2h24v-1.2h-24m0 3.6v1.2h24v-1.2h-24"/><path fill="#dc3023" d="M292.35 124.94v1.2h24v-1.2h-24m0 3.6v1.2h24v-1.2h-24"/><path fill="none" stroke="#dc3023" stroke-linecap="square" stroke-miterlimit="10" stroke-width=".4" d="M292.35 124.94v1.2h24v-1.2h-24m0 3.6v1.2h24v-1.2h-24"/><path fill="#dc3023" d="M316.35 124.94v1.2h24v-1.2h-24m0 3.6v1.2h24v-1.2h-24"/><path fill="none" stroke="#dc3023" stroke-linecap="square" stroke-miterlimit="10" stroke-width=".4" d="M316.35 124.94v1.2h24v-1.2h-24m0 3.6v1.2h24v-1.2h-24"/></g><use xlink:href="#F" fill="#161823" data-text="曾" transform="matrix(10.9091 0 0 -10.9091 301.76 171.32)"/><use xlink:href="#G" fill="#161823" data-text="祥" transform="matrix(10.9091 0 0 -10.9091 312.67 171.32)"/><use xlink:href="#H" fill="#161823" data-text="东" transform="matrix(10.9091 0 0 -10.9091 323.58 171.32)"/><use xlink:href="#I" fill="#161823" data-text="2" transform="matrix(12.0001 0 0 -12.0001 253.28 189.9)"/><use xlink:href="#J" fill="#161823" data-text="0" transform="matrix(12.0001 0 0 -12.0001 258.86 189.9)"/><use xlink:href="#I" fill="#161823" data-text="2" transform="matrix(12.0001 0 0 -12.0001 264.44 189.9)"/><use xlink:href="#K" fill="#161823" data-text="3" transform="matrix(12.0001 0 0 -12.0001 270.02 189.9)"/><use xlink:href="#L" fill="#161823" data-text="年" transform="matrix(10.9091 0 0 -10.9091 278.6 189.9)"/><use xlink:href="#M" fill="#161823" data-text="5" transform="matrix(12.0001 0 0 -12.0001 292.51 189.9)"/><use xlink:href="#N" fill="#161823" data-text="月" transform="matrix(10.9091 0 0 -10.9091 301.09 189.9)"/><use xlink:href="#O" fill="#161823" data-text="9" transform="matrix(12.0001 0 0 -12.0001 315 189.9)"/><use xlink:href="#P" fill="#161823" data-text="日" transform="matrix(10.9091 0 0 -10.9091 323.58 189.9)"/><use xlink:href="#Q" fill="#161823" data-text="复" transform="matrix(7.9701 0 0 -7.9701 269.93 209.29)"/><use xlink:href="#R" fill="#161823" data-text="旦" transform="matrix(7.9701 0 0 -7.9701 277.9 209.29)"/><use xlink:href="#S" fill="#161823" data-text="大" transform="matrix(7.9701 0 0 -7.9701 285.87 209.29)"/><use xlink:href="#T" fill="#161823" data-text="学" transform="matrix(7.9701 0 0 -7.9701 293.84 209.29)"/><use xlink:href="#U" fill="#161823" data-text="物" transform="matrix(7.9701 0 0 -7.9701 310.58 209.29)"/><use xlink:href="#V" fill="#161823" data-text="理" transform="matrix(7.9701 0 0 -7.9701 318.55 209.29)"/><use xlink:href="#W" fill="#161823" data-text="系" transform="matrix(7.9701 0 0 -7.9701 326.52 209.29)"/></svg>