<svg xmlns="http://www.w3.org/2000/svg" width="483.773" height="362.84" viewBox="0 -272.13 362.83 272.13"><defs><clipPath id="a"><path d="M28.348 144.469v-13.996h282.144v13.996zm282.144-13.996"/></clipPath></defs><path d="M0 0h362.836v-272.125H0z" fill="#fafafa"/><path d="M29.129-98.02v-1.562m1.562 1.562v-1.562m1.567 1.562v-1.562m1.562 1.562v-1.562m1.563 1.562v-1.562m1.567 1.562v-1.562m1.562 1.562v-1.562m3.128 1.562v-1.562m6.255 1.562v-1.562m1.565 1.562v-1.562m7.817 1.562v-1.562m6.258 1.562v-1.562m1.563 1.562v-1.562m1.566 1.562v-1.562m1.563 1.562v-1.562m1.563 1.562v-1.562m1.565 1.562v-1.562m1.563 1.562v-1.562m-43.789 3.129v-1.567m9.383 1.567v-1.567m3.128 1.567v-1.567m1.563 1.567v-1.567m1.567 1.567v-1.567m1.562 1.567v-1.567m1.563 1.567v-1.567m1.565 1.567v-1.567m4.692 1.567v-1.567m1.563 1.567v-1.567m3.129 1.567v-1.567m4.691 1.567v-1.567m9.383 1.567v-1.567m-43.789 3.129v-1.562m3.129 1.562v-1.562m1.562 1.562v-1.562m1.563 1.562v-1.562m3.129 1.562v-1.562m3.128 1.562v-1.562m1.563 1.562v-1.562m1.567 1.562v-1.562m3.125 1.562v-1.562m1.565 1.562v-1.562m3.13 1.562v-1.562m4.687 1.562v-1.562m3.129 1.562v-1.562m3.129 1.562v-1.562m3.129 1.562v-1.562m1.563 1.562v-1.562m1.563 1.562v-1.562m3.128 1.562v-1.562m-43.789 3.129v-1.567m3.129 1.567v-1.567m1.562 1.567v-1.567m1.563 1.567v-1.567m3.129 1.567v-1.567m6.258 1.567v-1.567m1.562 1.567v-1.567m3.128 1.567v-1.567m3.13 1.567v-1.567m1.562 1.567v-1.567m1.563 1.567v-1.567m3.129 1.567v-1.567m1.562 1.567v-1.567m3.129 1.567v-1.567m3.129 1.567v-1.567m1.563 1.567v-1.567m1.563 1.567v-1.567m3.128 1.567v-1.567m-43.789 3.129v-1.562m3.129 1.562v-1.562m1.562 1.562v-1.562m1.563 1.562v-1.562m3.129 1.562v-1.562m3.128 1.562v-1.562m6.255 1.562v-1.562m3.128 1.562v-1.562m4.692 1.562v-1.562m1.562 1.562v-1.562m1.567 1.562v-1.562m4.691 1.562v-1.562m3.129 1.562v-1.562m1.563 1.562v-1.562m1.563 1.562v-1.562m3.128 1.562v-1.562m-43.789 3.125v-1.563m9.383 1.563v-1.563m15.64 1.563v-1.563m1.563 1.563v-1.563m7.82 1.563v-1.563m9.383 1.563v-1.563m-43.789 3.125v-1.562m1.562 1.562v-1.562m1.567 1.562v-1.562m1.562 1.562v-1.562m1.563 1.562v-1.562m1.567 1.562v-1.562m1.562 1.562v-1.562m3.128 1.562v-1.562m3.13 1.562v-1.562m3.125 1.562v-1.562m3.128 1.562v-1.562m3.129 1.562v-1.562m3.125 1.562v-1.562m3.129 1.562v-1.562m3.129 1.562v-1.562m1.563 1.562v-1.562m1.566 1.562v-1.562m1.563 1.562v-1.562m1.563 1.562v-1.562m1.565 1.562v-1.562m1.563 1.562v-1.562M49.46-87.07v-1.567m9.384 1.567v-1.567m-29.715 3.129v-1.562m4.691 1.562v-1.562m1.563 1.562v-1.562m1.567 1.562v-1.562m1.562 1.562v-1.562m1.562 1.562v-1.562m1.566 1.562v-1.562m9.383 1.562v-1.562m4.692 1.562v-1.562m1.562 1.562v-1.562m1.567 1.562v-1.562m1.562 1.562v-1.562m1.567 1.562v-1.562m4.691 1.562v-1.562m3.126 1.562v-1.562m1.565 1.562v-1.562m1.563 1.562v-1.562m-42.227 3.129v-1.567m6.259 1.567v-1.567m3.124 1.567v-1.567m1.566 1.567v-1.567m1.563 1.567v-1.567m1.567 1.567v-1.567m3.125 1.567v-1.567m1.565 1.567v-1.567m1.563 1.567v-1.567m1.567 1.567v-1.567m3.125 1.567v-1.567m1.562 1.567v-1.567m1.567 1.567v-1.567m3.129 1.567v-1.567m3.125 1.567v-1.567m1.566 1.567v-1.567m3.126 1.567v-1.567m1.565 1.567v-1.567m-40.664 3.129v-1.562m1.567 1.562v-1.562m3.125 1.562v-1.562m1.567 1.562v-1.562m1.562 1.562v-1.562m1.562 1.562v-1.562m7.821 1.562v-1.562m4.695 1.562v-1.562m1.562 1.562v-1.562m1.563 1.562v-1.562m9.383 1.562v-1.562m1.566 1.562v-1.562m3.126 1.562v-1.562m-37.532 3.125v-1.563m9.382 1.563v-1.563m4.692 1.563v-1.563m9.383 1.563v-1.563m3.129 1.563v-1.563m3.129 1.563v-1.563m1.562 1.563v-1.563m1.563 1.563v-1.563m3.129 1.563v-1.563m4.691 1.563v-1.563M38.512-79.25v-1.566m1.562 1.566v-1.566m3.129 1.566v-1.566m4.692 1.566v-1.566m4.695 1.566v-1.566m1.562 1.566v-1.566m4.692 1.566v-1.566m4.691 1.566v-1.566m1.563 1.566v-1.566m7.82 1.566v-1.566m-43.789 3.129v-1.563m1.562 1.563v-1.563m1.567 1.563v-1.563m1.562 1.563v-1.563m12.512 1.563v-1.563m1.563 1.563v-1.563m3.128 1.563v-1.563m1.567 1.563v-1.563m1.562 1.563v-1.563m1.563 1.563v-1.563m7.82 1.563v-1.563m1.563 1.563v-1.563m1.566 1.563v-1.563m1.563 1.563v-1.563m1.563 1.563v-1.563m1.565 1.563v-1.563m1.563 1.563v-1.563m-42.227 3.129v-1.566m7.821 1.566v-1.566m1.562 1.566v-1.566m3.129 1.566v-1.566m3.129 1.566v-1.566m1.563 1.566v-1.566m4.695 1.566v-1.566m1.562 1.566v-1.566m1.563 1.566v-1.566m1.562 1.566v-1.566m1.567 1.566v-1.566m1.562 1.566v-1.566m1.567 1.566v-1.566m1.562 1.566v-1.566m3.129 1.566v-1.566m3.126 1.566v-1.566m3.128 1.566v-1.566m-43.789 3.128v-1.562m4.691 1.562v-1.562m1.563 1.562v-1.562m6.257 1.562v-1.562m1.563 1.562v-1.562m3.129 1.562v-1.562m10.945 1.562v-1.562m1.567 1.562v-1.562m6.254 1.562v-1.562m1.566 1.562v-1.562m3.126 1.562v-1.562m3.128 1.562v-1.562m-37.535 3.125v-1.563m3.129 1.563v-1.563m6.258 1.563v-1.563m1.562 1.563v-1.563m1.563 1.563v-1.563m1.565 1.563v-1.563m1.563 1.563v-1.563m1.567 1.563v-1.563m1.562 1.563v-1.563m4.692 1.563v-1.563m1.562 1.563v-1.563m1.567 1.563v-1.563m6.254 1.563v-1.563M29.129-71.43v-1.566m1.562 1.566v-1.566m1.567 1.566v-1.566m1.562 1.566v-1.566m14.075 1.566v-1.566m1.565 1.566v-1.566m3.13 1.566v-1.566m3.125 1.566v-1.566m1.562 1.566v-1.566m1.567 1.566v-1.566m7.82 1.566v-1.566m3.126 1.566v-1.566m1.565 1.566v-1.566m-42.226 3.129v-1.563m1.562 1.563v-1.563m1.567 1.563v-1.563m6.254 1.563v-1.563m3.128 1.563v-1.563m1.563 1.563v-1.563m1.567 1.563v-1.563m1.562 1.563v-1.563m1.563 1.563v-1.563m4.695 1.563v-1.563m3.125 1.563v-1.563m3.129 1.563v-1.563m7.82 1.563v-1.563m1.563 1.563v-1.563m4.691 1.563v-1.563m-43.789 3.125v-1.562m1.562 1.562v-1.562m1.567 1.562v-1.562m1.562 1.562v-1.562m6.254 1.562v-1.562m1.566 1.562v-1.562m7.82 1.562v-1.562m9.384 1.562v-1.562m4.691 1.562v-1.562m4.692 1.562v-1.562m1.563 1.562v-1.562m-40.661 3.129v-1.567m1.562 1.567v-1.567m1.567 1.567v-1.567m4.692 1.567v-1.567m1.562 1.567v-1.567m4.691 1.567v-1.567m6.257 1.567v-1.567m3.13 1.567v-1.567m1.562 1.567v-1.567m1.563 1.567v-1.567m4.691 1.567v-1.567m1.567 1.567v-1.567m1.562 1.567v-1.567m1.563 1.567v-1.567m1.566 1.567v-1.567m1.563 1.567v-1.567m1.563 1.567v-1.567m1.565 1.567v-1.567M41.64-65.176v-1.562m3.13 1.562v-1.562m1.562 1.562v-1.562m3.128 1.562v-1.562m1.563 1.562v-1.562m1.567 1.562v-1.562m3.125 1.562v-1.562m1.562 1.562v-1.562m3.129 1.562v-1.562m6.258 1.562v-1.562m1.563 1.562v-1.562m-39.098 3.125v-1.563m1.562 1.563v-1.563m1.567 1.563v-1.563m1.562 1.563v-1.563m1.563 1.563v-1.563m1.567 1.563v-1.563m1.562 1.563v-1.563m3.128 1.563v-1.563m1.563 1.563v-1.563m3.129 1.563v-1.563m1.563 1.563v-1.563m1.565 1.563v-1.563m3.13 1.563v-1.563m6.254 1.563v-1.563m1.562 1.563v-1.563m3.129 1.563v-1.563m3.129 1.563v-1.563m1.563 1.563v-1.563m-39.098 3.129v-1.566m9.383 1.566v-1.566m3.128 1.566v-1.566m4.692 1.566v-1.566m3.128 1.566v-1.566m6.255 1.566v-1.566m1.562 1.566v-1.566m1.567 1.566v-1.566m1.562 1.566v-1.566m6.258 1.566v-1.566m4.691 1.566v-1.566m1.563 1.566v-1.566m-43.789 3.129v-1.563m3.129 1.563v-1.563m1.562 1.563v-1.563m1.563 1.563v-1.563m3.129 1.563v-1.563m3.128 1.563v-1.563m4.692 1.563v-1.563m1.563 1.563v-1.563m1.565 1.563v-1.563m4.692 1.563v-1.563m4.692 1.563v-1.563m1.562 1.563v-1.563m1.567 1.563v-1.563m1.562 1.563v-1.563m1.563 1.563v-1.563m1.566 1.563v-1.563m1.563 1.563v-1.563m3.128 1.563v-1.563m-42.226 3.125v-1.562m3.129 1.562v-1.562m1.562 1.562v-1.562m1.563 1.562v-1.562m3.129 1.562v-1.562m3.128 1.562v-1.562m1.563 1.562v-1.562m6.257 1.562v-1.562m1.563 1.562v-1.562m1.567 1.562v-1.562m1.562 1.562v-1.562m3.125 1.562v-1.562m4.696 1.562v-1.562m10.945 1.562v-1.562m-43.789 3.129v-1.567m3.129 1.567v-1.567m1.562 1.567v-1.567m1.563 1.567v-1.567m3.129 1.567v-1.567m6.258 1.567v-1.567m7.82 1.567v-1.567m3.125 1.567v-1.567m4.691 1.567v-1.567m1.567 1.567v-1.567m3.125 1.567v-1.567m1.566 1.567v-1.567m3.126 1.567v-1.567m1.565 1.567v-1.567m1.563 1.567v-1.567m-43.789 3.129v-1.562m9.383 1.562v-1.562m9.383 1.562v-1.562m4.695 1.562v-1.562m10.945 1.562v-1.562m1.563 1.562v-1.562m3.129 1.562v-1.562m1.563 1.562v-1.562m3.128 1.562v-1.562m-43.789 3.128v-1.566m1.562 1.566v-1.566m1.567 1.566v-1.566m1.562 1.566v-1.566m1.563 1.566v-1.566m1.567 1.566v-1.566m1.562 1.566v-1.566m3.128 1.566v-1.566m15.637 1.566v-1.566m1.567 1.566v-1.566m1.562 1.566v-1.566m3.129 1.566v-1.566m3.129 1.566v-1.566" stroke="#161823" fill="none" stroke-width="1.564" stroke-miterlimit="10"/><path d="M117.629-186.978c-.93.268-1.88.516-2.79.764v-5h2.314c.29 0 .475-.103.537-.33-.578-.744-1.694-1.922-1.694-1.922l-.97 1.673h-.187v-5.392h2.52c.29 0 .517-.104.58-.331-.889-.847-2.397-2.087-2.397-2.087l-1.343 1.839h-4.587l.165.579h2.19v5.392h-2.108l.166.579h1.942v5.744c-1.074.269-1.963.475-2.5.6l1.488 3.284a.933.933 0 00.558-.62c2.975-1.962 4.958-3.533 6.157-4.586l-.041-.186zm11.198.806h-.227c-.372 1.219-.702 2.293-.888 2.644-.124.207-.207.248-.413.269h-1.633c-.351 0-.413-.083-.413-.33v-4.918c.103-.021.206-.042.289-.083v1.426h.496c1.446 0 2.355-.537 2.355-.682v-9.629c.476-.082.703-.248.848-.434l-2.438-1.9-1.344 1.529h-4.504l-2.934-1.095v12.459h.496c1.384 0 2.21-.496 2.21-.682v-10.104h4.815v8.657l-1.364-.124c.269-1.818.29-3.863.331-6.198.475-.062.682-.269.744-.579l-3.554-.31c-.02 7.563.537 12.191-7.376 15.559l.165.29c4.546-1.179 6.984-2.749 8.327-4.836v2.335c0 1.57.31 2.046 2.128 2.046h1.322c2.438 0 3.306-.558 3.306-1.53 0-.454-.103-.743-.682-1.012l-.062-2.768zm15.766-12.997c.724.744 1.53 1.963 1.798 3.079 2.542 1.508 4.463-3.244-1.653-3.203l-.145.124zm-9.07 5.062c.806-1.219 1.529-2.603 2.17-4.153.495.02.764-.165.846-.434l-4.132-1.28c-.785 4.09-2.541 8.285-4.298 10.888l.207.165a17.513 17.513 0 002.975-2.417v11.013h.558c1.137 0 2.356-.62 2.376-.826v-12.067c.413-.062.579-.207.662-.393l-1.364-.496zm14.401 7.025l-.186-.041c-.454.93-1.136 2.128-1.529 2.686-.227.33-.392.33-.702.041-2.459-1.88-3.492-4.835-3.885-8.244l5.786-.681c.29-.042.516-.186.558-.435-1.26-.805-3.224-1.88-3.224-1.88l-1.405 2.211-1.777.207c-.165-1.695-.186-3.513-.144-5.352.516-.082.702-.33.744-.599l-3.761-.455c0 2.356.062 4.629.31 6.757l-4.008.475.227.537 3.843-.454c.537 4.298 1.88 8.017 5.02 10.765 1.034.868 3.017 1.818 4.133.702.413-.413.31-1.177-.537-2.583l.537-3.657zm14.297 3.839h-1.364c-.477 0-.795-.432-.795-1.795v-9.137c0-1.886.636-1.977 1.886-2.045.228-.137.228-.637 0-.773-1.863.023-2.545.045-3.454.045s-3.5-.045-3.5-.045c-.228.136-.228.636 0 .773 1.25.068 1.886.159 1.886 2.045v9.114c0 1.887-.636 1.977-1.886 2.046-.228.136-.228.636 0 .772 0 0 2.613-.045 3.5-.045h5.068c.66 0 2.728.045 2.728.045.227-1.136.454-2.613.59-3.795-.227-.114-.704-.16-.977-.114-.454 1.636-1.295 2.91-3.682 2.91z" fill="#161823"/><path d="M168.335-191.47c-.363 0-.477-.046-.409-.205l1.41-3.682h.113l1.341 3.886h-2.455zm6.41 2.681l-3.16-8.818c-.25.136-2.113.727-2.682.727l-3.272 7.728c-.591 1.409-1.182 1.522-2.16 1.59-.136.137-.136.637 0 .773a58.223 58.223 0 011.91-.045c.659 0 2.068.023 2.909.045.136-.136.136-.636 0-.772-.864-.069-1.932-.137-1.568-1.069l.681-1.772c.069-.205.182-.273.569-.273h3.113l.75 2.204c.25.728-.59.841-1.682.91-.136.136-.136.636 0 .772.841-.022 2.773-.045 3.66-.045.932 0 2.023.023 2.864.045.136-.136.136-.636 0-.772-.955-.069-1.546-.16-1.932-1.228z" fill="#161823"/><path d="M182.995-185.084v-8.636c0-1.455.227-2.296 1.046-2.296h.5c1.704 0 2.659.568 3.045 2.318.25 0 .682-.022.886-.113a26.526 26.526 0 01-.295-3.25c0-.023-.046-.069-.068-.069-.773.069-3.296.182-5.091.182h-3.205c-1.75 0-4.432-.113-5.296-.182-.045 0-.09.046-.09.069-.091 1.022-.319 2.227-.569 3.318.227.09.614.113.887.113.454-1.818 1.386-2.386 2.886-2.386h1.114c.84 0 1.068.841 1.068 2.227v8.705c0 1.887-.386 2-2.205 2.069-.136.136-.136.636 0 .772a178.95 178.95 0 013.75-.045c1.5 0 2.705.023 3.842.045.136-.136.136-.636 0-.772-1.819-.069-2.205-.182-2.205-2.069z" fill="#161823"/><path d="M192.161-185.663h-1.84v-4.296c0-.545.386-1.113.931-1.113h1.932c1.705 0 2.182.863 2.682 2.432.273.045.75 0 .977-.114-.113-.932-.227-3.114-.272-3.296 0-.045-.023-.068-.091-.068-.387.069-.568.091-1.114.091h-6.705s-2.364-.023-3.5-.045c-.136.136-.136.636 0 .773 1.59.068 1.977.181 1.977 2.068v9.091c0 1.887-.386 1.977-1.977 2.046-.136.136-.136.636 0 .772 1.114-.022 3.523-.045 3.523-.045h5.341c1.09 0 3.137.045 3.137.045.318-1.136.431-2.636.613-3.795-.227-.137-.727-.182-1.023-.114-.454 1.636-1.477 2.91-3.204 2.91h-2.296c-.5 0-.932-.478-.932-1.092v-5.204h1.841c1.568 0 2 .432 2.068 1.454.137.137.842.137.978 0-.023-.795-.046-1.227-.046-2 0-.75.023-1.273.046-1.954-.136-.137-.841-.137-.978 0-.068 1.25-.545 1.454-2.068 1.454z" fill="#161823"/><path d="M205.685-184.31c.568.795.727 1.204-.545 1.272-.137.136-.137.636 0 .773.909-.023 2.636-.046 3.545-.046.887 0 2.546.023 3.227.046.137-.137.114-.637-.022-.773-.955-.068-1.546-.273-2.386-1.5l-3.5-5.182c-.5-.75-.5-.91-.114-1.41l3.068-4c.636-.818 1.318-1 2.341-1.09.136-.137.136-.637 0-.773-.682.023-1.796.045-2.318.045s-1.727-.022-2.637-.045c-.136.136-.136.636 0 .773 1 .068 1.341.431 1 1.113-.613 1.091-1.34 2.318-2.273 3.387-.25.295-.409.113-.659-.318l-1.75-2.91c-.5-.84-.477-1.204.796-1.272.136-.137.136-.637 0-.773-.91.023-2.432.045-3.341.045-.887 0-2.841-.022-3.523-.045-.137.136-.114.636.023.773.954.068 1.386.295 2.25 1.5l3.272 4.614c.455.636.455.727.091 1.204l-3.727 4.773c-.636.818-1.432 1-2.455 1.091-.136.136-.136.636 0 .773.682-.023 2-.046 2.523-.046.523 0 1.864.023 2.773.046.136-.137.136-.637 0-.773-1-.068-1.364-.432-1-1.114.727-1.364 1.614-2.682 2.568-4 .227-.295.364-.25.682.273l2.091 3.568zm12.716 3.923c5.104-2.211 8.865-5.91 10.807-9.505 1.033 3.802 2.624 7.273 5.351 9.567.434-1.653 1.653-3.1 3.72-3.45l.082-.29c-5.103-2.397-7.81-7.108-9.215-12.521-.351-1.116-2.335-2.604-4.091-3.534-.372.559-1.22 2.253-1.488 2.852 1.405.186 3.389.434 4.07.868-1.446 6.384-5 12.5-9.442 15.786l.206.227zm22.006.021h.516c1.178 0 2.438-.641 2.438-.93v-15.063c.682-.082.868-.351.91-.702l-3.864-.352v17.047zm1.776-19.547c1.054.992 2.19 2.562 2.666 4.03 2.913 1.632 4.773-3.927-2.52-4.154l-.146.124zm13.204.413l-1.323 1.488h-5.971l.186.579h5.992v13.389c0 .29-.103.454-.475.454-.538 0-3.286-.144-3.286-.144v.248c1.281.248 1.798.557 2.232 1.012.413.434.558 1.136.64 2.087 3.389-.29 3.864-1.384 3.864-3.327v-13.244c.413-.103.662-.29.806-.455l-2.665-2.087zm5.869-.124c.723.93 1.57 2.294 1.9 3.575 2.625 1.674 4.753-3.265-1.756-3.678l-.144.103zm6.364 12.315c-.786.455-1.591.888-2.335 1.302v-7.232c.516-.062.744-.227.847-.372l-2.314-1.921-1.302 1.26h-2.851l.186.578h2.624v8.224c0 .496-.166.723-1.178 1.322l2.087 3.038c.31-.228.66-.661.826-1.281 1.653-1.984 2.893-3.781 3.513-4.753l-.103-.165zm3.574-1.612c.02-.33.041-.66.041-1.012v-4.401h1.777v5.413h-1.818zm4.67 0h-.083v-5.413h2.645c.289 0 .496-.103.558-.33-.785-.848-2.211-2.15-2.211-2.15l-.992 1.488v-3.678c.579-.083.723-.289.764-.578l-3.533-.351v5.02h-1.777v-4.09c.538-.084.703-.31.744-.6l-3.512-.33v5.02h-2.376l.165.579h2.21v4.38c0 .352 0 .703-.02 1.033h-2.769l.165.579h2.563c-.228 3.223-1.26 5.744-3.72 7.769l.166.186c4.174-1.591 5.91-4.319 6.302-7.955h1.86v8.017h.537c1.033 0 2.231-.682 2.231-.971v-7.046h3.327c.289 0 .516-.103.578-.33-.868-.93-2.438-2.335-2.438-2.335l-1.384 2.086zm8.966-6.797h14.588c.29 0 .517-.104.579-.331-.93-.888-2.542-2.21-2.542-2.21l-1.425 1.962h-3.699c1.323-.888 1.137-3.595-3.719-3.678l-.124.103c.744.868 1.509 2.19 1.736 3.472l.165.103h-5.124l-3.43-1.157v6.405c0 3.533-.062 7.542-1.715 10.662l.165.124c4.319-2.852 4.546-7.356 4.546-10.786v-4.67zm9.753 1.095c-.124 2.582-.66 5.33-1.384 7.21l.269.166c1.095-.868 2.024-2.025 2.79-3.43.454.95.846 2.087.888 3.1 2.024 1.735 4.235-2.129-.559-3.782.29-.62.559-1.28.786-1.983.475-.021.723-.207.806-.496l-3.596-.785zm-8.74-.104c-.041 2.893-.516 5.951-1.28 8.162l.289.144c1.157-1.074 2.045-2.52 2.748-4.276.165.743.268 1.59.186 2.376 1.715 1.797 4.235-1.447.124-3.265.206-.64.392-1.302.557-2.004.475-.041.703-.248.765-.517l-3.389-.62zm10.187 12.997h-2.914v-3.492h4.773c.31 0 .537-.103.6-.33-.93-.848-2.5-2.067-2.5-2.067l-1.364 1.818h-1.509v-9.029c.476-.083.62-.269.64-.537l-3.594-.31v9.876h-4.96l.166.579h4.794v3.492h-6.84l.166.579h16.116c.29 0 .538-.104.6-.331-.992-.93-2.687-2.314-2.687-2.314l-1.487 2.066zm-126.425 25.702c-.04.342-.21.737-.566.763l-.342.026c-.052 0-.13.04-.13.105l-.028.25.027.026c.605-.013.986-.026 1.354-.026.382 0 .829.013 1.42.026l.027-.026.026-.25c.013-.066-.04-.092-.119-.105l-.341-.026c-.316-.026-.395-.197-.395-.474 0-.092.013-.184.026-.289l.803-6.403c.04-.342.21-.527.592-.553l.341-.026c.066 0 .145 0 .158-.092l.026-.263-.026-.026H170.8l-3.984 6.692c-.079.132-.118.184-.145.184-.04 0-.052-.052-.065-.17l-1.29-6.693-1.893-.013-.026.026-.026.263c0 .052.013.092.105.092l.355.026c.303.026.42.105.42.29 0 .078-.012.157-.038.263l-1.855 6.416c-.091.355-.263.724-.657.75l-.342.026c-.079 0-.118.04-.131.105l-.027.25.027.026c.381-.013.815-.026 1.117-.026s.79.013 1.158.026l.039-.026.013-.25c0-.066-.04-.105-.105-.105l-.316-.026c-.25-.013-.341-.184-.341-.408a1.1 1.1 0 01.052-.342l1.657-5.76h.026l1.275 6.825c.027.092.093.145.171.145.066 0 .132-.04.198-.145l4.194-6.956h.027l-.79 5.878zm4.077-1.091c0-1.184.513-3.103 1.907-3.103.394 0 .605.21.789.578.17.329.21.815.21 1.21 0 .526-.079 1.657-.565 2.393-.368.565-.907.802-1.394.802-.381 0-.947-.5-.947-1.88zm-1.091.105c0 .697.17 2.262 1.84 2.262.421 0 .83-.053 1.21-.25 1.145-.579 2.039-1.973 2.039-3.524 0-.947-.237-2.13-1.855-2.13-2.195 0-3.234 2.064-3.234 3.642zm9.462-.421c-.645 1.184-1.394 2.078-1.907 2.078-.42 0-.513-.763-.513-1.5 0-1.393.986-3.326 2.196-3.326.5 0 .828.684.828 1.144 0 .302-.223.907-.604 1.604zm0 1.026l-.092.342c-.08.315-.132.565-.132.723 0 .25.092.592.54.592.814 0 1.34-.526 1.682-1.276-.065-.118-.131-.21-.302-.21-.355.486-.605.697-.737.697-.039 0-.157-.027-.157-.185 0-.118.079-.486.131-.736l1.394-6.088c.197-.855.329-1.38.329-1.38 0-.093-.04-.132-.158-.132-.355.131-1.302.302-1.84.342l-.04.315c0 .04.013.066.066.066l.407.026c.171 0 .276.08.276.369 0 .144-.04.368-.092.657l-.487 2.354h-.013a1.125 1.125 0 00-1.038-.723c-1.407 0-3.209 1.945-3.209 4.01 0 .723.184 1.894 1.342 1.894.683 0 1.301-.526 2.09-1.684l.04.027zm6.562-3.34c0 1.183-1.38 1.617-2.38 1.749.46-1.854 1.183-2.249 1.736-2.249.473 0 .644.118.644.5zm-2.472 2.248c3.432-.67 3.38-1.683 3.38-2.182 0-.33-.303-.973-1.25-.973-2.288 0-3.235 2.235-3.235 3.905 0 1.118.526 1.999 1.618 1.999.88 0 1.683-.46 2.458-1.46-.065-.145-.144-.21-.302-.21-.75.762-1.052.88-1.683.88-.592 0-1-.315-1-1.512 0-.065 0-.342.014-.447zm5.983-1.13l.106-.46c.118-.514.236-.974.236-1.197 0-.198-.118-.33-.29-.33-.42 0-.959.093-1.577.172-.092.105-.066.25.013.368l.526.04c.158.013.237.13.237.262 0 .119 0 .303-.092.671l-.723 3.274c-.066.29-.171.513-.171.724 0 .223.118.355.5.355.46 0 .473-.566.604-1.079l.382-1.538c.63-1.144 1.367-2.367 1.67-2.367.13 0 .197.066.276.158.092.105.263.276.447.276.355 0 .591-.381.591-.736 0-.277-.197-.618-.683-.618-.658 0-1.42.815-2 2.038l-.052-.013zm7.483 2.116l.5-2.09c.105-.46.17-.763.17-1 0-.788-.355-1.051-.868-1.051-.683 0-1.249.276-2.458 1.696l-.013-.013.039-.119c.17-.486.276-1.052.276-1.249 0-.184-.092-.276-.263-.276-.42 0-1.039.079-1.657.17-.092.106-.066.25.013.369l.526.04c.158.013.237.13.237.262 0 .106-.04.303-.118.671l-.737 3.274c-.065.263-.17.592-.17.724 0 .21.144.355.565.355.5 0 .486-.58.605-1.079l.5-2.182c.828-1.079 1.551-1.854 2.024-1.854.276 0 .46.065.46.473 0 .158-.078.526-.17.894l-.5 2.104c-.105.42-.224.96-.224 1.21s.145.434.54.434c.63 0 1.262-.448 1.867-1.223-.04-.119-.118-.224-.303-.224-.342.395-.723.658-.855.658-.091 0-.13-.066-.13-.224 0-.118.065-.408.144-.75zm5.963.632c-.065.368-.276.552-.815.605l-.407.039c-.053.053-.08.263-.027.381.592-.013 1.065-.026 1.578-.026h2.67c.341 0 1.499.026 1.499.026.197-.736.486-1.486.762-2.17-.079-.078-.236-.118-.368-.091-.368.802-.973 1.722-1.933 1.722h-1.446c-.316 0-.487-.184-.487-.486 0-.053 0-.105.013-.171l1.236-6.312c.066-.368.276-.552.815-.605l.408-.04c.053-.052.079-.262.027-.38-.592.013-1.065.026-1.578.026-.5 0-1.092-.013-1.67-.026-.04.052-.08.315-.04.38l.447.04c.513.04.658.21.579.605l-1.263 6.483z" fill="#161823"/><path d="M209.439-159.67a.382.382 0 01.315-.145h2.183l.25 1.525c.013.053 0 .105 0 .145-.053.17-.25.276-.579.276h-.223c-.053 0-.092.04-.092.079l-.066.276.013.026s1.065-.026 1.42-.026c.382 0 1.026.026 1.026.026l.04-.026.052-.276c.013-.04.013-.079-.066-.079-.407 0-.552-.118-.644-.644l-.776-4.905c-.04-.303-.25-.329-.408-.329-.078 0-.315.053-.486.329l-3.366 4.984c-.316.473-.605.565-.934.565-.04 0-.079.04-.092.079l-.066.276.013.026s.58-.026.829-.026c.236 0 1.223.026 1.223.026l.026-.026.066-.276c.013-.04-.013-.079-.066-.079h-.158c-.289 0-.46-.066-.46-.197 0-.013 0-.04.013-.053 0-.04.04-.105.079-.171l.934-1.38zm2.445-.527h-1.748c-.25 0-.224-.118-.21-.184l1.55-2.3h.014l.394 2.484z" fill="#161823"/><path d="M214.91-163.365c-.343 0-.619-.119-.934-.171-.171.644-.33 1.025-.618 1.71a.84.84 0 00.394.105c.381-.868.71-1.131 1.407-1.131h.907c.513 0 .592.131.526.512l-1.249 6.457c-.079.368-.276.552-.815.605l-.408.039c-.052.053-.079.263-.026.381.592-.013 1.065-.026 1.578-.026.5 0 1.091.013 1.67.026.04-.052.079-.315.04-.381l-.448-.04c-.513-.039-.657-.21-.578-.604l1.249-6.417c.092-.447.263-.552.71-.552h.71c.684 0 .88.341 1.104 1.222.132 0 .237 0 .395-.065a7.394 7.394 0 01-.145-1.841c-.434.065-.605.17-1.078.17h-4.392z" fill="#161823"/><path d="M224.132-160.557c0-.027-.014-.04-.053-.04-.224.04-.302.053-.605.053h-3.195c-.487 0-1-.013-1.591-.026l-.026.026-.053.263c-.013.04-.013.092.079.092l.368.026c.394.026.565.132.565.408 0 .052-.013.118-.026.184l-1.275 6.561c-.08.369-.263.526-.763.566l-.381.026c-.08 0-.106.053-.119.092l-.052.263.026.026c.591-.013 1.118-.026 1.604-.026h2.709c.605 0 1.604.026 1.604.026.276-.683.605-1.512.894-2.196l-.381-.065c-.434.946-1.079 1.722-2.038 1.722h-1.71c-.236 0-.394-.052-.394-.302 0-.04 0-.08.013-.132l.644-3.3h1.605c.394 0 .552.092.552.394 0 .026-.013.066-.013.106l-.027.328c-.013.04 0 .106.066.106h.276l.066-.04c.052-.526.118-.881.17-1.144a11.3 11.3 0 01.277-1.183l-.04-.053h-.276c-.052 0-.105.053-.118.105l-.092.329c-.118.368-.302.552-.736.552h-1.604l.525-2.761c.066-.316.25-.447.553-.447h1.315c.947 0 1.078.526 1.183 1.433l.368-.066c.053-.539.106-1.801.106-1.906z" fill="#161823"/><path d="M223.896-163.102c-.013.052.066.066.184.092.21.04.579.144.947.907l1.289 2.696c.078.118.118.21.118.315 0 .026-.013.053-.013.08-.014.078-.092.196-.185.301l-2.209 2.46c-.355.394-.907.973-1.643 1.012-.08 0-.145.026-.158.092l-.053.263v.026c.382-.013.697-.026 1.065-.026.5 0 .829.013 1.42.026l.04-.026.053-.263c0-.04 0-.079-.066-.092l-.237-.026c-.223-.026-.315-.092-.315-.197 0-.119.105-.264.25-.434l2.13-2.38c.105-.106.197-.185.223-.185.053 0 .105.04.158.145l1.183 2.472c.093.184.145.303.145.382 0 .13-.118.17-.42.197l-.264.026c-.052 0-.079.04-.092.092l-.052.263.039.026c.592-.013 1.289-.026 1.578-.026.29 0 .815.013 1.328.026l.026-.026.053-.263c0-.04-.013-.092-.079-.092-.552-.04-.894-.473-1.144-.986l-1.407-2.761c-.079-.145-.132-.264-.132-.369 0-.026.014-.04.014-.066.026-.118.105-.236.25-.394l2.103-2.327c.434-.474.79-.842 1.552-.868.105 0 .131-.053.131-.092l.053-.263-.026-.026c-.513.013-.947.026-1.236.026-.29 0-.736-.013-1.25-.026l-.026.026-.052.263c-.013.066.026.092.079.092l.368.026c.17.013.236.066.236.145 0 .092-.105.25-.276.434l-2.077 2.3c-.092.106-.158.159-.198.159-.026 0-.065-.053-.118-.145l-1.052-2.314c-.079-.158-.131-.29-.131-.381 0-.119.079-.185.302-.198l.421-.026c.026 0 .066-.026.079-.092l.04-.25c-.014 0-.014-.04-.014-.04a94.48 94.48 0 01-1.538.027c-.303 0-.802-.013-1.302-.026l-.04.039-.052.25zm13.006 4.01c.118-.513.276-1.025.276-1.249 0-.184-.106-.276-.276-.276-.421 0-1.013.092-1.631.17-.092.106-.066.25.013.369l.526.04c.158.013.237.13.237.262 0 .119-.026.303-.119.671l-.617 2.709c-.093.42-.224.96-.224 1.21s.145.434.539.434c.631 0 1.223-.448 1.828-1.223-.04-.119-.118-.224-.303-.224-.342.395-.723.658-.854.658-.092 0-.132-.066-.132-.224 0-.118.066-.408.145-.75l.592-2.577zm-.579-3.287c0 .342.29.631.631.631a.64.64 0 00.631-.631.64.64 0 00-.63-.631.64.64 0 00-.632.631zm6.68 5.864l.5-2.09c.105-.46.17-.763.17-1 0-.788-.354-1.051-.867-1.051-.684 0-1.25.276-2.459 1.696l-.013-.013.04-.119c.17-.486.276-1.052.276-1.249 0-.184-.093-.276-.264-.276-.42 0-1.038.079-1.656.17-.092.106-.066.25.013.369l.526.04c.157.013.237.13.237.262 0 .106-.04.303-.119.671l-.736 3.274c-.066.263-.171.592-.171.724 0 .21.145.355.565.355.5 0 .487-.58.605-1.079l.5-2.182c.828-1.079 1.551-1.854 2.025-1.854.276 0 .46.065.46.473 0 .158-.079.526-.171.894l-.5 2.104c-.105.42-.223.96-.223 1.21s.145.434.539.434c.631 0 1.262-.448 1.867-1.223-.04-.119-.118-.224-.302-.224-.342.395-.724.658-.855.658-.092 0-.131-.066-.131-.224 0-.118.065-.408.144-.75zm9.797-4.062c-.355-.04-.526-.08-1.052-.08-1.407 0-3.313 2.065-3.313 4.13 0 .736.17 1.775 1.275 1.775.697 0 1.433-.724 2.222-1.894l.027.026-.171.553a2.719 2.719 0 00-.132.723c0 .25.092.592.54.592.815 0 1.34-.526 1.682-1.276-.065-.118-.131-.21-.302-.21-.355.486-.605.697-.736.697-.04 0-.158-.027-.158-.185 0-.118.079-.486.131-.736l.908-4.09c-.316 0-.658.04-.92-.025zm-.657 2.813c-.645 1.184-1.657 2.288-2.078 2.288-.447 0-.578-.526-.578-1.262 0-1.394 1.091-3.511 2.3-3.511.277 0 .566.092.816.25 0 0-.131 1.394-.46 2.235zm13.978-4.444c.08-.394.33-.736.829-.776l.355-.026c.04 0 .118-.04.118-.105l.027-.25-.027-.026c-.592.013-1.065.026-1.367.026-.316 0-.855-.013-1.447-.026l-.026.026-.04.25c-.012.052.093.105.158.105l.316.026c.42.026.552.29.552.579 0 .065 0 .131-.013.197l-.973 4.983c-.052.25-.079.395-.158.395-.105 0-.223-.237-.5-.723l-3.195-5.838h-1.735l-.04.026-.026.25c-.013.065.092.092.184.105.408.04.684.552.697.894l-1.184 6.075c-.078.355-.328.736-.841.776l-.329.026c-.118.013-.184.053-.184.118l-.026.237.026.026c.592-.013 1.131-.026 1.447-.026.315 0 .775.013 1.367.026l.026-.026.027-.25c.013-.066-.027-.105-.08-.105l-.328-.026c-.408-.026-.565-.276-.565-.579 0-.052.013-.131.026-.197l.894-4.615c.092-.448.158-.645.25-.645.079 0 .184.145.355.434l3.274 5.799c.092.197.237.316.447.316.171 0 .29-.158.342-.408l1.367-7.048zm6.379 2.696c.052-.237.17-.632.17-.79 0-.223-.13-.354-.551-.354-.5 0-.474.578-.605 1.078l-.382 1.446c-.973 1.657-1.617 2.59-2.274 2.59-.237 0-.395-.131-.395-.486 0-.21.026-.487.118-.842l.566-2.143c.105-.42.276-.96.276-1.21s-.079-.433-.474-.433c-.63 0-1.38.447-1.985 1.222.04.119.118.224.302.224.342-.395.776-.657.908-.657.092 0 .131.065.131.223 0 .118-.079.408-.17.75l-.58 2.208a3.41 3.41 0 00-.13.882c0 .75.42 1.052.88 1.052 1.026 0 1.683-.816 2.617-2.183l.04.026-.145.513c-.118.42-.224.96-.224 1.21s.092.434.487.434c.631 0 1.223-.448 1.828-1.223-.04-.119-.119-.224-.303-.224-.342.395-.723.658-.855.658-.092 0-.131-.066-.131-.224 0-.118.065-.408.145-.75l.736-2.997zm2.644-1.013l-.697.04c-.25.013-.342.118-.368.223-.014.04-.053.197-.053.224s.04.026.079.026h.92l-.802 3.576c-.092.421-.184.829-.184 1.079 0 .473.237.605.645.605.591 0 1.459-.54 1.906-1.355-.04-.17-.131-.25-.29-.25-.604.684-.84.816-1.051.816a.172.172 0 01-.171-.185c0-.118.04-.38.145-.828l.775-3.458h1.289c.158-.066.276-.408.132-.513h-1.302l.131-.592c.053-.25.171-.63.171-.789 0-.223-.105-.355-.526-.355-.473 0-.447.592-.578 1.079l-.171.657zm3.879 5.773h.197c1.289 0 2.065-.71 2.065-1.684 0-.618-.355-1.222-1.565-2.025-.395-.263-.526-.5-.526-.828 0-.46.263-.933.828-.933.33 0 .553.105.592.38.04.316.263.685.605.685.368 0 .473-.237.473-.448 0-.473-.683-1.051-1.499-1.051-1.143 0-1.84.841-1.84 1.643 0 .526.289 1.092 1.144 1.67.696.473.802.907.802 1.183 0 .724-.526.974-1.118.974-.342 0-.526-.066-.565-.355-.04-.303-.224-.697-.619-.697a.465.465 0 00-.486.46c0 .487.605.973 1.512 1.026zm4.669-1.079l.5-2.182c.828-1.079 1.682-1.854 2.156-1.854.276 0 .46.078.46.486 0 .184-.026.434-.132.881l-.5 2.104c-.104.42-.223.96-.223 1.21s.145.434.54.434c.63 0 1.222-.448 1.827-1.223-.04-.119-.118-.224-.302-.224-.342.395-.723.658-.855.658-.092 0-.132-.066-.132-.224 0-.118.066-.408.145-.75l.5-2.09c.105-.46.17-.763.17-1 0-.788-.354-1.051-.867-1.051-.684 0-1.368.276-2.577 1.67l.802-3.564c.197-.855.328-1.38.328-1.38 0-.093-.039-.132-.157-.132-.355.131-1.302.302-1.841.342l-.04.315c0 .04.014.066.066.066l.408.026c.17 0 .276.08.276.369 0 .144-.026.368-.092.657l-1.433 6.456c-.066.263-.171.592-.171.724 0 .223.118.355.539.355.5 0 .486-.58.605-1.079zm9.178-3.918c0 1.183-1.38 1.617-2.38 1.749.46-1.854 1.184-2.249 1.736-2.249.474 0 .644.118.644.5zm-2.471 2.248c3.431-.67 3.379-1.683 3.379-2.182 0-.33-.303-.973-1.25-.973-2.287 0-3.234 2.235-3.234 3.905 0 1.118.526 1.999 1.617 1.999.881 0 1.683-.46 2.46-1.46-.066-.145-.145-.21-.303-.21-.75.762-1.052.88-1.683.88-.592 0-1-.315-1-1.512 0-.065 0-.342.014-.447zm6.838-5.049c.184-.855.328-1.38.328-1.38 0-.093-.039-.132-.157-.132-.355.131-1.302.302-1.841.342l-.04.315c0 .04.014.066.066.066l.408.026c.17 0 .276.08.276.369 0 .144-.026.368-.092.657l-1.302 5.838c-.092.421-.184.868-.184 1.118 0 .25.066.579.552.579.592 0 1.302-.342 1.907-1.329-.053-.131-.119-.223-.29-.223-.394.473-.815.763-.972.763-.106 0-.158-.08-.158-.185s.04-.302.158-.828l1.34-5.996zm3.498 0c.184-.855.328-1.38.328-1.38 0-.093-.039-.132-.157-.132-.355.131-1.302.302-1.841.342l-.04.315c0 .04.014.066.066.066l.408.026c.17 0 .276.08.276.369 0 .144-.026.368-.092.657l-1.302 5.838c-.092.421-.184.868-.184 1.118 0 .25.066.579.552.579.592 0 1.302-.342 1.907-1.329-.053-.131-.118-.223-.29-.223-.394.473-.815.763-.972.763-.106 0-.158-.08-.158-.185s.04-.302.158-.828l1.34-5.996z" fill="#161823"/><path d="M334.492-132.465v-13.203h-8.402v-2.398h8.402v-8.399h-1.199v7.2h-7.203v-2.403h4.8v-4.797h-1.199v3.598h-4.8v3.601h-3.598v3.598h-3.602v3.602h-3.601v4.8h-3.598v1.2h4.801v-4.801h2.398v7.199h-7.199v1.203h8.399v-8.402h2.402v8.402h13.2m-1.2-1.203h-10.8v-7.2h2.398v4.802h6v-6h-4.801v-2.399h7.203v10.797m-3.602-3.598h-3.601v-3.601h3.601v3.601m-4.8-4.8h-2.399v-2.399h2.399v2.399m-3.598 0h-2.402v-2.399h2.402v2.399m3.598-3.602h-2.399v-2.398h2.399v2.398" fill="#dc3023"/><path d="M334.492-132.465v-13.203h-8.402v-2.398h8.402v-8.399h-1.199v7.2h-7.203v-2.403h4.8v-4.797h-1.199v3.598h-4.8v3.601h-3.598v3.598h-3.602v3.602h-3.601v4.8h-3.598v1.2h4.801v-4.801h2.398v7.199h-7.199v1.203h8.399v-8.402h2.402v8.402h13.2m-1.2-1.203h-10.8v-7.2h2.398v4.802h6v-6h-4.801v-2.399h7.203v10.797m-3.602-3.598h-3.601v-3.601h3.601v3.601m-4.8-4.8h-2.399v-2.399h2.399v2.399m-3.598 0h-2.402v-2.399h2.402v2.399m3.598-3.602h-2.399v-2.398h2.399v2.398" stroke="#dc3023" fill="none" stroke-width=".399" stroke-miterlimit="10" stroke-linecap="square"/><path d="M329.691-156.465h1.2v-24h-1.2v24m3.602 0h1.2v-24h-1.2v24" fill="#dc3023"/><path d="M329.691-156.465h1.2v-24h-1.2v24m3.602 0h1.2v-24h-1.2v24" stroke="#dc3023" fill="none" stroke-width=".399" stroke-miterlimit="10" stroke-linecap="square"/><path d="M329.691-180.465h1.2v-24h-1.2v24m3.602 0h1.2v-24h-1.2v24" fill="#dc3023"/><path d="M329.691-180.465h1.2v-24h-1.2v24m3.602 0h1.2v-24h-1.2v24" stroke="#dc3023" fill="none" stroke-width=".399" stroke-miterlimit="10" stroke-linecap="square"/><path d="M28.348 137.266v-1.2h24v1.2h-24m0-3.598v-1.2h24v1.2h-24" fill="#dc3023" clip-path="url(#a)" transform="scale(1 -1)"/><path d="M28.348 137.266v-1.2h24v1.2h-24m0-3.598v-1.2h24v1.2h-24" stroke="#dc3023" fill="none" stroke-width=".399" stroke-miterlimit="10" stroke-linecap="square" clip-path="url(#a)" transform="scale(1 -1)"/><path d="M52.348 137.266v-1.2h24v1.2h-24m0-3.598v-1.2h24v1.2h-24" fill="#dc3023" clip-path="url(#a)" transform="scale(1 -1)"/><path d="M52.348 137.266v-1.2h24v1.2h-24m0-3.598v-1.2h24v1.2h-24" stroke="#dc3023" fill="none" stroke-width=".399" stroke-miterlimit="10" stroke-linecap="square" clip-path="url(#a)" transform="scale(1 -1)"/><path d="M76.348 137.266v-1.2h24v1.2h-24m0-3.598v-1.2h24v1.2h-24" fill="#dc3023" clip-path="url(#a)" transform="scale(1 -1)"/><path d="M76.348 137.266v-1.2h24v1.2h-24m0-3.598v-1.2h24v1.2h-24" stroke="#dc3023" fill="none" stroke-width=".399" stroke-miterlimit="10" stroke-linecap="square" clip-path="url(#a)" transform="scale(1 -1)"/><path d="M100.348 137.266v-1.2h24v1.2h-24m0-3.598v-1.2h24v1.2h-24" fill="#dc3023" clip-path="url(#a)" transform="scale(1 -1)"/><path d="M100.348 137.266v-1.2h24v1.2h-24m0-3.598v-1.2h24v1.2h-24" stroke="#dc3023" fill="none" stroke-width=".399" stroke-miterlimit="10" stroke-linecap="square" clip-path="url(#a)" transform="scale(1 -1)"/><path d="M124.348 137.266v-1.2h24v1.2h-24m0-3.598v-1.2h24v1.2h-24" fill="#dc3023" clip-path="url(#a)" transform="scale(1 -1)"/><path d="M124.348 137.266v-1.2h24v1.2h-24m0-3.598v-1.2h24v1.2h-24" stroke="#dc3023" fill="none" stroke-width=".399" stroke-miterlimit="10" stroke-linecap="square" clip-path="url(#a)" transform="scale(1 -1)"/><path d="M148.348 137.266v-1.2h24v1.2h-24m0-3.598v-1.2h24v1.2h-24" fill="#dc3023" clip-path="url(#a)" transform="scale(1 -1)"/><path d="M148.348 137.266v-1.2h24v1.2h-24m0-3.598v-1.2h24v1.2h-24" stroke="#dc3023" fill="none" stroke-width=".399" stroke-miterlimit="10" stroke-linecap="square" clip-path="url(#a)" transform="scale(1 -1)"/><path d="M172.348 137.266v-1.2h24v1.2h-24m0-3.598v-1.2h24v1.2h-24" fill="#dc3023" clip-path="url(#a)" transform="scale(1 -1)"/><path d="M172.348 137.266v-1.2h24v1.2h-24m0-3.598v-1.2h24v1.2h-24" stroke="#dc3023" fill="none" stroke-width=".399" stroke-miterlimit="10" stroke-linecap="square" clip-path="url(#a)" transform="scale(1 -1)"/><path d="M196.352 137.266v-1.2h23.996v1.2h-23.996m0-3.598v-1.2h23.996v1.2h-23.996" fill="#dc3023" clip-path="url(#a)" transform="scale(1 -1)"/><path d="M196.352 137.266v-1.2h23.996v1.2h-23.996m0-3.598v-1.2h23.996v1.2h-23.996" stroke="#dc3023" fill="none" stroke-width=".399" stroke-miterlimit="10" stroke-linecap="square" clip-path="url(#a)" transform="scale(1 -1)"/><path d="M220.352 137.266v-1.2h23.996v1.2h-23.996m0-3.598v-1.2h23.996v1.2h-23.996" fill="#dc3023" clip-path="url(#a)" transform="scale(1 -1)"/><path d="M220.352 137.266v-1.2h23.996v1.2h-23.996m0-3.598v-1.2h23.996v1.2h-23.996" stroke="#dc3023" fill="none" stroke-width=".399" stroke-miterlimit="10" stroke-linecap="square" clip-path="url(#a)" transform="scale(1 -1)"/><path d="M244.352 137.266v-1.2h23.996v1.2h-23.996m0-3.598v-1.2h23.996v1.2h-23.996" fill="#dc3023" clip-path="url(#a)" transform="scale(1 -1)"/><path d="M244.352 137.266v-1.2h23.996v1.2h-23.996m0-3.598v-1.2h23.996v1.2h-23.996" stroke="#dc3023" fill="none" stroke-width=".399" stroke-miterlimit="10" stroke-linecap="square" clip-path="url(#a)" transform="scale(1 -1)"/><path d="M268.352 137.266v-1.2h24v1.2h-24m0-3.598v-1.2h24v1.2h-24" fill="#dc3023" clip-path="url(#a)" transform="scale(1 -1)"/><path d="M268.352 137.266v-1.2h24v1.2h-24m0-3.598v-1.2h24v1.2h-24" stroke="#dc3023" fill="none" stroke-width=".399" stroke-miterlimit="10" stroke-linecap="square" clip-path="url(#a)" transform="scale(1 -1)"/><path d="M292.352 137.266v-1.2h24v1.2h-24m0-3.598v-1.2h24v1.2h-24" fill="#dc3023" clip-path="url(#a)" transform="scale(1 -1)"/><path d="M292.352 137.266v-1.2h24v1.2h-24m0-3.598v-1.2h24v1.2h-24" stroke="#dc3023" fill="none" stroke-width=".399" stroke-miterlimit="10" stroke-linecap="square" clip-path="url(#a)" transform="scale(1 -1)"/><path d="M316.352 137.266v-1.2h24v1.2h-24m0-3.598v-1.2h24v1.2h-24" fill="#dc3023" clip-path="url(#a)" transform="scale(1 -1)"/><path d="M316.352 137.266v-1.2h24v1.2h-24m0-3.598v-1.2h24v1.2h-24" stroke="#dc3023" fill="none" stroke-width=".399" stroke-miterlimit="10" stroke-linecap="square" clip-path="url(#a)" transform="scale(1 -1)"/><path d="M305.295-91.001v-1.287h3.873v1.287h-3.873zm3.873-2.836v1.232h-3.873v-1.232h3.873zm-.098-.317h-3.709l-1.113-.469v4.625h.153c.436 0 .894-.229.894-.338v-.349h3.873v.611h.175c.349 0 .872-.196.894-.273v-3.316a.804.804 0 00.426-.218l-1.08-.84-.513.567zm-4.582-3.567c.371.458.807 1.2.895 1.8.796.666 1.625-1.025-.786-1.865l-.109.065zm4.506-.153c-.208.513-.611 1.484-.895 2.051l.11.11c.468-.415 1.199-1.08 1.559-1.451.25.032.35-.022.393-.12l-1.167-.59zm-1.299 2.488v-2.717h2.673v2.717h-2.673zm-3.621-2.717h2.672v2.717h-2.672v-2.717zm6.676-.818l-.48.502h-1.91a18.03 18.03 0 001.408-1.025c.24.032.382-.033.436-.164l-1.45-.556c-.208.501-.524 1.21-.786 1.745h-1.876c.567-.262.523-1.484-1.571-1.69l-.098.075c.403.371.894 1.004 1.058 1.55l.13.065h-1.385l-1.156-.447v4.516h.185c.502 0 .819-.24.819-.316v-.404h6.294v.578h.175c.327 0 .829-.207.829-.283v-3.219c.174-.021.305-.098.36-.174l-.982-.753zm6.665-1.069c.35.524.764 1.287.84 1.93.928.786 1.877-1.079-.72-1.984l-.12.054zm-3.262-.054c.317.403.699 1.036.775 1.57.895.742 1.887-1.025-.676-1.636l-.099.066zm1.473 4.538a9.025 9.025 0 001.047-1.746c.251-.022.382-.043.47-.13l-.971-.96-.6.567h-2.455l.098.316h2.39c-.448 1.407-1.484 3.142-2.608 4.298l.12.109a9.866 9.866 0 001.527-1.276v4.363h.175c.48 0 .807-.262.807-.338v-4.701c.295.414.59.927.677 1.385.861.676 1.701-.982-.677-1.713v-.174zm5.957 2.258h-1.353v-1.931h2.094c.153 0 .262-.055.284-.175-.382-.381-1.047-.905-1.047-.905l-.568.764h-.763v-1.91h2.476c.153 0 .262-.054.295-.174a19.405 19.405 0 00-1.07-.905l-.6.763h-.948a22.235 22.235 0 001.538-1.669c.24.022.382-.054.425-.185l-1.494-.535c-.186.676-.491 1.67-.764 2.39h-3.022l.087.316h2.062v1.909h-1.887l.087.316h1.8v1.93h-2.509l.087.317h2.422v2.967h.175c.513 0 .84-.218.84-.283v-2.684h2.738c.153 0 .273-.054.294-.174a36.766 36.766 0 00-1.08-.938l-.6.796zm4.93-.895c-.654 1.451-1.712 2.793-2.629 3.578l.12.11c1.244-.557 2.466-1.506 3.426-2.771.24.054.392-.022.458-.131l-1.375-.786zm4.233.23c.818.774 1.855 1.985 2.204 3 1.2.763 1.865-1.735-2.095-3.088l-.109.087zm1.298-4.244h-4.134c.229-.513.447-.971.6-1.33.283.043.414-.067.469-.197l-1.397-.459c-.174.48-.48 1.211-.829 1.986h-2.683l.098.316h2.443c-.414.895-.872 1.833-1.243 2.477a2.2 2.2 0 00-.458.24l1.047.73.382-.37h2.422v3.436c0 .152-.044.207-.23.207-.24 0-1.341-.076-1.341-.076v.141c.523.077.785.197.938.35.153.163.218.403.251.72 1.287-.11 1.462-.535 1.462-1.288v-3.49h3.283c.153 0 .262-.055.295-.175-.458-.425-1.233-1.004-1.233-1.004l-.665.862h-1.68v-1.57c.24-.033.327-.12.36-.273l-1.44-.131v1.974h-2.346c.371-.753.895-1.81 1.353-2.76h5.945c.153 0 .273-.054.306-.174-.48-.426-1.277-1.026-1.277-1.026l-.698.884zm-78.031 20.23c0 .252.228.468.48.468.204 0 .564-.216.564-.48 0-.096-.024-.168-.048-.252-.024-.084-.096-.192-.096-.288 0-.3.312-.732 1.188-.732.432 0 1.044.3 1.044 1.452 0 .768-.276 1.392-.984 2.112l-.888.876c-1.176 1.2-1.368 1.776-1.368 2.484 0 0 .612-.024.996-.024h2.1c.384 0 .936.024.936.024.156-.636.276-1.536.288-1.896-.072-.06-.228-.084-.348-.06-.204.852-.408 1.152-.84 1.152H254.9c0-.576.828-1.392.888-1.452L257-75.707c.684-.66 1.2-1.188 1.2-2.1 0-1.296-1.056-1.824-2.028-1.824-1.332 0-2.16.984-2.16 1.704zm7.632-1.284c.204 0 .396.072.54.204.372.312.696 1.224.696 2.832 0 1.104-.036 1.86-.204 2.472-.264.984-.852 1.092-1.068 1.092-1.116 0-1.236-2.052-1.236-3.096 0-2.952.732-3.504 1.272-3.504zm-.048 7.02c.924 0 2.328-.936 2.328-3.756 0-1.188-.288-2.208-.816-2.904-.312-.42-.816-.78-1.464-.78-1.188 0-2.316 1.416-2.316 3.792 0 1.284.396 2.496 1.056 3.144a1.66 1.66 0 001.212.504zm3.576-5.736c0 .252.228.468.48.468.204 0 .564-.216.564-.48 0-.096-.024-.168-.048-.252-.024-.084-.096-.192-.096-.288 0-.3.312-.732 1.188-.732.432 0 1.044.3 1.044 1.452 0 .768-.276 1.392-.984 2.112l-.888.876c-1.176 1.2-1.368 1.776-1.368 2.484 0 0 .612-.024.996-.024h2.1c.384 0 .936.024.936.024.156-.636.276-1.536.288-1.896-.072-.06-.228-.084-.348-.06-.204.852-.408 1.152-.84 1.152h-2.136c0-.576.828-1.392.888-1.452l1.212-1.164c.684-.66 1.2-1.188 1.2-2.1 0-1.296-1.056-1.824-2.028-1.824-1.332 0-2.16.984-2.16 1.704zm7.632-1.284c.204 0 .396.072.54.204.372.312.696 1.224.696 2.832 0 1.104-.036 1.86-.204 2.472-.264.984-.852 1.092-1.068 1.092-1.116 0-1.236-2.052-1.236-3.096 0-2.952.732-3.504 1.272-3.504zm-.048 7.02c.924 0 2.328-.936 2.328-3.756 0-1.188-.288-2.208-.816-2.904-.312-.42-.816-.78-1.464-.78-1.188 0-2.316 1.416-2.316 3.792 0 1.284.396 2.496 1.056 3.144.336.336.744.504 1.212.504zm9.215-2.334v-2.597h2.127v2.597h-2.127zm5.247 0h-1.996v-2.597h2.923c.153 0 .273-.054.295-.174-.437-.382-1.157-.917-1.157-.917l-.61.775h-1.451v-2.084h3.283c.153 0 .262-.054.284-.174a16.908 16.908 0 00-1.211-.982l-.665.84h-4.822c.229-.338.447-.687.643-1.058.251.022.393-.066.448-.197l-1.517-.589c-.632 1.833-1.712 3.6-2.716 4.648l.131.109c1.014-.611 1.974-1.484 2.793-2.597h2.225v2.084h-1.985l-1.233-.47v3.383h-1.887l.098.316h5.007v2.814h.196c.579 0 .928-.229.928-.305v-2.51h3.6c.152 0 .272-.054.305-.174-.47-.392-1.233-.97-1.233-.97l-.676.829zm7.871-4.686c.516 0 .996.312.996 1.08 0 .612-.696 1.524-1.884 1.692l.06.384c.204-.024.42-.024.576-.024.684 0 1.572.192 1.572 1.548 0 1.596-1.068 1.92-1.488 1.92-.612 0-.72-.276-.864-.492-.12-.168-.276-.312-.516-.312-.252 0-.504.228-.504.42 0 .48 1.008.804 1.728.804 1.428 0 2.7-.924 2.7-2.508 0-1.308-.984-1.776-1.692-1.896l-.012-.024c.984-.468 1.26-.96 1.26-1.596 0-.36-.084-.648-.372-.948-.264-.264-.684-.468-1.308-.468-1.764 0-2.268 1.152-2.268 1.548 0 .168.12.408.408.408.42 0 .468-.396.468-.624 0-.768.828-.912 1.14-.912zm9.59 3.561c.053-.512.075-1.024.075-1.537v-.655h3.84v2.193h-3.916zm3.915-4.624v2.127h-3.84v-2.127h3.84zm.404-.917l-.513.6h-3.545l-1.233-.458v3.873c0 2.192-.284 4.156-2.127 5.683l.12.12c1.963-1.014 2.683-2.443 2.934-3.96h3.96v2.466c0 .174-.054.261-.273.261a55.42 55.42 0 01-1.625-.098v.164c.611.098.916.218 1.113.393.185.163.262.425.294.763 1.397-.13 1.56-.589 1.56-1.352V-80.1a.784.784 0 00.459-.218l-1.124-.873zm9.251 2.796v3.456h-2.291c.612-.984 1.464-2.328 2.292-3.456zm1.909 3.456h-.996v-3.504c0-.6 0-1.068.024-1.164l-.024-.024h-.384c-.084 0-.144.072-.192.132-.756.924-2.148 2.904-3.252 4.62.036.18.108.504.468.504h2.448v1.104c0 .552-.456.552-.972.588-.072.072-.072.324 0 .396.384-.012.864-.024 1.416-.024.468 0 .924.012 1.308.024.072-.072.072-.324 0-.396-.588-.048-.84-.024-.84-.588v-1.104h.828c.168 0 .348-.228.348-.372 0-.12-.048-.192-.18-.192zm6.583 2.137v-3.545h4.648v3.545h-4.648zm4.648-7.276v3.414h-4.648v-3.414h4.648zm.447-.916l-.556.6h-4.451l-1.157-.48v9.414h.186c.47 0 .883-.262.883-.404v-.622h4.648v.95h.174c.404 0 .917-.262.938-.35v-7.996c.219-.054.371-.142.448-.229l-1.113-.883zm-56.64 26.246c-.287.399-.661.75-1.115 1.052-.55-.223-1.012-.518-1.363-.9.048-.048.096-.104.143-.152h2.335zm.167-2.844v.677h-2.804v-.677h2.804zM272.56-56v-.685h2.804V-56h-2.804zm3.187.614l-.502.406h-2.183c.071-.096.135-.191.199-.279.183.024.255-.024.295-.111l-.933-.399h2.741v.247h.128c.247 0 .63-.143.637-.191v-1.769a.459.459 0 00.287-.151l-.757-.574-.366.382h-2.686l-.613-.255c.111-.119.207-.262.31-.406h4.662c.111 0 .2-.04.223-.127-.335-.287-.868-.686-.868-.686l-.463.582h-3.402c.08-.128.16-.255.231-.39.175.031.279-.032.319-.12l-1.028-.43c-.375 1.131-1.036 2.191-1.666 2.82l.088.088c.502-.279.98-.645 1.41-1.123v2.43h.112c.247 0 .502-.104.598-.183-.32.717-.925 1.594-1.626 2.151l.08.096a5.557 5.557 0 001.618-1.092c.27.423.613.773 1.003 1.06-.908.486-2.032.82-3.275 1.028l.032.127c1.45-.095 2.725-.358 3.761-.828.781.422 1.745.669 2.861.82.072-.374.271-.637.606-.725v-.103c-.98-.04-1.937-.144-2.773-.367.51-.31.94-.685 1.29-1.131.216-.008.303-.032.367-.112l-.717-.685zm7.675-3.354v1.873h-3.14v-1.873h3.14zm-3.14 4.008v-1.904h3.14v1.904h-3.14zm0 .231h3.14v.686h.12c.27 0 .645-.168.661-.231v-4.566c.16-.032.279-.096.327-.16l-.797-.637-.39.438h-3.005l-.82-.359v5.65h.12c.334 0 .644-.183.644-.27v-.55zm3.921 1.45h-5.992l.063.231h7.124c.12 0 .207-.04.223-.127-.35-.303-.916-.741-.916-.741l-.502.638zm9.127-3.984c.111 0 .199-.04.223-.127-.351-.311-.94-.757-.94-.757l-.519.653h-2.016c.056-.645.064-1.323.08-2.016.191-.032.263-.111.287-.23l-1.132-.112c0 .82.008 1.61-.055 2.358h-3.044l.071.231h2.957c-.184 1.801-.837 3.371-3.108 4.67l.088.127c2.82-1.163 3.585-2.797 3.817-4.685.223 1.586.844 3.522 2.852 4.685.088-.43.335-.645.733-.717l.016-.087c-2.295-.973-3.187-2.503-3.466-3.993h3.155zm3.802-2.573c.247.366.486.908.494 1.386.67.614 1.466-.781-.414-1.434l-.08.048zm-1.793.127c.295.335.622.892.685 1.355.694.534 1.347-.9-.605-1.41l-.08.055zm4.829 4.518h-1.929v-.542c.176-.024.255-.087.271-.199l-.135-.008c.51-.215 1.084-.494 1.442-.717.176-.016.263-.032.327-.096l-.757-.717-.454.422h-3.41l.063.232h3.251c-.223.27-.542.597-.813.844l-.581-.056v.837h-3.26l.064.231h3.196v1.45c0 .12-.04.168-.192.168-.207 0-1.338-.08-1.338-.08v.112c.486.08.725.167.876.294.16.128.215.311.247.55 1.06-.095 1.203-.422 1.203-.996v-1.498h3.052c.12 0 .2-.04.223-.127a17.597 17.597 0 00-.868-.726l-.478.622zm.621-3.41l-.462.454h-1.307a9.291 9.291 0 001.307-1.211c.176.015.279-.032.319-.128l-1.052-.382c-.199.51-.534 1.21-.86 1.72h-3.475a2.658 2.658 0 00-.175-.58l-.127.007c.071.582-.208 1.108-.526 1.307-.208.111-.351.303-.255.542.103.239.422.263.669.095.255-.167.478-.565.438-1.139h5.052c-.111.303-.27.685-.39.932l.072.056c.398-.2.948-.55 1.25-.82.168-.009.256-.025.32-.096l-.798-.757zm10.921.573c.095-.302.175-.63.246-.956.136-.008.216-.056.255-.127v1.083h-.501zm5.896-.717l-.422.447h-2.39c.19-.335.35-.71.485-1.108.184 0 .28-.064.311-.167l-1.036-.311a8.715 8.715 0 01-.558 1.856c-.246-.255-.573-.565-.573-.565l-.383.565h-.12v-1.522c.216-.032.272-.111.296-.223l-1.005-.111v.7l-.932-.166c-.04.988-.2 2.047-.446 2.805l.128.063c.262-.358.485-.812.669-1.315h.581v1.897c-.597.167-1.1.303-1.37.358l.359.885a.34.34 0 00.183-.207c.295-.152.573-.295.828-.439v2.821h.136c.279 0 .574-.143.574-.223v-2.988a40.48 40.48 0 001.107-.637l-.032-.104c-.366.111-.725.223-1.075.327v-1.69h.972a5.837 5.837 0 01-.685 1.108l.103.08a4.633 4.633 0 001.355-1.466h.446c-.247 1.259-.9 2.565-1.833 3.49l.08.095c1.243-.852 2.096-2.16 2.494-3.585h.367c-.231 1.912-1.005 3.737-2.534 5.043l.08.088c1.944-1.171 2.884-3.028 3.243-5.131h.262c-.111 2.517-.318 4.255-.66 4.55-.105.095-.184.119-.351.119-.2 0-.813-.048-1.212-.087l-.008.127c.375.064.717.175.86.303.128.111.168.31.168.541.486 0 .83-.119 1.108-.406.47-.486.717-2.175.82-5.028.176-.024.287-.08.351-.143l-.74-.646zm4.807 2.654v-1.363h.94v1.363h-.94zm.94-2.957v1.363h-.94v-1.363h.94zm1.745 0v1.363h-1.004v-1.363h1.004zm-1.004 2.957v-1.363h1.004v1.363h-1.004zm1.044 3.107h-1.044v-1.418h1.76c.112 0 .192-.04.208-.127a9.09 9.09 0 00-.765-.678l-.43.574h-.773v-1.235h1.004v.342h.12c.262 0 .62-.175.629-.239v-3.147a.625.625 0 00.327-.167l-.781-.598-.375.398h-2.558l-.788-.319v.59c-.287-.27-.71-.605-.71-.605l-.43.573h-1.713l.064.232h.876v1.952h-.924l.064.231h.86v2.239c-.454.135-.82.247-1.036.295l.35.876a.323.323 0 00.176-.215c1.084-.598 1.88-1.108 2.423-1.442l-.032-.104c-.39.128-.781.247-1.148.367v-2.016h.909c.111 0 .191-.04.207-.128a10.53 10.53 0 00-.638-.653l-.366.55h-.112v-1.952h1.036a.275.275 0 00.144-.032v3.49h.12c.31 0 .62-.176.62-.255v-.263h.941v1.235h-1.721l.063.231h1.658v1.418h-2.462l.064.231h5.235c.111 0 .199-.04.215-.127a16.565 16.565 0 00-.813-.733l-.454.63zm3.523-1.984c-.334.67-1.075 1.594-1.816 2.168l.08.095a7.235 7.235 0 002.358-1.65c.191.033.247-.007.303-.087l-.925-.526zm2.94-1.753c.304.2.638.47.933.773-1.697.08-3.267.16-4.271.183 1.586-.533 3.443-1.37 4.351-1.96.183.064.319.016.366-.048l-.812-.653c-.271.24-.67.542-1.14.86-.988.033-1.92.064-2.558.072.79-.279 1.674-.685 2.176-1.004.167.048.279-.008.318-.087l-.51-.295c.972-.08 1.889-.183 2.614-.295.24.103.414.103.502.032l-.773-.773c-1.307.39-3.793.86-5.737 1.068l.024.143a54.357 54.357 0 002.733-.128c-.462.43-1.235.997-1.84 1.212-.088.04-.248.056-.248.056l.407.86a.405.405 0 00.159-.151 76.34 76.34 0 002.295-.43c-.916.565-2 1.123-2.86 1.41-.12.04-.351.063-.351.063l.414.87a.441.441 0 00.191-.192c.757-.088 1.467-.175 2.112-.263v2.032c0 .088-.032.135-.16.135-.159 0-.876-.047-.876-.047v.103c.366.056.526.143.637.247.096.096.136.271.152.486.892-.071 1.028-.398 1.028-.908v-2.16a80.697 80.697 0 001.809-.27c.247.262.438.55.55.804.836.438 1.163-1.307-1.562-1.824l-.072.08zm-.175 1.913c.646.47 1.443 1.259 1.714 1.928.86.486 1.25-1.299-1.642-2l-.072.072z" fill="#161823"/></svg>