<svg xmlns="http://www.w3.org/2000/svg" xmlns:xlink="http://www.w3.org/1999/xlink" width="483.77" height="362.84" viewBox="0 0 362.83 272.13"><path d="M0 272.13h362.83V0H0Z" fill="#fbfbfb"/><path stroke-width="1.56" stroke-miterlimit="10" fill="none" stroke="#161823" d="M29.13 165.66v-1.56m1.57 1.56v-1.56m1.56 1.56v-1.56m1.56 1.56v-1.56m1.56 1.56v-1.56m1.57 1.56v-1.56m1.56 1.56v-1.56m3.13 1.56v-1.56m3.13 1.56v-1.56m6.25 1.56v-1.56m3.13 1.56v-1.56m1.57 1.56v-1.56m1.56 1.56v-1.56m1.56 1.56v-1.56m1.56 1.56v-1.56m3.13 1.56v-1.56m1.57 1.56v-1.56m1.56 1.56v-1.56m1.57 1.56v-1.56m1.57 1.56v-1.56m1.56 1.56v-1.56m1.56 1.56v-1.56m-43.79 3.13v-1.57m9.38 1.57v-1.57m3.13 1.57v-1.57m1.56 1.57v-1.57m3.13 1.57v-1.57m1.57 1.57v-1.57m6.25 1.57v-1.57m3.13 1.57v-1.57m6.25 1.57v-1.57m9.39 1.57v-1.57m-43.79 3.13v-1.56m3.13 1.56v-1.56m1.56 1.56v-1.56m1.56 1.56v-1.56m3.13 1.56v-1.56m4.69 1.56v-1.56m4.7 1.56v-1.56m1.56 1.56v-1.56m10.94 1.56v-1.56m3.13 1.56v-1.56m3.13 1.56v-1.56m1.57 1.56v-1.56m1.57 1.56v-1.56m3.12 1.56v-1.56m-43.79 3.12v-1.56m3.13 1.56v-1.56m1.56 1.56v-1.56m1.56 1.56v-1.56m3.13 1.56v-1.56m3.13 1.56v-1.56m3.13 1.56v-1.56m4.69 1.56v-1.56m1.56 1.56v-1.56m4.7 1.56v-1.56m3.12 1.56v-1.56m4.69 1.56v-1.56m3.13 1.56v-1.56m1.57 1.56v-1.56m1.57 1.56v-1.56m3.12 1.56v-1.56m-43.79 3.13v-1.57m3.13 1.57v-1.57m1.56 1.57v-1.57m1.56 1.57v-1.57m3.13 1.57v-1.57m6.26 1.57v-1.57m6.25 1.57v-1.57m1.57 1.57v-1.57m3.13 1.57v-1.57m3.12 1.57v-1.57m4.69 1.57v-1.57m3.13 1.57v-1.57m1.57 1.57v-1.57m1.57 1.57v-1.57m3.12 1.57v-1.57m-43.79 3.13v-1.56m9.38 1.56v-1.56m9.39 1.56v-1.56m1.56 1.56v-1.56m4.69 1.56v-1.56m3.13 1.56v-1.56m1.56 1.56v-1.56m4.69 1.56v-1.56m9.39 1.56v-1.56m-43.79 3.13v-1.57m1.57 1.57v-1.57m1.56 1.57v-1.57m1.56 1.57v-1.57m1.56 1.57v-1.57m1.57 1.57v-1.57m1.56 1.57v-1.57m3.13 1.57v-1.57m3.13 1.57v-1.57m3.13 1.57v-1.57m3.12 1.57v-1.57m3.13 1.57v-1.57m3.13 1.57v-1.57m3.12 1.57v-1.57m3.13 1.57v-1.57m1.57 1.57v-1.57m1.56 1.57v-1.57m1.57 1.57v-1.57m1.57 1.57v-1.57m1.56 1.57v-1.57m1.56 1.57v-1.57m-31.28 3.13v-1.56m1.56 1.56v-1.56m1.57 1.56v-1.56m10.95 1.56v-1.56m1.56 1.56v-1.56m-28.15 3.12v-1.56m3.13 1.56v-1.56m1.56 1.56v-1.56m3.13 1.56v-1.56m1.56 1.56v-1.56m1.57 1.56v-1.56m6.25 1.56v-1.56m1.57 1.56v-1.56m3.12 1.56v-1.56m1.57 1.56v-1.56m3.13 1.56v-1.56m3.12 1.56v-1.56m1.56 1.56v-1.56m3.13 1.56v-1.56m4.7 1.56v-1.56m3.13 1.56v-1.56m1.56 1.56v-1.56m-43.79 3.13v-1.57m3.13 1.57v-1.57m1.56 1.57v-1.57m1.56 1.57v-1.57m4.7 1.57v-1.57m1.56 1.57v-1.57m4.69 1.57v-1.57m1.57 1.57v-1.57m1.56 1.57v-1.57m4.69 1.57v-1.57m1.57 1.57v-1.57m1.56 1.57v-1.57m1.56 1.57v-1.57m1.56 1.57v-1.57m3.13 1.57v-1.57m1.57 1.57v-1.57m1.56 1.57v-1.57m6.26 1.57v-1.57m-40.66 3.13v-1.56m6.25 1.56v-1.56m4.69 1.56v-1.56m4.7 1.56v-1.56m6.25 1.56v-1.56m1.57 1.56v-1.56m1.56 1.56v-1.56m4.69 1.56v-1.56m3.13 1.56v-1.56m4.7 1.56v-1.56m1.56 1.56v-1.56m-42.23 3.13v-1.57m6.25 1.57v-1.57m4.7 1.57v-1.57m1.56 1.57v-1.57m3.13 1.57v-1.57m4.69 1.57v-1.57m7.82 1.57v-1.57m4.69 1.57v-1.57m1.56 1.57v-1.57m3.13 1.57v-1.57m6.26 1.57v-1.57m-43.79 3.13v-1.56m1.57 1.56v-1.56m3.12 1.56v-1.56m1.56 1.56v-1.56m1.57 1.56v-1.56m1.56 1.56v-1.56m1.57 1.56v-1.56m6.25 1.56v-1.56m1.57 1.56v-1.56m1.56 1.56v-1.56m1.56 1.56v-1.56m1.57 1.56v-1.56m3.13 1.56v-1.56m4.68 1.56v-1.56m7.83 1.56v-1.56m1.57 1.56v-1.56M30.7 186v-1.57m6.25 1.57v-1.57m3.13 1.57v-1.57M43.2 186v-1.57m1.57 1.57v-1.57m1.56 1.57v-1.57M47.9 186v-1.57m1.56 1.57v-1.57m1.56 1.57v-1.57m1.57 1.57v-1.57m1.56 1.57v-1.57m3.13 1.57v-1.57m1.56 1.57v-1.57m4.69 1.57v-1.57M69.8 186v-1.57m1.56 1.57v-1.57m1.56 1.57v-1.57m-37.54 3.13v-1.57m3.13 1.57v-1.57m7.82 1.57v-1.57m7.82 1.57v-1.57m1.57 1.57v-1.57m3.12 1.57v-1.57m1.56 1.57v-1.57m3.13 1.57v-1.57m6.27 1.57v-1.57m1.56 1.57v-1.57m1.56 1.57v-1.57m-43.79 3.13v-1.56m3.13 1.56v-1.56m3.12 1.56v-1.56m6.26 1.56v-1.56m1.56 1.56v-1.56m1.57 1.56v-1.56m1.56 1.56v-1.56m1.57 1.56v-1.56m3.12 1.56v-1.56m1.57 1.56v-1.56m1.56 1.56v-1.56m3.13 1.56v-1.56m1.56 1.56v-1.56m1.56 1.56v-1.56m1.57 1.56v-1.56m1.56 1.56v-1.56m1.57 1.56v-1.56m1.56 1.56v-1.56m4.7 1.56v-1.56m-42.23 3.13v-1.57m3.13 1.57v-1.57m4.69 1.57v-1.57m1.56 1.57v-1.57m1.57 1.57v-1.57m3.12 1.57v-1.57m1.57 1.57v-1.57m3.13 1.57v-1.57m3.12 1.57v-1.57m3.13 1.57v-1.57m3.13 1.57v-1.57m1.56 1.57v-1.57m1.56 1.57v-1.57m6.26 1.57v-1.57m1.57 1.57v-1.57m3.13 1.57v-1.57m-39.1 3.13v-1.56m1.56 1.56v-1.56m1.56 1.56v-1.56m9.39 1.56v-1.56m1.56 1.56v-1.56m6.26 1.56v-1.56m12.51 1.56v-1.56m3.13 1.56v-1.56m1.57 1.56v-1.56m1.56 1.56v-1.56m-42.23 3.12v-1.56m9.38 1.56v-1.56m1.57 1.56v-1.56m4.69 1.56v-1.56m4.69 1.56v-1.56m1.56 1.56v-1.56m1.57 1.56v-1.56m1.56 1.56v-1.56m6.25 1.56v-1.56m3.13 1.56v-1.56m1.57 1.56v-1.56m1.56 1.56v-1.56m3.14 1.56v-1.56m-34.42 3.13v-1.57m1.57 1.57v-1.57m6.25 1.57v-1.57m1.57 1.57v-1.57m4.69 1.57v-1.57m1.56 1.57v-1.57m4.7 1.57v-1.57m1.56 1.57v-1.57m6.25 1.57v-1.57m1.57 1.57v-1.57m1.56 1.57v-1.57m3.14 1.57v-1.57m-39.1 3.13v-1.56m6.25 1.56v-1.56m1.56 1.56v-1.56m1.57 1.56v-1.56m1.56 1.56v-1.56m6.26 1.56v-1.56m1.56 1.56v-1.56m1.56 1.56v-1.56m3.13 1.56v-1.56m1.57 1.56v-1.56m1.56 1.56v-1.56m3.12 1.56v-1.56m1.57 1.56v-1.56m1.56 1.56v-1.56m1.57 1.56v-1.56m1.56 1.56v-1.56m1.57 1.56v-1.56m1.57 1.56v-1.56m-28.16 3.12v-1.56m1.56 1.56v-1.56m10.95 1.56v-1.56m1.57 1.56v-1.56m1.56 1.56v-1.56m3.12 1.56v-1.56m6.26 1.56v-1.56m1.57 1.56v-1.56m1.57 1.56v-1.56m1.56 1.56v-1.56m1.56 1.56v-1.56m-43.79 3.13v-1.56m1.57 1.56v-1.56m1.56 1.56v-1.56m1.56 1.56v-1.56m1.56 1.56v-1.56m1.57 1.56v-1.56m1.56 1.56v-1.56m3.13 1.56v-1.56m9.38 1.56v-1.56m6.26 1.56v-1.56m1.56 1.56v-1.56m1.56 1.56v-1.56m3.13 1.56v-1.56m3.13 1.56v-1.56m1.57 1.56v-1.56m3.13 1.56v-1.56m-42.23 3.12v-1.56m9.38 1.56v-1.56m3.13 1.56v-1.56m1.56 1.56v-1.56m3.13 1.56v-1.56m1.57 1.56v-1.56m1.56 1.56v-1.56m1.56 1.56v-1.56m9.38 1.56v-1.56m6.26 1.56v-1.56m1.57 1.56v-1.56m4.69 1.56v-1.56m-43.79 3.13v-1.57m3.13 1.57v-1.57m1.56 1.57v-1.57m1.56 1.57v-1.57m3.13 1.57v-1.57m4.69 1.57v-1.57m4.7 1.57v-1.57m7.82 1.57v-1.57m4.68 1.57v-1.57m1.57 1.57v-1.57m1.56 1.57v-1.57m1.57 1.57v-1.57m1.56 1.57v-1.57m3.14 1.57v-1.57m1.56 1.57v-1.57m1.56 1.57v-1.57m-43.79 3.13v-1.56m3.13 1.56v-1.56m1.56 1.56v-1.56m1.56 1.56v-1.56m3.13 1.56v-1.56m3.13 1.56v-1.56m1.56 1.56v-1.56m3.13 1.56v-1.56m3.13 1.56v-1.56m3.13 1.56v-1.56m1.56 1.56v-1.56m1.57 1.56v-1.56m3.12 1.56v-1.56m3.13 1.56v-1.56m3.13 1.56v-1.56m1.56 1.56v-1.56m1.57 1.56v-1.56m4.69 1.56v-1.56m-43.79 3.12v-1.56m3.13 1.56v-1.56m1.56 1.56v-1.56m1.56 1.56v-1.56m3.13 1.56v-1.56m3.13 1.56v-1.56m3.13 1.56v-1.56m3.13 1.56v-1.56m7.82 1.56v-1.56m1.56 1.56v-1.56m3.12 1.56v-1.56m4.7 1.56v-1.56m4.7 1.56v-1.56m3.12 1.56v-1.56m-43.79 3.13v-1.56m9.38 1.56v-1.56m6.26 1.56v-1.56m1.56 1.56v-1.56m4.69 1.56v-1.56m3.13 1.56v-1.56m6.25 1.56v-1.56m1.57 1.56v-1.56m3.13 1.56v-1.56m3.13 1.56v-1.56m3.13 1.56v-1.56m-42.23 3.12v-1.56m1.57 1.56v-1.56m1.56 1.56v-1.56m1.56 1.56v-1.56m1.56 1.56v-1.56m1.57 1.56v-1.56m1.56 1.56v-1.56m3.13 1.56v-1.56m4.69 1.56v-1.56m1.57 1.56v-1.56m3.12 1.56v-1.56m1.57 1.56v-1.56m6.25 1.56v-1.56m1.56 1.56v-1.56m1.57 1.56v-1.56m1.56 1.56v-1.56m7.83 1.56v-1.56"/><g data-name="Span"><symbol id="a"><path d="M.41.92v-.6h.03c.07 0 .1.02.1.03v.49h.24V.42H.7c.02.1.02.2.02.3.02 0 .03.02.03.03L.6.77C.6.4.62.17.24 0c.22.06.34.13.4.23v-.1c0-.09.02-.1.1-.1h.07C.93.02.97.04.97.1c0 .02 0 .03-.03.05v.13H.93A1.19 1.19 0 0 0 .88.15L.86.14H.78L.76.15V.4h.02V.34H.8c.07 0 .12.02.12.03v.47c.02 0 .03 0 .04.02L.84.94.77.87H.56L.4.92m-.1 0L.23.85H0V.81h.11V.55h-.1V.52h.1V.25L0 .22.07.06.1.09.4.3.26.29v.24h.11C.4.52.4.52.4.54l-.08.1-.05-.1H.26V.8h.12C.4.81.41.81.41.83l-.12.1Z"/></symbol><use xlink:href="#a" transform="matrix(20.6625 0 0 -20.6625 109.47 81.8)" fill="#161823"/></g><g data-name="Span"><symbol id="b"><path d="M.7.95A.59.59 0 0 0 .8.78C.9.72 1 .95.7.95M.5.96V.64L.31.6h.21C.54.4.6.22.76.09.8.05.9 0 .96.05.98.07.97.11.93.18l.03.18H.95L.88.23C.86.2.86.2.84.23.72.32.67.46.65.63l.28.03c.02 0 .03 0 .03.02L.81.77.74.67.65.64V.9C.67.9.68.92.68.93L.5.96M.2.98A1.2 1.2 0 0 0 0 .45h.01l.14.11V.03h.03C.24.03.3.06.3.07v.58c.02 0 .02.01.03.02L.26.7c.04.06.08.12.1.2C.4.9.4.9.42.92L.2.98Z"/></symbol><use xlink:href="#b" transform="matrix(20.6625 0 0 -20.6625 130.1 82.48)" fill="#161823"/></g><g data-name="Span"><symbol id="c"><path d="M.33.04H.27C.25.04.23.06.23.12v.4c0 .09.03.1.09.1v.03H0V.6C.07.61.09.61.09.54v-.4C.1.03.07.02.01.02V0h.5l.02.17H.5C.47.1.43.04.33.04Z"/></symbol><use xlink:href="#c" transform="matrix(22.7289 0 0 -22.7289 156.77 79.97)" fill="#161823"/></g><g data-name="Span"><symbol id="d"><path d="M.5.09.36.48A.53.53 0 0 0 .25.44L.1.1C.07.04.05.04 0 .03V0a2.53 2.53 0 0 0 .22 0v.03C.18.03.13.04.15.08l.03.08.02.01h.14l.03-.1C.4.04.35.04.3.03V0a8.43 8.43 0 0 0 .29 0v.03C.55.03.52.04.5.1M.22.2H.2l.06.17L.34.2H.22Z"/></symbol><use xlink:href="#d" transform="matrix(22.7289 0 0 -22.7289 163.34 75.42)" fill="#161823"/></g><g data-name="Span"><symbol id="e"><path d="M.4.13V.5c0 .06.01.1.05.1h.02C.55.6.59.58.6.5h.04a1.17 1.17 0 0 0-.01.15H.26a4.11 4.11 0 0 0-.24 0c0-.04 0-.1-.02-.14h.04C.06.57.1.6.17.6H.2C.26.6.27.57.27.5V.12C.26.04.24.04.16.04V0A7.65 7.65 0 0 0 .5 0v.03C.42.03.4.04.4.13Z"/></symbol><use xlink:href="#e" transform="matrix(22.7289 0 0 -22.7289 173.86 79.97)" fill="#161823"/></g><g data-name="Span"><symbol id="f"><path d="M.31.37H.23v.19C.23.58.25.6.27.6h.09C.43.6.46.57.48.5h.04L.51.65H0V.6C.08.61.09.61.09.53v-.4C.1.04.08.04.01.03V0h.52c.02.05.02.12.03.17H.52C.5.1.45.04.37.04h-.1C.25.04.23.07.23.1v.23h.08C.38.32.41.3.41.26h.04v.17H.4C.4.38.38.37.3.37Z"/></symbol><use xlink:href="#f" transform="matrix(22.7289 0 0 -22.7289 185.02 84.89)" fill="#161823"/></g><g data-name="Span"><symbol id="g"><path d="M.43.09C.46.06.46.04.41.03V0a8.11 8.11 0 0 0 .3 0v.03C.65.03.63.05.6.1L.44.33C.42.36.42.37.44.39l.13.18C.6.6.63.6.67.6v.04a4.01 4.01 0 0 0-.21 0V.6C.5.61.52.6.5.56A.92.92 0 0 0 .4.42C.4.4.4.42.37.43L.3.56C.28.59.28.6.33.6v.04a7.2 7.2 0 0 0-.3 0V.6C.07.61.1.61.13.55l.14-.2C.3.31.3.3.27.28L.12.1C.1.04.05.03.01.02V0a4.7 4.7 0 0 0 .23 0v.03C.2.03.18.05.2.08l.1.18C.33.27.34.27.35.25L.43.09Z"/></symbol><use xlink:href="#g" transform="matrix(22.7289 0 0 -22.7289 195.91 79.94)" fill="#161823"/></g><g data-name="Span"><symbol id="h"><path d="M.46.78C.39.47.2.18 0 0h.01c.25.1.43.28.52.45A.9.9 0 0 1 .8 0c.02.08.08.15.18.17v.01a.87.87 0 0 0-.44.6C.51.85.42.92.33.97A1.5 1.5 0 0 1 .26.82C.33.82.42.8.46.78Z"/></symbol><use xlink:href="#h" transform="matrix(20.6625 0 0 -20.6625 218.2 81.88)" fill="#161823"/></g><g data-name="Span"><symbol id="i"><path d="M.1.95H.08a.56.56 0 0 0 .14-.2c.14-.08.23.2-.13.2M.2.81 0 .83V0h.03c.05 0 .11.03.11.04v.73C.18.77.2.8.2.81m.47.04h-.3L.38.83h.3V.18C.67.16.66.16.64.16H.49A.47.47 0 0 0 .59.1C.63.08.63.05.64 0 .8.02.83.07.83.16V.8l.02.03-.13.1L.67.85Z"/></symbol><use xlink:href="#i" transform="matrix(20.6625 0 0 -20.6625 240.4 81.84)" fill="#161823"/></g><g data-name="Span"><symbol id="j"><path d="M.08.94A.52.52 0 0 0 .17.75C.3.68.4.92.08.94m.2-.31L.3.64l-.1.1L.13.68H0V.65h.14v-.4C.14.23.13.2.08.18l.1-.14C.2.04.21.07.22.1l.17.23L.27.29v.35M.83.8.78.73V.9C.81.9.82.92.82.93L.65.95V.7H.56v.2C.59.9.59.9.6.92L.43.95V.7H.3V.68h.12V.42H.28V.39h.13A.5.5 0 0 0 .24 0h.01c.2.07.29.2.3.38h.1V0h.02c.05 0 .11.03.11.05v.34h.16L.97.4.85.52.78.42v.26h.13l.03.01L.83.8M.56.43v.25h.09V.43h-.1Z"/></symbol><use xlink:href="#j" transform="matrix(20.6625 0 0 -20.6625 259.66 81.88)" fill="#161823"/></g><g data-name="Span"><symbol id="k"><path d="M.84.87.77.77H.59C.66.83.65.96.41.96.44.9.48.85.49.78H.26L.08.83v-.3C.08.34.08.15 0 0c.22.14.23.36.23.52v.23h.7l.03.01-.12.11M.87.66.7.69A.9.9 0 0 0 .63.35L.65.34c.05.04.1.1.13.16A.4.4 0 0 0 .82.35c.1-.08.2.1-.02.19l.04.1c.02 0 .03 0 .03.02M.44.67.28.7C.28.56.25.41.2.3h.02c.06.05.1.12.13.2C.37.47.38.43.37.4c.08-.1.2.06 0 .15C.4.58.4.6.4.65c.03 0 .04 0 .04.02M.77.36.7.26H.63v.45C.65.7.66.7.66.73L.49.75V.27H.25V.24H.5V.07H.16V.04h.78c.02 0 .03 0 .03.02L.84.17.77.07H.63v.17h.23c.02 0 .03 0 .03.02l-.12.1Z"/></symbol><use xlink:href="#k" transform="matrix(20.6625 0 0 -20.6625 280.12 81.95)" fill="#161823"/></g><g data-name="Span"><symbol id="l"><path d="M.64.1C.64.06.62.03.6.02H.56V0h.21v.02H.74L.71.08V.1l.06.49c0 .03.02.04.05.04h.02l.02.01v.02H.73l-.3-.5L.42.12v.01l-.1.51H.16V.63H.2L.23.6V.58L.09.09C.09.07.07.04.04.04H0V0a2.8 2.8 0 0 0 .18 0v.02H.14L.12.08V.1l.13.44.1-.52L.36 0l.02.01.32.53L.64.09Z"/></symbol><symbol id="m"><path d="M0 .17C0 .12.01 0 .14 0a.2.2 0 0 1 .1.02.3.3 0 0 1 .15.27C.39.36.37.45.25.45.08.45 0 .29 0 .17m.08.01c0 .09.04.24.15.24C.26.42.27.4.29.37A.36.36 0 0 0 .26.1a.13.13 0 0 0-.1-.06C.13.04.07.07.07.18Z"/></symbol><symbol id="n"><path d="M.26.13V.1A.27.27 0 0 1 .25.04C.25.03.25 0 .29 0c.06 0 .1.04.13.1H.39L.34.06.33.07v.06l.11.46a6.58 6.58 0 0 0 .01.12.71.71 0 0 0-.14-.03V.66h.04C.36.65.37.64.37.61V.57L.31.4a.09.09 0 0 1-.08.06C.14.45 0 .3 0 .15 0 .08.01 0 .1 0c.05 0 .1.04.16.13m0 .07C.21.11.16.05.12.05.09.05.08.1.08.16c0 .1.08.25.17.25C.29.41.3.36.3.33A.33.33 0 0 0 .26.2Z"/></symbol><symbol id="o"><path d="M.08.2c.26.06.26.14.26.17S.32.46.24.46C.08.45 0 .28 0 .15 0 .07.04 0 .12 0 .2 0 .25.04.31.11L.29.13C.23.07.2.06.16.06S.08.08.08.18V.2m.2.17C.27.29.16.26.08.25c.04.14.1.17.13.17C.26.42.27.4.27.38Z"/></symbol><symbol id="p"><path d="m.13.3.01.03.02.1-.02.02L.02.43V.41h.04L.07.37V.33L0 .08V.03C0 0 0 0 .04 0c.03 0 .03.04.04.08L.11.2c.05.09.1.18.13.18L.26.37.3.35C.32.35.34.38.34.4.34.42.33.45.29.45.24.45.18.39.14.29Z"/></symbol><symbol id="q"><path d="M.34.13.38.3.4.37C.4.43.37.45.33.45.28.45.23.43.14.32v.01a.4.4 0 0 1 .03.1L.15.45.02.43V.41h.04L.08.37.07.33 0 .08V.03C0 0 .01 0 .04 0 .08 0 .08.04.1.08l.04.17C.2.33.26.39.29.39.3.39.32.39.32.35A.4.4 0 0 0 .3.28L.27.12A.52.52 0 0 1 .25.04C.25.01.25 0 .29 0c.05 0 .1.03.14.1H.41L.34.06v.07Z"/></symbol><use xlink:href="#l" transform="matrix(13.1508 0 0 -13.1508 161.2 107.4)" fill="#161823"/><use xlink:href="#m" transform="matrix(13.1508 0 0 -13.1508 172.6 107.46)" fill="#161823"/><use xlink:href="#n" transform="matrix(13.1508 0 0 -13.1508 178.59 107.46)" fill="#161823"/><use xlink:href="#o" transform="matrix(13.1508 0 0 -13.1508 185.04 107.46)" fill="#161823"/><use xlink:href="#p" transform="matrix(13.1508 0 0 -13.1508 190.4 107.46)" fill="#161823"/><use xlink:href="#q" transform="matrix(13.1508 0 0 -13.1508 195.1 107.46)" fill="#161823"/></g><g data-name="Span"><symbol id="r"><path d="M.1.08C.1.05.08.04.04.03H0V0h.43L.5.17H.47C.44.11.4.04.32.04h-.1C.18.04.17.06.17.08v.01l.1.48c0 .03.01.04.05.05h.03v.03H.13V.62h.03C.2.62.2.6.2.57L.1.07Z"/></symbol><use xlink:href="#r" transform="matrix(13.1508 0 0 -13.1508 204.27 107.35)" fill="#161823"/></g><g data-name="Span"><symbol id="s"><path d="M.19.17h.19L.4.08V.04L.36.03H.34L.32 0A7.5 7.5 0 0 0 .5 0l.01.02C.48.03.47.05.47.09L.4.45C.4.47.39.48.38.48S.35.48.34.45L.08.07C.06.04.04.03.01.03L0 0h.16v.02H.15L.1.05v.02l.08.1m.19.05H.24C.22.2.23.2.23.22L.34.4.39.2Z"/></symbol><use xlink:href="#s" transform="matrix(13.1508 0 0 -13.1508 206.94 104.72)" fill="#161823"/></g><g data-name="Span"><symbol id="t"><path d="M.12.65.05.66 0 .53h.03C.06.58.08.6.13.6h.08C.25.6.25.6.25.57l-.1-.5L.1.04H.06V0H.3v.03H.28C.23.03.22.05.23.08l.1.49C.32.6.33.6.37.6h.05C.48.6.5.58.52.5l.03.01C.53.58.53.62.53.66L.45.65H.12Z"/></symbol><use xlink:href="#t" transform="matrix(13.1508 0 0 -13.1508 213.36 107.35)" fill="#161823"/></g><g data-name="Span"><symbol id="u"><path d="M.54.65a.2.2 0 0 0-.05 0H.13V.62h.03C.19.62.2.6.2.59V.57L.1.07C.1.05.08.03.04.03H.01L0 0h.45l.07.17H.49C.46.1.41.04.34.04H.2C.19.04.18.04.18.06v.01l.05.26h.12C.38.33.39.32.39.3V.26h.02a.85.85 0 0 0 .04.17H.42V.41C.4.38.38.36.35.36H.23l.04.21C.27.6.3.61.32.61h.1C.49.6.5.57.5.5h.02l.01.15Z"/></symbol><use xlink:href="#u" transform="matrix(13.1508 0 0 -13.1508 217 110.17)" fill="#161823"/></g><g data-name="Span"><symbol id="v"><path d="M.13.63.14.62C.16.62.2.61.22.55l.1-.2V.32L.31.29.14.11C.11.08.07.03.02.03H0V0h.19v.02L.17.04C.16.03.15.03.15.05c0 0 0 .02.02.03l.16.18.02.01.1-.2.01-.02C.46.04.46.03.43.03H.4V0a7.63 7.63 0 0 0 .22 0v.02C.58.04.55.08.53.1l-.1.21-.01.03.02.04.16.17C.63.6.66.62.72.62v.03H.54V.62h.04V.6L.56.57.41.4.39.39.3.58v.04h.04v.03a7.17 7.17 0 0 0-.21 0V.63Z"/></symbol><use xlink:href="#v" transform="matrix(13.1508 0 0 -13.1508 222.17 107.35)" fill="#161823"/></g><g data-name="Span"><symbol id="w"><path d="m.14.33.02.1s0 .02-.02.02L0 .43V.41h.04C.07.4.07.38.07.37V.33L.01.13 0 .02C0 .01.01 0 .04 0c.05 0 .1.03.14.1H.16L.09.06v.07l.05.2M.09.58C.1.55.12.53.14.53.17.53.2.55.2.58.19.61.17.63.14.63A.05.05 0 0 1 .1.58Z"/></symbol><use xlink:href="#w" transform="matrix(13.1508 0 0 -13.1508 235.09 107.46)" fill="#161823"/><use xlink:href="#q" transform="matrix(13.1508 0 0 -13.1508 238.48 107.46)" fill="#161823"/></g><g data-name="Span"><symbol id="x"><path d="M.33.44H.25C.15.45 0 .3 0 .15 0 .08.01 0 .1 0c.05 0 .1.06.17.14L.25.1a.2.2 0 0 1 0-.06C.24.03.24 0 .28 0c.06 0 .1.04.12.1L.34.06.32.07l.01.06.07.31H.33M.28.23C.23.13.16.06.12.06.1.06.08.1.08.16c0 .1.08.26.18.26C.28.42.3.42.32.4L.28.23Z"/></symbol><use xlink:href="#x" transform="matrix(13.1508 0 0 -13.1508 248.43 107.46)" fill="#161823"/></g><g data-name="Span"><symbol id="y"><path d="M.68.57C.68.6.7.62.74.63h.03v.03H.56V.63H.6C.62.63.63.6.63.58V.57L.56.19.55.16.5.2.27.66H.13V.64L.14.63C.17.63.2.59.2.56L.1.1C.1.07.09.04.05.04H.02L0 .03V0h.21l.01.02H.18L.15.09V.1l.07.35C.22.48.22.5.24.5L.26.47.51.02.55 0s.02.01.02.03l.1.54Z"/></symbol><symbol id="z"><path d="m.42.36.01.06C.43.44.43.45.4.45S.36.4.35.37L.32.26C.24.13.19.06.14.06.13.06.11.07.11.1l.01.06.05.16.02.1c0 .02 0 .03-.04.03C.1.45.05.42 0 .35h.02L.1.39V.32L.05.14A.26.26 0 0 1 .04.08C.04.02.07 0 .1 0c.08 0 .13.06.2.17V.11A.44.44 0 0 1 .27.04C.28.01.28 0 .3 0c.05 0 .1.03.14.1H.43L.36.06v.07l.06.23Z"/></symbol><symbol id="A"><path d="M.09.44H.03C.01.44.01.43 0 .42V.4h.08L.02.13 0 .05C0 0 .02 0 .05 0 .1 0 .16.04.2.1.2.12.18.12.17.12.13.07.11.06.1.06L.08.07l.01.07.06.26h.1C.26.4.27.43.25.44h-.1l.02.04.01.06c0 .02 0 .03-.04.03C.11.57.11.53.1.5L.09.44Z"/></symbol><symbol id="B"><path d="M.12 0h.01c.1 0 .16.05.16.13 0 .05-.03.1-.12.15C.14.3.13.32.13.34c0 .04.02.08.06.08C.22.42.23.4.24.39.24.36.26.34.28.34c.03 0 .04.01.04.03C.32.4.27.45.2.45.12.45.06.39.06.32.06.28.1.24.16.2.2.16.2.13.2.1.21.06.17.04.13.04.1.03.09.03.08.06.08.08.07.11.04.11A.04.04 0 0 1 0 .08C0 .04.05 0 .12 0Z"/></symbol><symbol id="C"><path d="m.09.08.04.17c.06.08.12.14.16.14C.3.39.32.39.32.35a.3.3 0 0 0 0-.07L.27.12A.52.52 0 0 1 .26.04C.26.01.27 0 .3 0c.05 0 .1.03.14.1H.42L.35.06v.07L.4.3v.07C.4.43.38.45.34.45.29.45.24.43.14.32L.2.6l.03.1-.01.02A.71.71 0 0 0 .07.68V.66h.04C.12.65.13.64.13.61V.57L0 .08V.03C0 0 0 0 .04 0S.08.04.1.08Z"/></symbol><symbol id="D"><path d="M.2.6c0 .06.02.1.02.1H.2A.71.71 0 0 0 .07.69V.66H.1C.1.65.12.64.12.61V.57L.01.13A.5.5 0 0 1 0 .04C0 .03 0 0 .04 0 .1 0 .14.03.2.1L.17.12C.14.08.1.06.09.06L.08.07l.01.07.1.45Z"/></symbol><use xlink:href="#y" transform="matrix(13.1508 0 0 -13.1508 257.25 107.46)" fill="#161823"/><use xlink:href="#z" transform="matrix(13.1508 0 0 -13.1508 266.96 107.46)" fill="#161823"/><use xlink:href="#A" transform="matrix(13.1508 0 0 -13.1508 274.03 107.46)" fill="#161823"/><use xlink:href="#B" transform="matrix(13.1508 0 0 -13.1508 277.51 107.46)" fill="#161823"/><use xlink:href="#C" transform="matrix(13.1508 0 0 -13.1508 282.55 107.46)" fill="#161823"/><use xlink:href="#o" transform="matrix(13.1508 0 0 -13.1508 289.3 107.46)" fill="#161823"/><use xlink:href="#D" transform="matrix(13.1508 0 0 -13.1508 294.7 107.46)" fill="#161823"/><use xlink:href="#D" transform="matrix(13.1508 0 0 -13.1508 298.2 107.46)" fill="#161823"/></g><path d="M334.5 129.74v-13.2h-8.4v-2.4h8.4v-8.4h-1.2v7.2h-7.2v-2.4h4.8v-4.8h-1.2v3.6h-4.8v3.6h-3.6v3.6h-3.6v3.6h-3.6v4.8h-3.6v1.2h4.8v-4.8h2.4v7.2h-7.2v1.2h8.4v-8.4h2.4v8.4h13.2m-1.2-1.2h-10.8v-7.2h2.4v4.8h6v-6h-4.8v-2.4h7.2v10.8m-3.6-3.6h-3.6v-3.6h3.6v3.6m-4.8-4.8h-2.4v-2.4h2.4v2.4m-3.6 0h-2.4v-2.4h2.4v2.4m3.6-3.6h-2.4v-2.4h2.4v2.4" fill="#dc3023"/><path stroke-width=".4" stroke-linecap="square" stroke-miterlimit="10" fill="none" stroke="#dc3023" d="M334.5 129.74v-13.2h-8.4v-2.4h8.4v-8.4h-1.2v7.2h-7.2v-2.4h4.8v-4.8h-1.2v3.6h-4.8v3.6h-3.6v3.6h-3.6v3.6h-3.6v4.8h-3.6v1.2h4.8v-4.8h2.4v7.2h-7.2v1.2h8.4v-8.4h2.4v8.4h13.2m-1.2-1.2h-10.8v-7.2h2.4v4.8h6v-6h-4.8v-2.4h7.2v10.8m-3.6-3.6h-3.6v-3.6h3.6v3.6m-4.8-4.8h-2.4v-2.4h2.4v2.4m-3.6 0h-2.4v-2.4h2.4v2.4m3.6-3.6h-2.4v-2.4h2.4v2.4"/><path d="M329.7 105.74h1.2v-24h-1.2v24m3.6 0h1.2v-24h-1.2v24" fill="#dc3023"/><path stroke-width=".4" stroke-linecap="square" stroke-miterlimit="10" fill="none" stroke="#dc3023" d="M329.7 105.74h1.2v-24h-1.2v24m3.6 0h1.2v-24h-1.2v24"/><path d="M329.7 81.74h1.2v-24h-1.2v24m3.6 0h1.2v-24h-1.2v24" fill="#dc3023"/><path stroke-width=".4" stroke-linecap="square" stroke-miterlimit="10" fill="none" stroke="#dc3023" d="M329.7 81.74h1.2v-24h-1.2v24m3.6 0h1.2v-24h-1.2v24"/><clipPath id="E"><path transform="matrix(1 0 0 -1 28.35 129.74)" d="M0 12V-2h282.15v14ZM282.15-2"/></clipPath><g clip-path="url(#E)"><path d="M28.35 124.94v1.2h24v-1.2h-24m0 3.6v1.2h24v-1.2h-24" fill="#dc3023"/><path stroke-width=".4" stroke-linecap="square" stroke-miterlimit="10" fill="none" stroke="#dc3023" d="M28.35 124.94v1.2h24v-1.2h-24m0 3.6v1.2h24v-1.2h-24"/><path d="M52.35 124.94v1.2h24v-1.2h-24m0 3.6v1.2h24v-1.2h-24" fill="#dc3023"/><path stroke-width=".4" stroke-linecap="square" stroke-miterlimit="10" fill="none" stroke="#dc3023" d="M52.35 124.94v1.2h24v-1.2h-24m0 3.6v1.2h24v-1.2h-24"/><path d="M76.35 124.94v1.2h24v-1.2h-24m0 3.6v1.2h24v-1.2h-24" fill="#dc3023"/><path stroke-width=".4" stroke-linecap="square" stroke-miterlimit="10" fill="none" stroke="#dc3023" d="M76.35 124.94v1.2h24v-1.2h-24m0 3.6v1.2h24v-1.2h-24"/><path d="M100.35 124.94v1.2h24v-1.2h-24m0 3.6v1.2h24v-1.2h-24" fill="#dc3023"/><path stroke-width=".4" stroke-linecap="square" stroke-miterlimit="10" fill="none" stroke="#dc3023" d="M100.35 124.94v1.2h24v-1.2h-24m0 3.6v1.2h24v-1.2h-24"/><path d="M124.35 124.94v1.2h24v-1.2h-24m0 3.6v1.2h24v-1.2h-24" fill="#dc3023"/><path stroke-width=".4" stroke-linecap="square" stroke-miterlimit="10" fill="none" stroke="#dc3023" d="M124.35 124.94v1.2h24v-1.2h-24m0 3.6v1.2h24v-1.2h-24"/><path d="M148.35 124.94v1.2h24v-1.2h-24m0 3.6v1.2h24v-1.2h-24" fill="#dc3023"/><path stroke-width=".4" stroke-linecap="square" stroke-miterlimit="10" fill="none" stroke="#dc3023" d="M148.35 124.94v1.2h24v-1.2h-24m0 3.6v1.2h24v-1.2h-24"/><path d="M172.35 124.94v1.2h24v-1.2h-24m0 3.6v1.2h24v-1.2h-24" fill="#dc3023"/><path stroke-width=".4" stroke-linecap="square" stroke-miterlimit="10" fill="none" stroke="#dc3023" d="M172.35 124.94v1.2h24v-1.2h-24m0 3.6v1.2h24v-1.2h-24"/><path d="M196.35 124.94v1.2h24v-1.2h-24m0 3.6v1.2h24v-1.2h-24" fill="#dc3023"/><path stroke-width=".4" stroke-linecap="square" stroke-miterlimit="10" fill="none" stroke="#dc3023" d="M196.35 124.94v1.2h24v-1.2h-24m0 3.6v1.2h24v-1.2h-24"/><path d="M220.35 124.94v1.2h24v-1.2h-24m0 3.6v1.2h24v-1.2h-24" fill="#dc3023"/><path stroke-width=".4" stroke-linecap="square" stroke-miterlimit="10" fill="none" stroke="#dc3023" d="M220.35 124.94v1.2h24v-1.2h-24m0 3.6v1.2h24v-1.2h-24"/><path d="M244.35 124.94v1.2h24v-1.2h-24m0 3.6v1.2h24v-1.2h-24" fill="#dc3023"/><path stroke-width=".4" stroke-linecap="square" stroke-miterlimit="10" fill="none" stroke="#dc3023" d="M244.35 124.94v1.2h24v-1.2h-24m0 3.6v1.2h24v-1.2h-24"/><path d="M268.35 124.94v1.2h24v-1.2h-24m0 3.6v1.2h24v-1.2h-24" fill="#dc3023"/><path stroke-width=".4" stroke-linecap="square" stroke-miterlimit="10" fill="none" stroke="#dc3023" d="M268.35 124.94v1.2h24v-1.2h-24m0 3.6v1.2h24v-1.2h-24"/><path d="M292.35 124.94v1.2h24v-1.2h-24m0 3.6v1.2h24v-1.2h-24" fill="#dc3023"/><path stroke-width=".4" stroke-linecap="square" stroke-miterlimit="10" fill="none" stroke="#dc3023" d="M292.35 124.94v1.2h24v-1.2h-24m0 3.6v1.2h24v-1.2h-24"/><path d="M316.35 124.94v1.2h24v-1.2h-24m0 3.6v1.2h24v-1.2h-24" fill="#dc3023"/><path stroke-width=".4" stroke-linecap="square" stroke-miterlimit="10" fill="none" stroke="#dc3023" d="M316.35 124.94v1.2h24v-1.2h-24m0 3.6v1.2h24v-1.2h-24"/></g><g data-name="Span"><symbol id="F"><path d="m.65.67-.1.05-.1-.19h.01a4 4 0 0 1 .18.14M.14.7H.13A.37.37 0 0 0 .21.54C.3.48.36.64.14.71m.28.06H.27C.33.8.33.91.13.93V.92l.1-.14H.12L0 .8V.4h.02C.06.4.09.42.09.43v.03h.58V.41h.02c.03 0 .07.02.07.03v.3H.8L.7.83.66.77H.48l.14.1.04.01-.14.05A3.59 3.59 0 0 0 .45.77H.42M.1.74h.25V.5H.09v.25m.58 0V.5H.42v.25h.25M.56.35V.24H.2v.11h.35M.2.03v.03h.35V.01h.02l.08.02v.3L.7.37.6.43.55.38H.2L.1.42V0h.01C.15 0 .2.02.2.03m0 .18h.35V.09H.2v.12Z"/></symbol><use xlink:href="#F" transform="matrix(10.9091 0 0 -10.9091 303.07 172.21)" fill="#161823"/></g><g data-name="Span"><symbol id="G"><path d="M.42.92H.4A.46.46 0 0 0 .48.74C.57.67.65.84.42.92m-.3.01H.1A.4.4 0 0 0 .18.77C.26.7.35.88.1.93M.8.78.78.71h-.1l.15.15c.02 0 .03 0 .04.02L.72.93A3.21 3.21 0 0 0 .65.71H.37L.38.68h.19V.51H.4V.48h.17V.3H.34V.27h.23V0h.02c.04 0 .07.02.07.03v.24h.25C.93.27.94.27.94.3l-.1.08L.8.3H.66v.18h.2l.02.01-.1.09L.73.5H.66v.17H.9L.92.7l-.1.08M.24.03v.43A.36.36 0 0 0 .3.33C.38.28.46.44.24.5v.02l.1.16.04.01-.09.09L.24.72H0L.02.69h.22A1.13 1.13 0 0 0 0 .29h.01L.15.4V0h.02C.2 0 .24.02.24.03Z"/></symbol><use xlink:href="#G" transform="matrix(10.9091 0 0 -10.9091 313 172.24)" fill="#161823"/></g><g data-name="Span"><symbol id="H"><path d="M.64.37H.63a.83.83 0 0 0 .2-.28C.94.02 1 .24.63.37M.38.3.24.38A1.04 1.04 0 0 0 0 .05h.01C.12.1.24.17.32.3h.05m.1.59L.34.93A2.95 2.95 0 0 0 .26.75H.02V.72h.23A3.16 3.16 0 0 0 .14.49.34.34 0 0 1 .09.47L.2.4l.03.04h.23V.12L.42.11H.3V.1C.35.1.37.08.4.07V0c.12.01.14.05.14.12v.32h.3l.02.01-.1.1L.7.47H.55V.6C.57.6.58.61.58.63H.45V.48H.23l.12.25H.9c.02 0 .03 0 .03.02L.8.84.75.73H.37l.05.13C.45.87.46.87.47.9Z"/></symbol><use xlink:href="#H" transform="matrix(10.9091 0 0 -10.9091 323.9 172.22)" fill="#161823"/></g><g data-name="Span"><symbol id="I"><path d="M0 .47C0 .45.04.43.06.43.07.43.1.45.1.47V.5L.07.52c0 .02.03.06.1.06.05 0 .1-.03.1-.12C.27.39.25.34.19.28L.1.21C.01.1 0 .06 0 0h.34a1 1 0 0 1 .02.16H.33C.31.1.3.06.26.06H.08c0 .06.07.12.08.13l.1.1c.05.05.1.1.1.17 0 .1-.09.15-.17.15C.08.61 0 .53 0 .47Z"/></symbol><symbol id="J"><path d="M.19 0c.08 0 .2.08.2.31A.4.4 0 0 1 .3.56a.15.15 0 0 1-.1.05C.1.62 0 .5 0 .3 0 .2.03.1.09.04A.14.14 0 0 1 .19 0m0 .59L.24.57C.27.54.3.47.3.33.3.24.3.18.28.13.26.04.2.03.19.03c-.1 0-.1.18-.1.26 0 .25.06.3.1.3Z"/></symbol><use xlink:href="#I" transform="matrix(12.0001 0 0 -12.0001 248.33 189.92)" fill="#161823"/><use xlink:href="#J" transform="matrix(12.0001 0 0 -12.0001 253.75 190.02)" fill="#161823"/><use xlink:href="#I" transform="matrix(12.0001 0 0 -12.0001 259.49 189.92)" fill="#161823"/><use xlink:href="#I" transform="matrix(12.0001 0 0 -12.0001 265.07 189.92)" fill="#161823"/></g><g data-name="Span"><symbol id="K"><path d="M.25.94A1.26 1.26 0 0 0 0 .52L.01.5c.1.05.18.13.26.24h.2v-.2H.3L.18.6V.29H0L.01.26h.46V0H.5c.05 0 .08.02.09.03v.23H.9l.03.01-.11.1L.76.28H.58v.24h.26l.03.01-.1.09L.7.55H.58v.2h.3L.9.76l-.1.1L.73.77H.29l.06.1C.37.86.38.87.39.88L.25.94M.47.3h-.2v.24h.2V.29Z"/></symbol><use xlink:href="#K" transform="matrix(10.9091 0 0 -10.9091 273.38 190.82)" fill="#161823"/></g><g data-name="Span"><symbol id="L"><path d="M.17.59C.21.59.25.56.25.49.25.46.2.38.1.35V.32h.05C.21.32.28.31.28.2.28.06.2.03.16.03.1.04.1.07.09.09L.04.1C.02.1 0 .08 0 .07 0 .03.08 0 .14 0c.12 0 .23.08.23.2C.37.33.29.37.23.38.3.4.33.45.33.5A.1.1 0 0 1 .3.58a.15.15 0 0 1-.1.04C.03.62 0 .52 0 .49 0 .48.01.46.04.46S.08.49.08.5c0 .06.07.08.1.08Z"/></symbol><use xlink:href="#L" transform="matrix(12.0001 0 0 -12.0001 287.46 190.02)" fill="#161823"/></g><g data-name="Span"><symbol id="M"><path d="M.64.82v-.2H.3v.2h.35M.2.85V.52C.2.33.17.15 0 .01L.01 0C.2.1.26.22.28.36h.36V.14C.64.12.64.1.62.1L.47.12V.11C.53.1.55.09.57.07.6.06.6.03.6 0c.13.01.14.06.14.13V.8l.04.02-.1.08L.63.84H.31L.2.9V.84M.64.6V.4H.3v.2h.35Z"/></symbol><use xlink:href="#M" transform="matrix(10.9091 0 0 -10.9091 296 190.83)" fill="#161823"/></g><g data-name="Span"><symbol id="N"><path d="M.2.12v.49L0 .51C0 .5 0 .49.02.48L.1.51C.12.5.12.48.12.45V.12C.12.04.1.04.02.03V0H.3v.03C.23.03.2.04.2.13Z"/></symbol><use xlink:href="#N" transform="matrix(12.0001 0 0 -12.0001 310.49 189.92)" fill="#161823"/><use xlink:href="#L" transform="matrix(12.0001 0 0 -12.0001 315.53 190.02)" fill="#161823"/></g><g data-name="Span"><symbol id="O"><path d="M.52.45V.12H.1v.33h.42m0 .03H.1v.31h.42V.48M0 .82V0h.02C.06 0 .1.02.1.04V.1h.42V0h.02c.04 0 .08.03.09.04v.73L.67.8l-.1.09L.5.82H.1L0 .86V.82Z"/></symbol><use xlink:href="#O" transform="matrix(10.9091 0 0 -10.9091 325.67 190.75)" fill="#161823"/></g><g data-name="Span"><symbol id="P"><path d="M.4.39.3.44h.34V.41h.02c.03 0 .08.02.08.03v.22c.02 0 .03 0 .04.02l-.1.07L.63.7H.29L.2.73l.04.05h.59C.85.78.86.78.86.8l-.1.09L.7.8H.27L.3.86c.02 0 .03 0 .04.02L.2.93A.93.93 0 0 0 0 .58L.01.56C.08.6.13.65.2.71V.4l.08.01a.73.73 0 0 0-.2-.27.7.7 0 0 1 .2.14C.33.23.37.18.42.15.3.08.16.05.01.02V0c.18.01.34.05.47.1C.58.05.7.02.84 0c0 .05.03.08.07.1C.8.12.67.13.56.16A.6.6 0 0 1 .73.3l.04.01-.09.08L.62.34H.34l.03.04.04.01m.06-.2a.45.45 0 0 0-.17.1l.02.02h.3A.54.54 0 0 0 .46.18m.16.49V.59H.28v.08h.35m0-.2H.28v.09h.35V.47Z"/></symbol><use xlink:href="#P" transform="matrix(7.9701 0 0 -7.9701 270.31 209.96)" fill="#161823"/></g><g data-name="Span"><symbol id="Q"><path d="M.82.1.75.04H0V0h.9c.02 0 .03 0 .03.02L.82.1M.26.24v.24h.4V.24h-.4m0-.1v.07h.4V.12c.04 0 .09.03.1.03v.58c.01 0 .03 0 .03.02L.7.83.64.77H.27l-.1.05V.1c.05 0 .1.02.1.03m0 .37v.23h.38V.51H.26Z"/></symbol><use xlink:href="#Q" transform="matrix(7.9701 0 0 -7.9701 278.21 209.4)" fill="#161823"/></g><g data-name="Span"><symbol id="R"><path d="M.4.93v-.3H0V.6h.4A.7.7 0 0 0 0 .02L.01 0C.37.15.46.35.5.6.52.39.6.15.85 0c0 .06.04.08.09.1C.66.22.54.42.51.6h.4l.01.02-.12.1-.05-.1H.49L.52.9h.02L.4.93Z"/></symbol><use xlink:href="#R" transform="matrix(7.9701 0 0 -7.9701 286.13 209.97)" fill="#161823"/></g><g data-name="Span"><symbol id="S"><path d="M.17.92.16.9A.38.38 0 0 0 .24.74C.34.67.41.85.17.92m.22.01A.35.35 0 0 0 .44.75C.53.67.63.85.39.93M.42.45v-.1h-.4V.3h.4V.13C.42.12.42.11.4.11L.23.12V.11C.29.1.32.09.34.07A.1.1 0 0 0 .37 0c.14.01.15.06.15.13V.3h.39C.92.3.93.3.93.32l-.1.09L.75.34H.52v.07c.02 0 .03.01.04.03H.54l.18.09h.04l-.1.1L.62.58H.18L.2.55h.4a1.27 1.27 0 0 0-.1-.1H.43M.7.93A1.32 1.32 0 0 0 .6.71H.14L.13.8H.1C.11.7.08.65.04.62.02.61 0 .58.01.55.03.52.07.52.1.55.13.55.16.6.15.68H.8A.98.98 0 0 0 .73.57h.02C.8.58.85.62.9.66h.04l-.1.1L.78.71H.62c.06.05.12.1.16.16l.04.01L.7.93Z"/></symbol><use xlink:href="#S" transform="matrix(7.9701 0 0 -7.9701 294.08 209.97)" fill="#161823"/></g><g data-name="Span"><symbol id="T"><path d="M0 .39.05.27.07.3l.1.05V0H.2c.04 0 .07.02.07.03V.4L.4.48V.5L.26.46v.2h.12A.74.74 0 0 0 .3.54V.52c.07.04.13.1.17.18h.06A.87.87 0 0 0 .3.27V.25C.48.36.59.52.64.7h.05A.96.96 0 0 0 .36.07V.06C.62.2.74.44.79.7H.8C.79.4.77.17.72.13L.68.12H.53C.58.1.62.08.63.06.66.06.67.04.67.01c.06 0 .1.01.14.05.05.06.09.27.1.63.02 0 .04 0 .04.02l-.1.08L.8.73H.5l.06.14C.58.87.59.87.6.89L.47.93A1.04 1.04 0 0 0 .4.7L.33.77.28.7H.26v.19C.3.89.3.9.3.92H.17V.85L.06.86C.06.74.03.61 0 .51h.02L.1.66h.07V.43A2.98 2.98 0 0 0 0 .39m.17.44V.7H.11l.03.12.03.01Z"/></symbol><use xlink:href="#T" transform="matrix(7.9701 0 0 -7.9701 310.83 209.96)" fill="#161823"/></g><g data-name="Span"><symbol id="U"><path d="M0 .17.04.06c.02 0 .02.01.03.02l.3.19L.22.24v.25h.12L.36.5.28.58.24.51H.22v.25h.15V.33H.4c.03 0 .07.02.07.03v.03h.12V.23H.37V.21h.21V.03h-.3V0h.66c.01 0 .02 0 .02.02L.86.1.81.03H.67V.2H.9l.02.01-.1.09L.78.23h-.1V.4H.8V.35h.01C.85.35.9.37.9.38v.4l.05.01-.1.08L.79.82H.47l-.1.04V.78L.28.86.23.79H0L.02.76h.11V.5H.01L.02.48h.11V.2L0 .17m.58.42V.42H.46v.17h.12m.1 0H.8V.42H.67v.17M.59.62H.46v.17h.12V.62m.1 0v.17H.8V.62H.67Z"/></symbol><use xlink:href="#U" transform="matrix(7.9701 0 0 -7.9701 318.72 209.67)" fill="#161823"/></g><g data-name="Span"><symbol id="V"><path d="M.34.26.23.32A.93.93 0 0 0 0 .05V.04c.13.05.24.14.3.2.03 0 .04 0 .04.02M.58.3a.67.67 0 0 0 .2-.25C.9 0 .96.23.59.31m.03.24H.6A.72.72 0 0 0 .7.44L.17.42C.37.5.61.6.72.67h.05l-.1.09A1.07 1.07 0 0 0 .52.65L.2.64c.1.03.21.09.28.13h.04L.45.82a5.6 5.6 0 0 1 .4.04l-.1.1A4.07 4.07 0 0 0 .03.8V.79l.34.02A.82.82 0 0 0 .14.66L.11.65l.05-.1.02.01.29.05A1.88 1.88 0 0 0 .1.44L.07.43l.05-.1.02.01.27.04V.12L.39.11H.28V.1C.32.1.34.08.36.07L.38 0C.48 0 .5.06.5.12V.4l.22.04A.4.4 0 0 0 .8.33C.9.26.95.48.6.54Z"/></symbol><use xlink:href="#V" transform="matrix(7.9701 0 0 -7.9701 326.84 210.04)" fill="#161823"/></g></svg>